SplineFontDB: 3.0
FontName: AguafinaScript-Regular
FullName: Aguafina Script Regular
FamilyName: Aguafina Script
Weight: Book
Copyright: Copyright (c) 2007 Angel Koziupa (sudtipos@sudtipos.com),\nCopyright (c) 2007 Alejandro Paul (sudtipos@sudtipos.com),\nwith Reserved Font Name "Aguafina Script"
Version: 1.000
ItalicAngle: 0
UnderlinePosition: -50
UnderlineWidth: 50
Ascent: 800
Descent: 200
sfntRevision: 0x00010000
LayerCount: 2
Layer: 0 1 "Back"  1
Layer: 1 1 "Fore"  0
XUID: [1021 288 713564382 1079433]
FSType: 0
OS2Version: 2
OS2_WeightWidthSlopeOnly: 0
OS2_UseTypoMetrics: 1
CreationTime: 1322170636
ModificationTime: 1322411417
PfmFamily: 17
TTFWeight: 400
TTFWidth: 5
LineGap: 0
VLineGap: 0
Panose: 2 0 5 6 0 0 0 2 0 4
OS2TypoAscent: 166
OS2TypoAOffset: 1
OS2TypoDescent: -381
OS2TypoDOffset: 1
OS2TypoLinegap: 0
OS2WinAscent: 0
OS2WinAOffset: 1
OS2WinDescent: 0
OS2WinDOffset: 1
HheadAscent: 0
HheadAOffset: 1
HheadDescent: 0
HheadDOffset: 1
OS2SubXSize: 700
OS2SubYSize: 650
OS2SubXOff: 0
OS2SubYOff: 140
OS2SupXSize: 700
OS2SupYSize: 650
OS2SupXOff: 0
OS2SupYOff: 477
OS2StrikeYSize: 50
OS2StrikeYPos: 250
OS2Vendor: 'SUDT'
OS2CodePages: 20000001.00000000
OS2UnicodeRanges: 80000027.40000042.00000000.00000000
Lookup: 258 0 0 "'kern' Horizontal Kerning in Latin lookup 0"  {"'kern' Horizontal Kerning in Latin lookup 0 subtable"  } ['kern' ('DFLT' <'dflt' > 'latn' <'dflt' > ) ]
MarkAttachClasses: 1
DEI: 91125
TtTable: prep
PUSHW_1
 511
SCANCTRL
PUSHB_1
 4
SCANTYPE
EndTTInstrs
ShortTable: maxp 16
  1
  0
  235
  145
  7
  0
  0
  2
  0
  1
  1
  0
  64
  0
  0
  0
EndShort

StartChar: exclam
Encoding: 33 33 4
Width: 238
GlyphClass: 2
Flags: W
LayerCount: 2
Fore
SplineSet
73 117 m 128,-1,1
 101 117 101 117 101 83 c 0,2,3
 101 53 101 53 79 25.5 c 128,-1,4
 57 -2 57 -2 30 -2 c 0,5,6
 0 -2 0 -2 0 32 c 0,7,8
 0 62 0 62 22.5 89.5 c 128,-1,0
 45 117 45 117 73 117 c 128,-1,1
242 462 m 0,9,10
 262 507 262 507 293 568.5 c 128,-1,11
 324 630 324 630 346 669 c 2,12,-1
 367 708 l 2,13,14
 389 749 389 749 445 749 c 0,15,16
 472 749 472 749 472 734 c 0,17,18
 472 731 472 731 470 725 c 0,19,20
 462 704 462 704 436.5 661.5 c 128,-1,21
 411 619 411 619 367 551 c 128,-1,22
 323 483 323 483 299 443 c 2,23,-1
 150 200 l 1,24,25
 140 189 140 189 118 189 c 0,26,27
 106 189 106 189 106 198 c 0,28,29
 106 202 106 202 109 208 c 0,30,31
 196 361 196 361 242 462 c 0,9,10
EndSplineSet
EndChar

StartChar: quotedbl
Encoding: 34 34 5
Width: 246
GlyphClass: 2
Flags: W
LayerCount: 2
Fore
SplineSet
247 601 m 0,0,1
 243 601 243 601 243 609 c 0,2,3
 243 621 243 621 254.5 652 c 128,-1,4
 266 683 266 683 278 708 c 2,5,-1
 289 732 l 2,6,7
 300 756 300 756 347 756 c 0,8,9
 375 756 375 756 375 743 c 0,10,11
 375 732 375 732 322 668.5 c 128,-1,12
 269 605 269 605 247 601 c 0,0,1
354 601 m 0,13,14
 350 601 350 601 350 609 c 0,15,16
 350 621 350 621 361.5 652 c 128,-1,17
 373 683 373 683 384 708 c 1,18,-1
 396 732 l 1,19,20
 406 756 406 756 454 756 c 0,21,22
 482 756 482 756 482 743 c 0,23,24
 482 732 482 732 429 668.5 c 128,-1,25
 376 605 376 605 354 601 c 0,13,14
EndSplineSet
EndChar

StartChar: numbersign
Encoding: 35 35 6
Width: 500
GlyphClass: 2
Flags: W
LayerCount: 2
Fore
SplineSet
582 422 m 1,0,-1
 477 422 l 1,1,-1
 435 347 l 1,2,-1
 536 347 l 2,3,4
 553 347 553 347 553 338 c 0,5,6
 553 328 553 328 541.5 316 c 128,-1,7
 530 304 530 304 518 302 c 1,8,-1
 410 302 l 1,9,-1
 357 208 l 1,10,11
 345 189 345 189 311 189 c 0,12,13
 300 189 300 189 300 198 c 0,14,15
 300 201 300 201 303 207 c 2,16,-1
 356 302 l 1,17,-1
 263 302 l 1,18,-1
 210 208 l 1,19,20
 198 189 198 189 164 189 c 0,21,22
 153 189 153 189 153 198 c 0,23,24
 153 201 153 201 156 207 c 2,25,-1
 209 302 l 1,26,-1
 110 302 l 2,27,28
 93 302 93 302 93 312 c 0,29,30
 93 320 93 320 105.5 333.5 c 128,-1,31
 118 347 118 347 129 347 c 2,32,-1
 234 347 l 1,33,-1
 276 422 l 1,34,-1
 174 422 l 2,35,36
 157 422 157 422 157 432 c 0,37,38
 157 440 157 440 169.5 453.5 c 128,-1,39
 182 467 182 467 193 467 c 2,40,-1
 302 467 l 1,41,-1
 352 556 l 2,42,43
 357 565 357 565 362.5 569.5 c 128,-1,44
 368 574 368 574 373 575 c 128,-1,45
 378 576 378 576 387 576 c 0,46,47
 409 576 409 576 409 565 c 0,48,49
 409 562 409 562 406 557 c 2,50,-1
 355 467 l 1,51,-1
 449 467 l 1,52,-1
 499 556 l 2,53,54
 504 565 504 565 509.5 569.5 c 128,-1,55
 515 574 515 574 520 575 c 128,-1,56
 525 576 525 576 534 576 c 0,57,58
 556 576 556 576 556 565 c 0,59,60
 556 562 556 562 553 557 c 2,61,-1
 502 467 l 1,62,-1
 600 467 l 2,63,64
 617 467 617 467 617 458 c 0,65,66
 617 448 617 448 605.5 436 c 128,-1,67
 594 424 594 424 582 422 c 1,0,-1
330 422 m 1,68,-1
 288 347 l 1,69,-1
 381 347 l 1,70,-1
 423 422 l 1,71,-1
 330 422 l 1,68,-1
EndSplineSet
EndChar

StartChar: dollar
Encoding: 36 36 7
Width: 447
GlyphClass: 2
Flags: W
LayerCount: 2
Fore
SplineSet
137 -29 m 2,0,-1
 124 -29 l 1,1,-1
 104 -64 l 2,2,3
 96 -78 96 -78 76 -78 c 0,4,5
 65 -78 65 -78 65 -72 c 1,6,-1
 68 -65 l 1,7,8
 76 -50 76 -50 90 -25 c 1,9,10
 71 -21 71 -21 54 -15.5 c 128,-1,11
 37 -10 37 -10 30 -6 c 1,12,-1
 22 -3 l 1,13,14
 15 1 15 1 8 1 c 0,15,16
 3 1 3 1 -20.5 -7 c 128,-1,17
 -44 -15 -44 -15 -61 -15 c 0,18,19
 -76 -15 -76 -15 -76 -6 c 1,20,-1
 -74 0 l 1,21,22
 -49 55 -49 55 -13.5 121.5 c 128,-1,23
 22 188 22 188 45 227 c 2,24,-1
 68 266 l 2,25,26
 92 306 92 306 106 306 c 0,27,28
 117 306 117 306 117 294 c 1,29,-1
 115 285 l 1,30,31
 67 192 67 192 67 119 c 0,32,33
 67 41 67 41 110 12 c 1,34,-1
 315 380 l 1,35,36
 313 385 313 385 305 411.5 c 128,-1,37
 297 438 297 438 294.5 447 c 128,-1,38
 292 456 292 456 287 475.5 c 128,-1,39
 282 495 282 495 280.5 509.5 c 128,-1,40
 279 524 279 524 279 539 c 0,41,42
 279 631 279 631 354.5 690.5 c 128,-1,43
 430 750 430 750 525 756 c 1,44,-1
 546 792 l 1,45,46
 547 796 547 796 554.5 803.5 c 128,-1,47
 562 811 562 811 569 811 c 0,48,49
 584 811 584 811 584 800 c 0,50,51
 584 797 584 797 583 795 c 2,52,-1
 562 756 l 1,53,54
 572 756 572 756 583.5 754 c 128,-1,55
 595 752 595 752 603 752 c 0,56,57
 616 752 616 752 634 758 c 0,58,59
 660 766 660 766 670 766 c 0,60,61
 682 766 682 766 682 756 c 128,-1,62
 682 746 682 746 650.5 690 c 128,-1,63
 619 634 619 634 575 570 c 1,64,65
 568 565 568 565 563 565 c 0,66,67
 556 565 556 565 556 577 c 0,68,69
 556 590 556 590 562.5 624 c 128,-1,70
 569 658 569 658 569 672 c 0,71,72
 569 707 569 707 543 721 c 1,73,74
 533 702 533 702 506.5 655.5 c 128,-1,75
 480 609 480 609 453.5 561.5 c 128,-1,76
 427 514 427 514 403 470 c 1,77,78
 408 455 408 455 419 422 c 128,-1,79
 430 389 430 389 435.5 369.5 c 128,-1,80
 441 350 441 350 446.5 321 c 128,-1,81
 452 292 452 292 452 267 c 0,82,83
 452 143 452 143 354 57 c 128,-1,84
 256 -29 256 -29 137 -29 c 2,0,-1
328 337 m 1,85,-1
 140 0 l 1,86,87
 150 -3 150 -3 165 -3 c 0,88,89
 219 -3 219 -3 262 35 c 128,-1,90
 305 73 305 73 325.5 124 c 128,-1,91
 346 175 346 175 346 223 c 0,92,93
 346 272 346 272 328 337 c 1,85,-1
390 515 m 1,94,-1
 509 728 l 1,95,96
 450 727 450 727 416 684 c 128,-1,97
 382 641 382 641 382 586 c 0,98,99
 382 552 382 552 390 515 c 1,94,-1
EndSplineSet
EndChar

StartChar: percent
Encoding: 37 37 8
Width: 603
GlyphClass: 2
Flags: W
LayerCount: 2
Fore
SplineSet
799 759 m 2,0,-1
 17 -9 l 1,1,2
 -1 -25 -1 -25 -25 -25 c 0,3,4
 -34 -25 -34 -25 -34 -21 c 1,5,-1
 -27 -12 l 1,6,7
 701 704 701 704 753 753 c 0,8,9
 773 772 773 772 790 772 c 0,10,11
 803 772 803 772 803 766 c 0,12,13
 803 763 803 763 799 759 c 2,0,-1
527 325 m 0,14,15
 500 325 500 325 459.5 277.5 c 128,-1,16
 419 230 419 230 388.5 166 c 128,-1,17
 358 102 358 102 358 58 c 0,18,19
 358 19 358 19 387 19 c 0,20,21
 412 19 412 19 452 68.5 c 128,-1,22
 492 118 492 118 522 183.5 c 128,-1,23
 552 249 552 249 552 291 c 0,24,25
 552 325 552 325 527 325 c 0,14,15
543 350 m 0,26,27
 575 350 575 350 592 331.5 c 128,-1,28
 609 313 609 313 609 281 c 0,29,30
 609 227 609 227 572 158 c 128,-1,31
 535 89 535 89 475 38 c 128,-1,32
 415 -13 415 -13 359 -13 c 0,33,34
 294 -13 294 -13 294 60 c 0,35,36
 294 118 294 118 330.5 186 c 128,-1,37
 367 254 367 254 426.5 302 c 128,-1,38
 486 350 486 350 543 350 c 0,26,27
411 738 m 0,39,40
 384 738 384 738 343.5 690.5 c 128,-1,41
 303 643 303 643 272.5 579 c 128,-1,42
 242 515 242 515 242 471 c 0,43,44
 242 432 242 432 271 432 c 0,45,46
 296 432 296 432 336 481.5 c 128,-1,47
 376 531 376 531 406 596.5 c 128,-1,48
 436 662 436 662 436 704 c 0,49,50
 436 738 436 738 411 738 c 0,39,40
427 763 m 0,51,52
 459 763 459 763 476 744.5 c 128,-1,53
 493 726 493 726 493 694 c 0,54,55
 493 640 493 640 456 571 c 128,-1,56
 419 502 419 502 359 451 c 128,-1,57
 299 400 299 400 243 400 c 0,58,59
 178 400 178 400 178 473 c 0,60,61
 178 531 178 531 214.5 599 c 128,-1,62
 251 667 251 667 310.5 715 c 128,-1,63
 370 763 370 763 427 763 c 0,51,52
EndSplineSet
EndChar

StartChar: ampersand
Encoding: 38 38 9
Width: 551
GlyphClass: 2
Flags: W
LayerCount: 2
Fore
SplineSet
611 394 m 0,0,1
 621 392 621 392 621 384 c 1,2,3
 603 328 603 328 571.5 275.5 c 128,-1,4
 540 223 540 223 508.5 188.5 c 128,-1,5
 477 154 477 154 448.5 127.5 c 128,-1,6
 420 101 420 101 402 89 c 2,7,-1
 384 77 l 2,8,9
 381 75 381 75 379 72 c 128,-1,10
 377 69 377 69 377 68 c 2,11,-1
 377 66 l 1,12,13
 380 -23 380 -23 405 -70 c 1,14,15
 407 -76 407 -76 407 -77 c 0,16,17
 407 -85 407 -85 399 -85 c 0,18,19
 376 -85 376 -85 347 -50.5 c 128,-1,20
 318 -16 318 -16 311 27 c 0,21,22
 310 32 310 32 306 32 c 2,23,-1
 302 31 l 1,24,25
 227 -5 227 -5 164 -5 c 0,26,27
 107 -5 107 -5 67.5 29 c 128,-1,28
 28 63 28 63 28 122 c 0,29,30
 28 180 28 180 57 237 c 128,-1,31
 86 294 86 294 133 339 c 128,-1,32
 180 384 180 384 233 418 c 128,-1,33
 286 452 286 452 341 476 c 0,34,35
 344 477 344 477 346 479.5 c 128,-1,36
 348 482 348 482 348 484 c 1,37,-1
 349 485 l 1,38,39
 370 558 370 558 402 614.5 c 128,-1,40
 434 671 434 671 468.5 701.5 c 128,-1,41
 503 732 503 732 533.5 747 c 128,-1,42
 564 762 564 762 589 762 c 0,43,44
 613 762 613 762 613 728 c 0,45,46
 613 675 613 675 558.5 622.5 c 128,-1,47
 504 570 504 570 440 539 c 1,48,-1
 433 532 l 1,49,50
 381 361 381 361 377 114 c 0,51,52
 377 108 377 108 381 108 c 1,53,-1
 385 110 l 1,54,55
 434 143 434 143 472 202.5 c 128,-1,56
 510 262 510 262 510 310 c 0,57,58
 510 361 510 361 461 375 c 1,59,60
 456 379 456 379 456 384 c 0,61,62
 456 390 456 390 466 392 c 0,63,64
 504 396 504 396 553 396 c 0,65,66
 591 396 591 396 611 394 c 0,0,1
534 715 m 0,67,68
 509 715 509 715 477.5 657 c 128,-1,69
 446 599 446 599 446 576 c 0,70,71
 446 571 446 571 449 571 c 0,72,73
 451 571 451 571 452 572 c 0,74,75
 456 574 456 574 462 578.5 c 128,-1,76
 468 583 468 583 484.5 597 c 128,-1,77
 501 611 501 611 513.5 625.5 c 128,-1,78
 526 640 526 640 536 660.5 c 128,-1,79
 546 681 546 681 546 701 c 0,80,81
 546 715 546 715 534 715 c 0,67,68
334 434 m 1,82,83
 334 439 334 439 328 439 c 1,84,85
 271 409 271 409 229.5 369 c 128,-1,86
 188 329 188 329 169 293 c 128,-1,87
 150 257 150 257 139 225 c 128,-1,88
 128 193 128 193 127 174 c 2,89,-1
 126 155 l 1,90,91
 128 45 128 45 227 45 c 0,92,93
 243 45 243 45 260.5 48 c 128,-1,94
 278 51 278 51 287 54 c 2,95,-1
 296 57 l 2,96,97
 304 60 304 60 304 72 c 1,98,99
 299 107 299 107 299 157 c 0,100,101
 299 276 299 276 334 434 c 1,82,83
EndSplineSet
EndChar

StartChar: quotesingle
Encoding: 39 39 10
Width: 139
GlyphClass: 2
Flags: W
LayerCount: 2
Fore
SplineSet
247 601 m 0,0,1
 243 601 243 601 243 609 c 0,2,3
 243 621 243 621 254.5 652 c 128,-1,4
 266 683 266 683 278 708 c 2,5,-1
 289 732 l 2,6,7
 300 756 300 756 347 756 c 0,8,9
 375 756 375 756 375 743 c 0,10,11
 375 732 375 732 322 668.5 c 128,-1,12
 269 605 269 605 247 601 c 0,0,1
EndSplineSet
EndChar

StartChar: parenleft
Encoding: 40 40 11
Width: 215
GlyphClass: 2
Flags: W
LayerCount: 2
Fore
SplineSet
94 24 m 1,0,-1
 98 -25 l 1,1,2
 98 -38 98 -38 90 -38 c 0,3,4
 69 -38 69 -38 58 11.5 c 128,-1,5
 47 61 47 61 47 96 c 0,6,7
 47 168 47 168 73 253 c 128,-1,8
 99 338 99 338 125 387 c 2,9,-1
 151 436 l 2,10,11
 158 449 158 449 170 470.5 c 128,-1,12
 182 492 182 492 222 548 c 128,-1,13
 262 604 262 604 303 648.5 c 128,-1,14
 344 693 344 693 404.5 733.5 c 128,-1,15
 465 774 465 774 523 782 c 1,16,-1
 529 782 l 2,17,18
 544 782 544 782 544 777 c 0,19,20
 544 773 544 773 533 765 c 1,21,22
 527 763 527 763 516 757.5 c 128,-1,23
 505 752 505 752 471.5 728.5 c 128,-1,24
 438 705 438 705 405.5 674.5 c 128,-1,25
 373 644 373 644 329 587 c 128,-1,26
 285 530 285 530 247 461 c 0,27,28
 241 451 241 451 230.5 433.5 c 128,-1,29
 220 416 220 416 193.5 364 c 128,-1,30
 167 312 167 312 147 261.5 c 128,-1,31
 127 211 127 211 110.5 145 c 128,-1,32
 94 79 94 79 94 24 c 1,0,-1
EndSplineSet
EndChar

StartChar: parenright
Encoding: 41 41 12
Width: 271
GlyphClass: 2
Flags: W
LayerCount: 2
Fore
SplineSet
353 763 m 0,0,1
 353 765 353 765 352.5 767.5 c 128,-1,2
 352 770 352 770 352 771 c 0,3,4
 352 783 352 783 359 783 c 0,5,6
 381 783 381 783 392 734 c 128,-1,7
 403 685 403 685 403 649 c 0,8,9
 403 581 403 581 377.5 497 c 128,-1,10
 352 413 352 413 333 374.5 c 128,-1,11
 314 336 314 336 300 311 c 0,12,13
 289 293 289 293 282.5 281 c 128,-1,14
 276 269 276 269 249 229 c 128,-1,15
 222 189 222 189 199.5 159.5 c 128,-1,16
 177 130 177 130 140.5 90.5 c 128,-1,17
 104 51 104 51 70.5 25 c 128,-1,18
 37 -1 37 -1 -3.5 -19.5 c 128,-1,19
 -44 -38 -44 -38 -82 -38 c 0,20,21
 -95 -38 -95 -38 -95 -32 c 0,22,23
 -95 -28 -95 -28 -84 -20 c 1,24,25
 -78 -18 -78 -18 -67 -12.5 c 128,-1,26
 -56 -7 -56 -7 -22.5 16.5 c 128,-1,27
 11 40 11 40 43.5 70.5 c 128,-1,28
 76 101 76 101 120 158 c 128,-1,29
 164 215 164 215 202 284 c 0,30,31
 208 294 208 294 218.5 311.5 c 128,-1,32
 229 329 229 329 255.5 381.5 c 128,-1,33
 282 434 282 434 302 484.5 c 128,-1,34
 322 535 322 535 338.5 601 c 128,-1,35
 355 667 355 667 355 722 c 0,36,37
 355 750 355 750 353 763 c 0,0,1
EndSplineSet
EndChar

StartChar: asterisk
Encoding: 42 42 13
Width: 245
GlyphClass: 2
Flags: W
LayerCount: 2
Fore
SplineSet
495 777 m 1,0,1
 495 762 495 762 430 702 c 1,2,3
 503 697 503 697 503 686 c 0,4,5
 503 669 503 669 406 665 c 1,6,7
 408 639 408 639 408 623 c 0,8,9
 408 582 408 582 397 582 c 0,10,11
 380 582 380 582 365 648 c 1,12,13
 288 590 288 590 271 590 c 0,14,15
 269 590 269 590 268 591 c 1,16,17
 268 608 268 608 331 666 c 1,18,19
 258 669 258 669 258 682 c 0,20,21
 258 698 258 698 355 702 c 1,22,23
 353 732 353 732 353 742 c 0,24,25
 353 785 353 785 365 785 c 0,26,27
 380 785 380 785 396 721 c 1,28,29
 470 778 470 778 492 778 c 0,30,31
 494 778 494 778 495 777 c 1,0,1
EndSplineSet
EndChar

StartChar: plus
Encoding: 43 43 14
Width: 441
GlyphClass: 2
Flags: W
LayerCount: 2
Fore
SplineSet
455 557 m 2,0,-1
 371 407 l 1,1,-1
 509 407 l 2,2,3
 526 407 526 407 526 398 c 0,4,5
 526 388 526 388 514.5 376 c 128,-1,6
 503 364 503 364 491 362 c 1,7,-1
 345 362 l 1,8,-1
 259 208 l 1,9,10
 253 189 253 189 213 189 c 0,11,12
 192 189 192 189 192 198 c 0,13,14
 192 201 192 201 195 207 c 2,15,-1
 282 362 l 1,16,-1
 143 362 l 2,17,18
 126 362 126 362 126 372 c 0,19,20
 126 380 126 380 138.5 393.5 c 128,-1,21
 151 407 151 407 162 407 c 2,22,-1
 307 407 l 1,23,-1
 391 556 l 2,24,25
 403 576 403 576 436 576 c 0,26,27
 458 576 458 576 458 565 c 0,28,29
 458 562 458 562 455 557 c 2,0,-1
EndSplineSet
EndChar

StartChar: comma
Encoding: 44 44 15
Width: 184
GlyphClass: 2
Flags: W
LayerCount: 2
Fore
SplineSet
-22 -89 m 0,0,1
 -28 -93 -28 -93 -33 -93 c 0,2,3
 -39 -93 -39 -93 -39 -88 c 0,4,5
 -39 -82 -39 -82 -34 -74 c 0,6,7
 -33 -73 -33 -73 -23 -56 c 128,-1,8
 -13 -39 -13 -39 -9 -31 c 128,-1,9
 -5 -23 -5 -23 0.5 -8 c 128,-1,10
 6 7 6 7 8 19 c 1,11,12
 8 53 8 53 29 80.5 c 128,-1,13
 50 108 50 108 77 108 c 0,14,15
 109 108 109 108 109 79 c 0,16,17
 109 46 109 46 62 -10 c 128,-1,18
 15 -66 15 -66 -22 -89 c 0,0,1
EndSplineSet
EndChar

StartChar: hyphen
Encoding: 45 45 16
Width: 430
GlyphClass: 2
Flags: W
LayerCount: 2
Fore
SplineSet
416 203 m 1,0,-1
 148 203 l 2,1,2
 131 203 131 203 131 213 c 0,3,4
 131 221 131 221 143.5 234.5 c 128,-1,5
 156 248 156 248 167 248 c 2,6,-1
 434 248 l 2,7,8
 451 248 451 248 451 239 c 0,9,10
 451 229 451 229 439.5 217 c 128,-1,11
 428 205 428 205 416 203 c 1,0,-1
EndSplineSet
EndChar

StartChar: period
Encoding: 46 46 17
Width: 173
GlyphClass: 2
Flags: W
LayerCount: 2
Fore
SplineSet
30 -8 m 0,0,1
 16 -8 16 -8 8 1 c 128,-1,2
 0 10 0 10 0 25 c 0,3,4
 0 53 0 53 22.5 80.5 c 128,-1,5
 45 108 45 108 72 108 c 0,6,7
 102 108 102 108 102 74 c 0,8,9
 102 45 102 45 79.5 19 c 128,-1,10
 57 -7 57 -7 30 -8 c 0,0,1
EndSplineSet
EndChar

StartChar: slash
Encoding: 47 47 18
Width: 207
GlyphClass: 2
Flags: W
LayerCount: 2
Fore
SplineSet
707 776 m 2,0,-1
 -67 -16 l 2,1,2
 -81 -30 -81 -30 -116 -30 c 0,3,4
 -127 -30 -127 -30 -127 -26 c 1,5,-1
 -122 -17 l 1,6,7
 601 723 601 723 651 773 c 0,8,9
 670 792 670 792 687 792 c 0,10,11
 710 792 710 792 710 782 c 0,12,13
 710 779 710 779 707 776 c 2,0,-1
EndSplineSet
EndChar

StartChar: zero
Encoding: 48 48 19
Width: 533
GlyphClass: 2
Flags: W
LayerCount: 2
Fore
SplineSet
526 731 m 0,0,1
 457 731 457 731 368.5 622 c 128,-1,2
 280 513 280 513 219.5 368.5 c 128,-1,3
 159 224 159 224 159 123 c 0,4,5
 159 28 159 28 219 28 c 0,6,7
 281 28 281 28 350 102.5 c 128,-1,8
 419 177 419 177 470 278.5 c 128,-1,9
 521 380 521 380 555 482 c 128,-1,10
 589 584 589 584 589 641 c 0,11,12
 589 731 589 731 526 731 c 0,0,1
558 766 m 0,13,14
 617 766 617 766 648.5 725 c 128,-1,15
 680 684 680 684 680 613 c 0,16,17
 680 521 680 521 629.5 408.5 c 128,-1,18
 579 296 579 296 504.5 202.5 c 128,-1,19
 430 109 430 109 337.5 45.5 c 128,-1,20
 245 -18 245 -18 167 -18 c 0,21,22
 113 -18 113 -18 85 22.5 c 128,-1,23
 57 63 57 63 57 134 c 0,24,25
 57 207 57 207 93.5 312 c 128,-1,26
 130 417 130 417 200 524 c 128,-1,27
 270 631 270 631 350 690 c 0,28,29
 453 766 453 766 558 766 c 0,13,14
EndSplineSet
EndChar

StartChar: one
Encoding: 49 49 20
Width: 244
GlyphClass: 2
Flags: W
LayerCount: 2
Fore
SplineSet
67 30 m 1,0,1
 32 -18 32 -18 -9 -18 c 0,2,3
 -24 -18 -24 -18 -24 -5 c 0,4,5
 -24 9 -24 9 -6 51 c 128,-1,6
 12 93 12 93 38 143.5 c 128,-1,7
 64 194 64 194 89.5 242 c 128,-1,8
 115 290 115 290 134 324 c 2,9,-1
 152 357 l 1,10,11
 315 628 315 628 315 678 c 0,12,13
 315 700 315 700 279 700 c 1,14,-1
 242 695 l 1,15,16
 226 695 226 695 226 703 c 0,17,18
 226 706 226 706 228 709.5 c 128,-1,19
 230 713 230 713 232 715 c 2,20,-1
 234 717 l 1,21,22
 242 722 242 722 259 729.5 c 128,-1,23
 276 737 276 737 335.5 750 c 128,-1,24
 395 763 395 763 464 763 c 1,25,26
 475 760 475 760 475 751 c 0,27,28
 475 743 475 743 464 732 c 0,29,30
 432 698 432 698 378 605 c 0,31,32
 281 437 281 437 227 329 c 0,33,34
 219 313 219 313 190.5 254.5 c 128,-1,35
 162 196 162 196 149.5 171 c 128,-1,36
 137 146 137 146 113 104 c 128,-1,37
 89 62 89 62 67 30 c 1,0,1
EndSplineSet
EndChar

StartChar: two
Encoding: 50 50 21
Width: 411
GlyphClass: 2
Flags: W
LayerCount: 2
Fore
SplineSet
358 134 m 0,0,1
 340 86 340 86 322 54 c 128,-1,2
 304 22 304 22 295 14 c 2,3,-1
 286 6 l 2,4,5
 273 -6 273 -6 196 -6 c 0,6,7
 180 -6 180 -6 142 -5 c 128,-1,8
 104 -4 104 -4 78 -4 c 0,9,10
 43 -4 43 -4 -10.5 -5 c 128,-1,11
 -64 -6 -64 -6 -69 -6 c 0,12,13
 -83 -6 -83 -6 -83 5 c 1,14,-1
 -78 22 l 1,15,16
 -50 63 -50 63 29 138.5 c 128,-1,17
 108 214 108 214 173 268 c 2,18,-1
 238 323 l 2,19,20
 278 357 278 357 303.5 380 c 128,-1,21
 329 403 329 403 376 450 c 128,-1,22
 423 497 423 497 448 540.5 c 128,-1,23
 473 584 473 584 473 619 c 0,24,25
 473 650 473 650 451 668.5 c 128,-1,26
 429 687 429 687 397 687 c 0,27,28
 362 687 362 687 328.5 665.5 c 128,-1,29
 295 644 295 644 279 623 c 2,30,-1
 263 602 l 2,31,32
 254 589 254 589 247 589 c 0,33,34
 238 589 238 589 238 602 c 0,35,36
 238 606 238 606 241.5 620.5 c 128,-1,37
 245 635 245 635 258 661 c 128,-1,38
 271 687 271 687 290.5 710 c 128,-1,39
 310 733 310 733 347 750 c 128,-1,40
 384 767 384 767 431 767 c 0,41,42
 489 767 489 767 535 739 c 128,-1,43
 581 711 581 711 581 653 c 0,44,45
 581 531 581 531 405 411 c 1,46,47
 346 373 346 373 213 257.5 c 128,-1,48
 80 142 80 142 80 103 c 0,49,50
 80 91 80 91 93 90 c 1,51,52
 128 84 128 84 173 84 c 0,53,54
 295 84 295 84 336 140 c 0,55,56
 343 150 343 150 351 150 c 0,57,58
 360 150 360 150 360 141 c 0,59,60
 360 138 360 138 358 134 c 0,0,1
EndSplineSet
EndChar

StartChar: three
Encoding: 51 51 22
Width: 431
GlyphClass: 2
Flags: W
LayerCount: 2
Fore
SplineSet
-44 -47 m 0,0,1
 -51 -41 -51 -41 -51 -37 c 128,-1,2
 -51 -33 -51 -33 -46.5 -31 c 128,-1,3
 -42 -29 -42 -29 -38 -28 c 1,4,-1
 -33 -28 l 1,5,6
 -6 -33 -6 -33 13 -33 c 0,7,8
 85 -33 85 -33 156 9 c 128,-1,9
 227 51 227 51 272.5 122 c 128,-1,10
 318 193 318 193 318 269 c 0,11,12
 318 304 318 304 303.5 332 c 128,-1,13
 289 360 289 360 268.5 374.5 c 128,-1,14
 248 389 248 389 227.5 399 c 128,-1,15
 207 409 207 409 192 412 c 2,16,-1
 178 414 l 2,17,18
 170 415 170 415 170 422 c 0,19,20
 170 427 170 427 175 434 c 0,21,22
 180 440 180 440 188 440 c 0,23,24
 246 440 246 440 306.5 460 c 128,-1,25
 367 480 367 480 413 524 c 128,-1,26
 459 568 459 568 459 624 c 0,27,28
 459 660 459 660 438 682 c 128,-1,29
 417 704 417 704 381 704 c 0,30,31
 357 704 357 704 329.5 693.5 c 128,-1,32
 302 683 302 683 286 672 c 2,33,-1
 271 662 l 2,34,35
 266 658 266 658 261 658 c 0,36,37
 252 658 252 658 252 673 c 0,38,39
 252 674 252 674 257 682.5 c 128,-1,40
 262 691 262 691 275.5 705 c 128,-1,41
 289 719 289 719 308 731.5 c 128,-1,42
 327 744 327 744 359.5 753.5 c 128,-1,43
 392 763 392 763 430 763 c 0,44,45
 487 763 487 763 524 735.5 c 128,-1,46
 561 708 561 708 561 658 c 0,47,48
 561 615 561 615 540 577.5 c 128,-1,49
 519 540 519 540 483.5 514 c 128,-1,50
 448 488 448 488 411 470 c 128,-1,51
 374 452 374 452 335 441 c 1,52,53
 326 436 326 436 326 431 c 0,54,55
 326 428 326 428 331 425 c 0,56,57
 334 423 334 423 340 419 c 128,-1,58
 346 415 346 415 361 400 c 128,-1,59
 376 385 376 385 387 368 c 128,-1,60
 398 351 398 351 407.5 323 c 128,-1,61
 417 295 417 295 417 264 c 0,62,63
 417 206 417 206 389 146.5 c 128,-1,64
 361 87 361 87 313 39 c 128,-1,65
 265 -9 265 -9 195 -39.5 c 128,-1,66
 125 -70 125 -70 47 -70 c 0,67,68
 -15 -70 -15 -70 -44 -47 c 0,0,1
EndSplineSet
EndChar

StartChar: four
Encoding: 52 52 23
Width: 415
GlyphClass: 2
Flags: W
LayerCount: 2
Fore
SplineSet
496 298 m 0,0,1
 464 239 464 239 398 232 c 0,2,3
 382 230 382 230 352 228 c 1,4,-1
 253 41 l 1,5,6
 235 13 235 13 201.5 -7 c 128,-1,7
 168 -27 168 -27 139 -27 c 0,8,9
 127 -27 127 -27 127 -14 c 1,10,-1
 128 -6 l 1,11,12
 143 27 143 27 256 226 c 1,13,-1
 229 226 l 1,14,-1
 33 232 l 2,15,16
 13 233 13 233 13 249 c 1,17,-1
 17 264 l 1,18,19
 33 282 33 282 61.5 312.5 c 128,-1,20
 90 343 90 343 170.5 423.5 c 128,-1,21
 251 504 251 504 323 569 c 128,-1,22
 395 634 395 634 481 696 c 128,-1,23
 567 758 567 758 624 776 c 0,24,25
 630 777 630 777 636 777 c 0,26,27
 656 777 656 777 656 764 c 0,28,29
 656 759 656 759 654 755 c 0,30,31
 648 742 648 742 608.5 674 c 128,-1,32
 569 606 569 606 505 496 c 128,-1,33
 441 386 441 386 397 309 c 1,34,35
 419 310 419 310 440 311.5 c 128,-1,36
 461 313 461 313 473.5 314.5 c 128,-1,37
 486 316 486 316 490 316 c 0,38,39
 500 316 500 316 500 309 c 0,40,41
 500 305 500 305 496 298 c 0,0,1
505 653 m 2,42,43
 509 661 509 661 509 665 c 128,-1,44
 509 669 509 669 505 669 c 1,45,-1
 494 665 l 1,46,47
 408 606 408 606 321.5 526.5 c 128,-1,48
 235 447 235 447 191 396 c 2,49,-1
 147 346 l 2,50,51
 140 338 140 338 140 330 c 0,52,53
 140 320 140 320 155 317 c 1,54,55
 218 309 218 309 303 308 c 1,56,-1
 505 653 l 2,42,43
EndSplineSet
EndChar

StartChar: five
Encoding: 53 53 24
Width: 407
GlyphClass: 2
Flags: W
LayerCount: 2
Fore
SplineSet
264 520 m 0,0,1
 342 520 342 520 391 476 c 128,-1,2
 440 432 440 432 440 355 c 0,3,4
 440 259 440 259 380 164 c 128,-1,5
 320 69 320 69 223 8.5 c 128,-1,6
 126 -52 126 -52 26 -52 c 0,7,8
 9 -52 9 -52 -7 -50 c 128,-1,9
 -23 -48 -23 -48 -30 -46 c 2,10,-1
 -37 -45 l 1,11,12
 -43 -40 -43 -40 -43 -34 c 0,13,14
 -43 -30 -43 -30 -38.5 -27.5 c 128,-1,15
 -34 -25 -34 -25 -30 -24 c 2,16,-1
 -26 -23 l 1,17,18
 66 -23 66 -23 153 36.5 c 128,-1,19
 240 96 240 96 291 180 c 128,-1,20
 342 264 342 264 342 340 c 0,21,22
 342 373 342 373 328 396 c 128,-1,23
 314 419 314 419 291.5 428.5 c 128,-1,24
 269 438 269 438 251.5 441.5 c 128,-1,25
 234 445 234 445 216 445 c 0,26,27
 211 445 211 445 202 443.5 c 128,-1,28
 193 442 193 442 189 442 c 0,29,30
 175 442 175 442 175 453 c 1,31,-1
 177 462 l 1,32,33
 185 481 185 481 225.5 550 c 128,-1,34
 266 619 266 619 302 679 c 2,35,-1
 338 739 l 2,36,37
 344 748 344 748 360 748 c 2,38,-1
 384 747 l 2,39,40
 407 746 407 746 442.5 745 c 128,-1,41
 478 744 478 744 509 744 c 0,42,43
 584 744 584 744 608 750 c 0,44,45
 612 751 612 751 615 751 c 0,46,47
 625 751 625 751 625 742 c 0,48,49
 625 723 625 723 598.5 689.5 c 128,-1,50
 572 656 572 656 529 656 c 0,51,52
 513 656 513 656 487 656.5 c 128,-1,53
 461 657 461 657 450 657 c 0,54,55
 366 657 366 657 339 652 c 1,56,57
 321 651 321 651 311 633 c 1,58,59
 262 555 262 555 256 535 c 0,60,61
 255 531 255 531 255 528 c 0,62,63
 255 520 255 520 264 520 c 0,0,1
EndSplineSet
EndChar

StartChar: six
Encoding: 54 54 25
Width: 436
GlyphClass: 2
Flags: W
LayerCount: 2
Fore
SplineSet
353 424 m 0,0,1
 309 424 309 424 251.5 367.5 c 128,-1,2
 194 311 194 311 154 220 c 0,3,4
 120 142 120 142 120 90 c 0,5,6
 120 61 120 61 133.5 39.5 c 128,-1,7
 147 18 147 18 175 18 c 0,8,9
 215 18 215 18 268.5 77 c 128,-1,10
 322 136 322 136 360 217 c 128,-1,11
 398 298 398 298 398 357 c 0,12,13
 398 424 398 424 353 424 c 0,0,1
488 372 m 0,14,15
 488 292 488 292 446 204 c 128,-1,16
 404 116 404 116 326 52.5 c 128,-1,17
 248 -11 248 -11 159 -11 c 0,18,19
 36 -11 36 -11 36 111 c 0,20,21
 36 167 36 167 66 253 c 128,-1,22
 96 339 96 339 149.5 431.5 c 128,-1,23
 203 524 203 524 269 605 c 128,-1,24
 335 686 335 686 416 738.5 c 128,-1,25
 497 791 497 791 572 791 c 0,26,27
 591 791 591 791 606 787 c 1,28,29
 614 782 614 782 614 776 c 0,30,31
 614 769 614 769 603 769 c 0,32,33
 596 769 596 769 582.5 766.5 c 128,-1,34
 569 764 569 764 527 744 c 128,-1,35
 485 724 485 724 443 688.5 c 128,-1,36
 401 653 401 653 342 576 c 128,-1,37
 283 499 283 499 229 395 c 0,38,39
 228 392 228 392 228 389 c 0,40,41
 228 385 228 385 230 385 c 0,42,43
 234 385 234 385 239 391 c 0,44,45
 248 400 248 400 264 414 c 128,-1,46
 280 428 280 428 322.5 451 c 128,-1,47
 365 474 365 474 399 474 c 0,48,49
 439 474 439 474 463.5 446 c 128,-1,50
 488 418 488 418 488 372 c 0,14,15
EndSplineSet
EndChar

StartChar: seven
Encoding: 55 55 26
Width: 366
GlyphClass: 2
Flags: W
LayerCount: 2
Fore
SplineSet
131 129 m 0,0,1
 58 -17 58 -17 31 -17 c 0,2,3
 20 -17 20 -17 14 6.5 c 128,-1,4
 8 30 8 30 8 44 c 0,5,6
 8 78 8 78 22 117.5 c 128,-1,7
 36 157 36 157 63.5 197.5 c 128,-1,8
 91 238 91 238 118 273 c 128,-1,9
 145 308 145 308 184.5 348 c 128,-1,10
 224 388 224 388 247.5 411 c 128,-1,11
 271 434 271 434 306.5 466.5 c 128,-1,12
 342 499 342 499 347 503 c 0,13,14
 381 535 381 535 424.5 585.5 c 128,-1,15
 468 636 468 636 468 655 c 0,16,17
 468 659 468 659 465 662 c 128,-1,18
 462 665 462 665 458 666 c 1,19,-1
 455 666 l 1,20,21
 414 670 414 670 373 670 c 0,22,23
 334 670 334 670 304 666 c 128,-1,24
 274 662 274 662 263 658 c 2,25,-1
 252 653 l 2,26,27
 245 649 245 649 240 649 c 1,28,-1
 230 660 l 1,29,30
 231 664 231 664 233.5 670 c 128,-1,31
 236 676 236 676 244.5 692 c 128,-1,32
 253 708 253 708 263 720.5 c 128,-1,33
 273 733 273 733 289.5 743 c 128,-1,34
 306 753 306 753 325 753 c 0,35,36
 463 753 463 753 519 745 c 0,37,38
 526 745 526 745 531 750 c 0,39,40
 580 795 580 795 604 795 c 0,41,42
 616 795 616 795 616 783 c 0,43,44
 616 775 616 775 611.5 763.5 c 128,-1,45
 607 752 607 752 601 742.5 c 128,-1,46
 595 733 595 733 585 719.5 c 128,-1,47
 575 706 575 706 568.5 698 c 128,-1,48
 562 690 562 690 552 678 c 128,-1,49
 542 666 542 666 540 664 c 0,50,51
 515 634 515 634 442 560 c 0,52,53
 423 541 423 541 392.5 508 c 128,-1,54
 362 475 362 475 294 390 c 128,-1,55
 226 305 226 305 190 238 c 1,56,57
 152 171 152 171 131 129 c 0,0,1
EndSplineSet
EndChar

StartChar: eight
Encoding: 56 56 27
Width: 488
GlyphClass: 2
Flags: W
LayerCount: 2
Fore
SplineSet
198 -16 m 0,0,1
 117 -16 117 -16 68 22 c 128,-1,2
 19 60 19 60 19 136 c 0,3,4
 19 194 19 194 52 248.5 c 128,-1,5
 85 303 85 303 140 344 c 128,-1,6
 195 385 195 385 246 413.5 c 128,-1,7
 297 442 297 442 352 464 c 0,8,9
 357 466 357 466 357 474 c 1,10,11
 343 525 343 525 343 599 c 0,12,13
 343 667 343 667 405 715.5 c 128,-1,14
 467 764 467 764 554 764 c 0,15,16
 615 764 615 764 654 741.5 c 128,-1,17
 693 719 693 719 693 672 c 0,18,19
 693 555 693 555 466 443 c 0,20,21
 462 442 462 442 462 436 c 1,22,-1
 465 425 l 2,23,24
 468 414 468 414 472 396.5 c 128,-1,25
 476 379 476 379 479.5 357 c 128,-1,26
 483 335 483 335 486 308 c 128,-1,27
 489 281 489 281 489 256 c 0,28,29
 489 135 489 135 402.5 59.5 c 128,-1,30
 316 -16 316 -16 198 -16 c 0,0,1
392 251 m 0,31,32
 392 331 392 331 366 433 c 1,33,34
 366 439 366 439 361 439 c 0,35,36
 358 439 358 439 356 438 c 0,37,38
 334 430 334 430 298 405 c 128,-1,39
 262 380 262 380 218.5 339.5 c 128,-1,40
 175 299 175 299 144.5 236.5 c 128,-1,41
 114 174 114 174 114 107 c 0,42,43
 114 62 114 62 139 36.5 c 128,-1,44
 164 11 164 11 207 11 c 0,45,46
 265 11 265 11 308.5 50 c 128,-1,47
 352 89 352 89 372 142.5 c 128,-1,48
 392 196 392 196 392 251 c 0,31,32
463 471 m 0,49,50
 525 504 525 504 565 558 c 128,-1,51
 605 612 605 612 605 673 c 0,52,53
 605 703 605 703 586.5 720.5 c 128,-1,54
 568 738 568 738 540 738 c 0,55,56
 499 738 499 738 466 706 c 128,-1,57
 433 674 433 674 433 629 c 0,58,59
 433 580 433 580 436 557 c 128,-1,60
 439 534 439 534 452 473 c 1,61,62
 454 470 454 470 458 470 c 0,63,64
 461 470 461 470 463 471 c 0,49,50
EndSplineSet
EndChar

StartChar: nine
Encoding: 57 57 28
Width: 466
GlyphClass: 2
Flags: W
LayerCount: 2
Fore
SplineSet
528 686 m 0,0,1
 528 747 528 747 480 747 c 0,2,3
 433 747 433 747 380.5 689 c 128,-1,4
 328 631 328 631 294.5 555 c 128,-1,5
 261 479 261 479 261 424 c 0,6,7
 261 362 261 362 306 362 c 0,8,9
 354 362 354 362 407.5 421 c 128,-1,10
 461 480 461 480 494.5 556 c 128,-1,11
 528 632 528 632 528 686 c 0,0,1
475 299 m 1,12,13
 436 234 436 234 393.5 178 c 128,-1,14
 351 122 351 122 293.5 65 c 128,-1,15
 236 8 236 8 167 -25 c 128,-1,16
 98 -58 98 -58 27 -58 c 0,17,18
 -43 -58 -43 -58 -43 -39 c 0,19,20
 -43 -34 -43 -34 -36.5 -31 c 128,-1,21
 -30 -28 -30 -28 -26 -28 c 0,22,23
 26 -28 26 -28 79.5 -5 c 128,-1,24
 133 18 133 18 176 55 c 128,-1,25
 219 92 219 92 259 136.5 c 128,-1,26
 299 181 299 181 329 225.5 c 128,-1,27
 359 270 359 270 381 307 c 128,-1,28
 403 344 403 344 414 367 c 2,29,-1
 426 390 l 2,30,31
 429 396 429 396 429 398 c 128,-1,32
 429 400 429 400 427 400 c 2,33,-1
 417 395 l 1,34,35
 333 311 333 311 256 311 c 0,36,37
 174 311 174 311 174 415 c 0,38,39
 174 492 174 492 212.5 574.5 c 128,-1,40
 251 657 251 657 322.5 715.5 c 128,-1,41
 394 774 394 774 476 774 c 0,42,43
 535 774 535 774 569 741 c 128,-1,44
 603 708 603 708 603 646 c 0,45,46
 603 591 603 591 582 526 c 128,-1,47
 561 461 561 461 538.5 415.5 c 128,-1,48
 516 370 516 370 475 299 c 1,12,13
EndSplineSet
EndChar

StartChar: colon
Encoding: 58 58 29
Width: 201
GlyphClass: 2
Flags: W
LayerCount: 2
Fore
SplineSet
209 314 m 0,0,1
 195 314 195 314 187 323 c 128,-1,2
 179 332 179 332 179 347 c 0,3,4
 179 375 179 375 201.5 402.5 c 128,-1,5
 224 430 224 430 251 430 c 0,6,7
 281 430 281 430 281 396 c 0,8,9
 281 367 281 367 258.5 341 c 128,-1,10
 236 315 236 315 209 314 c 0,0,1
30 -8 m 0,11,12
 16 -8 16 -8 8 1 c 128,-1,13
 0 10 0 10 0 25 c 0,14,15
 0 53 0 53 22.5 80.5 c 128,-1,16
 45 108 45 108 72 108 c 0,17,18
 102 108 102 108 102 74 c 0,19,20
 102 45 102 45 79.5 19 c 128,-1,21
 57 -7 57 -7 30 -8 c 0,11,12
EndSplineSet
EndChar

StartChar: semicolon
Encoding: 59 59 30
Width: 216
GlyphClass: 2
Flags: W
LayerCount: 2
Fore
SplineSet
217 314 m 0,0,1
 203 314 203 314 195 323 c 128,-1,2
 187 332 187 332 187 347 c 0,3,4
 187 375 187 375 209.5 402.5 c 128,-1,5
 232 430 232 430 259 430 c 0,6,7
 289 430 289 430 289 396 c 0,8,9
 289 367 289 367 266.5 341 c 128,-1,10
 244 315 244 315 217 314 c 0,0,1
-22 -89 m 0,11,12
 -28 -93 -28 -93 -33 -93 c 0,13,14
 -39 -93 -39 -93 -39 -88 c 0,15,16
 -39 -82 -39 -82 -34 -74 c 0,17,18
 -33 -73 -33 -73 -23 -56 c 128,-1,19
 -13 -39 -13 -39 -9 -31 c 128,-1,20
 -5 -23 -5 -23 0.5 -8 c 128,-1,21
 6 7 6 7 8 19 c 1,22,23
 8 53 8 53 29 80.5 c 128,-1,24
 50 108 50 108 77 108 c 0,25,26
 109 108 109 108 109 79 c 0,27,28
 109 46 109 46 62 -10 c 128,-1,29
 15 -66 15 -66 -22 -89 c 0,11,12
EndSplineSet
EndChar

StartChar: less
Encoding: 60 60 31
Width: 373
GlyphClass: 2
Flags: W
LayerCount: 2
Fore
SplineSet
242 193 m 0,0,1
 219 218 219 218 184 281.5 c 128,-1,2
 149 345 149 345 149 372 c 0,3,4
 149 380 149 380 152.5 387 c 128,-1,5
 156 394 156 394 160 397 c 2,6,-1
 163 400 l 1,7,8
 214 437 214 437 300 489 c 0,9,10
 397 547 397 547 443 570 c 1,11,12
 470 582 470 582 500 582 c 0,13,14
 527 582 527 582 527 574 c 0,15,16
 527 567 527 567 513 558 c 1,17,18
 264 421 264 421 234 387 c 0,19,20
 228 381 228 381 228 373 c 0,21,22
 230 344 230 344 313 200 c 1,23,24
 318 194 318 194 318 187 c 0,25,26
 318 174 318 174 295 174 c 0,27,28
 260 174 260 174 242 193 c 0,0,1
EndSplineSet
EndChar

StartChar: equal
Encoding: 61 61 32
Width: 500
GlyphClass: 2
Flags: W
LayerCount: 2
Fore
SplineSet
493 310 m 1,0,-1
 145 310 l 2,1,2
 128 310 128 310 128 320 c 0,3,4
 128 328 128 328 140.5 341.5 c 128,-1,5
 153 355 153 355 164 355 c 2,6,-1
 511 355 l 2,7,8
 528 355 528 355 528 346 c 0,9,10
 528 336 528 336 516.5 324 c 128,-1,11
 505 312 505 312 493 310 c 1,0,-1
557 414 m 1,12,-1
 209 414 l 2,13,14
 192 414 192 414 192 424 c 0,15,16
 192 432 192 432 204.5 445.5 c 128,-1,17
 217 459 217 459 228 459 c 2,18,-1
 575 459 l 2,19,20
 592 459 592 459 592 450 c 0,21,22
 592 440 592 440 580.5 428 c 128,-1,23
 569 416 569 416 557 414 c 1,12,-1
EndSplineSet
EndChar

StartChar: greater
Encoding: 62 62 33
Width: 380
GlyphClass: 2
Flags: W
LayerCount: 2
Fore
SplineSet
339 555 m 1,0,1
 360 531 360 531 396 463 c 128,-1,2
 432 395 432 395 432 375 c 0,3,4
 432 368 432 368 428.5 361.5 c 128,-1,5
 425 355 425 355 422 352 c 2,6,-1
 418 349 l 2,7,8
 366 311 366 311 280 259 c 0,9,10
 209 216 209 216 138 178 c 1,11,12
 118 166 118 166 78 166 c 0,13,14
 54 166 54 166 54 175 c 0,15,16
 54 181 54 181 68 190 c 1,17,18
 316 328 316 328 347 361 c 0,19,20
 352 367 352 367 352 377 c 0,21,22
 352 401 352 401 267 548 c 1,23,24
 262 554 262 554 262 561 c 0,25,26
 262 574 262 574 286 574 c 0,27,28
 321 574 321 574 339 555 c 1,0,1
EndSplineSet
EndChar

StartChar: question
Encoding: 63 63 34
Width: 393
GlyphClass: 2
Flags: W
LayerCount: 2
Fore
SplineSet
105 116 m 0,0,1
 135 116 135 116 135 82 c 0,2,3
 135 52 135 52 112.5 24.5 c 128,-1,4
 90 -3 90 -3 62 -3 c 128,-1,5
 34 -3 34 -3 34 31 c 0,6,7
 34 61 34 61 56 88.5 c 128,-1,8
 78 116 78 116 105 116 c 0,0,1
481 749 m 0,9,10
 626 749 626 749 626 632 c 0,11,12
 626 602 626 602 613 574 c 128,-1,13
 600 546 600 546 582.5 526.5 c 128,-1,14
 565 507 565 507 534.5 486 c 128,-1,15
 504 465 504 465 482.5 454 c 128,-1,16
 461 443 461 443 427 426 c 0,17,18
 386 406 386 406 351 382.5 c 128,-1,19
 316 359 316 359 294.5 339.5 c 128,-1,20
 273 320 273 320 257.5 303 c 128,-1,21
 242 286 242 286 236 276 c 2,22,-1
 230 267 l 1,23,24
 215 241 215 241 197 217 c 128,-1,25
 179 193 179 193 168 182 c 2,26,-1
 158 172 l 2,27,28
 151 165 151 165 144 165 c 0,29,30
 134 165 134 165 134 191 c 0,31,32
 134 239 134 239 160 279 c 0,33,34
 178 307 178 307 209.5 329.5 c 128,-1,35
 241 352 241 352 273.5 368 c 128,-1,36
 306 384 306 384 355.5 417.5 c 128,-1,37
 405 451 405 451 450 494 c 0,38,39
 454 497 454 497 460 503.5 c 128,-1,40
 466 510 466 510 482 529 c 128,-1,41
 498 548 498 548 510.5 568 c 128,-1,42
 523 588 523 588 533 616 c 128,-1,43
 543 644 543 644 543 670 c 0,44,45
 543 676 543 676 541.5 684.5 c 128,-1,46
 540 693 540 693 526 707.5 c 128,-1,47
 512 722 512 722 488 722 c 0,48,49
 422 722 422 722 374 661 c 128,-1,50
 326 600 326 600 322 526 c 0,51,52
 321 516 321 516 312 516 c 0,53,54
 307 516 307 516 304 518 c 0,55,56
 275 543 275 543 275 587 c 0,57,58
 275 655 275 655 340.5 702 c 128,-1,59
 406 749 406 749 481 749 c 0,9,10
EndSplineSet
EndChar

StartChar: at
Encoding: 64 64 35
Width: 738
GlyphClass: 2
Flags: W
LayerCount: 2
Fore
SplineSet
148 -178 m 0,0,1
 71 -178 71 -178 38 -124 c 128,-1,2
 5 -70 5 -70 5 9 c 0,3,4
 5 119 5 119 65.5 232.5 c 128,-1,5
 126 346 126 346 216.5 429 c 128,-1,6
 307 512 307 512 415.5 565 c 128,-1,7
 524 618 524 618 618 618 c 0,8,9
 707 618 707 618 761 574.5 c 128,-1,10
 815 531 815 531 815 447 c 0,11,12
 815 352 815 352 770 256.5 c 128,-1,13
 725 161 725 161 662.5 95.5 c 128,-1,14
 600 30 600 30 536 -11.5 c 128,-1,15
 472 -53 472 -53 431 -53 c 0,16,17
 386 -53 386 -53 386 1 c 0,18,19
 386 31 386 31 398 72.5 c 128,-1,20
 410 114 410 114 422 140 c 2,21,-1
 435 167 l 2,22,23
 439 175 439 175 439 178 c 128,-1,24
 439 181 439 181 438 181 c 128,-1,25
 437 181 437 181 426 170 c 0,26,27
 258 -12 258 -12 206 -12 c 0,28,29
 186 -12 186 -12 186 18 c 0,30,31
 186 72 186 72 219 144.5 c 128,-1,32
 252 217 252 217 301.5 281 c 128,-1,33
 351 345 351 345 416.5 390 c 128,-1,34
 482 435 482 435 541 435 c 0,35,36
 554 435 554 435 563.5 431.5 c 128,-1,37
 573 428 573 428 578 425 c 2,38,-1
 582 422 l 1,39,40
 584 422 584 422 587 425 c 0,41,42
 631 481 631 481 658 481 c 0,43,44
 669 481 669 481 669 472 c 0,45,46
 669 459 669 459 654 429 c 1,47,48
 548 233 548 233 524 192 c 1,49,50
 464 84 464 84 464 33 c 0,51,52
 464 6 464 6 487 6 c 0,53,54
 513 6 513 6 556.5 37.5 c 128,-1,55
 600 69 600 69 643.5 119 c 128,-1,56
 687 169 687 169 719 242.5 c 128,-1,57
 751 316 751 316 751 389 c 0,58,59
 751 474 751 474 704 521.5 c 128,-1,60
 657 569 657 569 572 569 c 0,61,62
 476 569 476 569 385.5 516 c 128,-1,63
 295 463 295 463 232 382 c 128,-1,64
 169 301 169 301 130.5 203.5 c 128,-1,65
 92 106 92 106 92 18 c 0,66,67
 92 -41 92 -41 119.5 -76.5 c 128,-1,68
 147 -112 147 -112 203 -112 c 0,69,70
 263 -112 263 -112 320 -64 c 1,71,72
 325 -62 325 -62 330 -62 c 0,73,74
 337 -62 337 -62 337 -67 c 0,75,76
 337 -70 337 -70 334 -76 c 0,77,78
 319 -103 319 -103 294.5 -124 c 128,-1,79
 270 -145 270 -145 248 -154.5 c 128,-1,80
 226 -164 226 -164 201 -170 c 128,-1,81
 176 -176 176 -176 165 -177 c 128,-1,82
 154 -178 154 -178 148 -178 c 0,0,1
568 400 m 0,83,84
 569 402 569 402 569 404 c 0,85,86
 569 411 569 411 552 411 c 0,87,88
 507 411 507 411 443.5 345.5 c 128,-1,89
 380 280 380 280 337 206.5 c 128,-1,90
 294 133 294 133 294 104 c 0,91,92
 294 91 294 91 304 91 c 0,93,94
 318 91 318 91 335 106 c 0,95,96
 341 111 341 111 351 120 c 128,-1,97
 361 129 361 129 390.5 159.5 c 128,-1,98
 420 190 420 190 447 222.5 c 128,-1,99
 474 255 474 255 508.5 303.5 c 128,-1,100
 543 352 543 352 568 400 c 0,83,84
EndSplineSet
EndChar

StartChar: A
Encoding: 65 65 36
Width: 452
GlyphClass: 2
Flags: W
LayerCount: 2
Fore
SplineSet
156 481 m 0,0,1
 85 481 85 481 85 349 c 2,2,-1
 85 342 l 2,3,4
 85 329 85 329 79 329 c 0,5,6
 64 329 64 329 56.5 365 c 128,-1,7
 49 401 49 401 49 426 c 0,8,9
 49 467 49 467 67.5 499 c 128,-1,10
 86 531 86 531 125 531 c 0,11,12
 202 531 202 531 273 441 c 1,13,14
 333 511 333 511 401.5 582.5 c 128,-1,15
 470 654 470 654 508 690 c 2,16,-1
 546 727 l 1,17,18
 608 820 608 820 648 820 c 0,19,20
 658 820 658 820 658 811 c 0,21,22
 658 805 658 805 654 797 c 0,23,24
 566 624 566 624 493 407 c 0,25,26
 401 131 401 131 401 -16 c 0,27,28
 401 -62 401 -62 412 -83 c 1,29,30
 416 -88 416 -88 416 -93 c 0,31,32
 416 -100 416 -100 404 -100 c 0,33,34
 377 -100 377 -100 359 -86.5 c 128,-1,35
 341 -73 341 -73 333.5 -51 c 128,-1,36
 326 -29 326 -29 323 -11.5 c 128,-1,37
 320 6 320 6 320 24 c 0,38,39
 320 54 320 54 331 113 c 128,-1,40
 342 172 342 172 342 199 c 0,41,42
 342 239 342 239 324.5 293.5 c 128,-1,43
 307 348 307 348 278 393 c 1,44,45
 246 349 246 349 219.5 305 c 128,-1,46
 193 261 193 261 182 240 c 1,47,-1
 172 218 l 1,48,49
 136 144 136 144 101 83 c 128,-1,50
 66 22 66 22 49 -2 c 2,51,-1
 32 -25 l 1,52,53
 21 -38 21 -38 12 -38 c 0,54,55
 1 -38 1 -38 1 -15 c 0,56,57
 4 126 4 126 257 422 c 1,58,59
 208 481 208 481 156 481 c 0,0,1
499 638 m 1,60,61
 389 542 389 542 293 413 c 1,62,63
 335 349 335 349 358 267 c 0,64,65
 361 258 361 258 363 258 c 1,66,-1
 368 267 l 1,67,68
 393 352 393 352 428.5 443.5 c 128,-1,69
 464 535 464 535 487 584 c 2,70,-1
 510 632 l 2,71,72
 513 638 513 638 513 640 c 128,-1,73
 513 642 513 642 510 642 c 1,74,-1
 499 638 l 1,60,61
EndSplineSet
EndChar

StartChar: B
Encoding: 66 66 37
Width: 449
GlyphClass: 2
Flags: W
LayerCount: 2
Fore
SplineSet
185 -27 m 0,0,1
 130 -27 130 -27 102 0 c 128,-1,2
 74 27 74 27 74 75 c 1,3,-1
 76 97 l 2,4,5
 76 105 76 105 72 105 c 1,6,-1
 66 101 l 1,7,8
 42 61 42 61 16 27.5 c 128,-1,9
 -10 -6 -10 -6 -24 -20 c 2,10,-1
 -38 -33 l 2,11,12
 -52 -46 -52 -46 -59 -46 c 128,-1,13
 -66 -46 -66 -46 -66 -34 c 0,14,15
 -66 -18 -66 -18 -56 5 c 0,16,17
 -41 38 -41 38 -14.5 93.5 c 128,-1,18
 12 149 12 149 91.5 290.5 c 128,-1,19
 171 432 171 432 246 540 c 0,20,21
 322 650 322 650 364 690 c 0,22,23
 379 705 379 705 387 705 c 0,24,25
 392 705 392 705 392 697 c 0,26,27
 392 695 392 695 390 683 c 0,28,29
 381 643 381 643 319 536 c 1,30,31
 195 334 195 334 139 208 c 1,32,33
 102 137 102 137 102 77 c 0,34,35
 102 43 102 43 120 21.5 c 128,-1,36
 138 0 138 0 170 0 c 0,37,38
 216 0 216 0 259.5 37 c 128,-1,39
 303 74 303 74 332 126 c 128,-1,40
 361 178 361 178 379 232 c 128,-1,41
 397 286 397 286 397 323 c 0,42,43
 397 412 397 412 315 431 c 1,44,45
 314 435 314 435 314 439 c 0,46,47
 314 451 314 451 328 453 c 1,48,49
 405 453 405 453 465 510.5 c 128,-1,50
 525 568 525 568 525 643 c 0,51,52
 525 685 525 685 494 717.5 c 128,-1,53
 463 750 463 750 379 750 c 0,54,55
 288 750 288 750 232 700 c 128,-1,56
 176 650 176 650 176 586 c 0,57,58
 176 568 176 568 183 553 c 0,59,60
 187 545 187 545 187 540 c 0,61,62
 187 534 187 534 181 534 c 0,63,64
 176 534 176 534 172 536 c 0,65,66
 165 539 165 539 155 544 c 128,-1,67
 145 549 145 549 128.5 569 c 128,-1,68
 112 589 112 589 112 613 c 0,69,70
 112 679 112 679 193 726.5 c 128,-1,71
 274 774 274 774 389 774 c 0,72,73
 401 774 401 774 416.5 773 c 128,-1,74
 432 772 432 772 467 764 c 128,-1,75
 502 756 502 756 528.5 742.5 c 128,-1,76
 555 729 555 729 576 700 c 128,-1,77
 597 671 597 671 597 632 c 0,78,79
 597 591 597 591 577.5 556.5 c 128,-1,80
 558 522 558 522 525.5 498.5 c 128,-1,81
 493 475 493 475 457.5 460 c 128,-1,82
 422 445 422 445 384 437 c 1,83,84
 377 434 377 434 377 431 c 0,85,86
 377 429 377 429 383 426 c 0,87,88
 386 424 386 424 392 421 c 128,-1,89
 398 418 398 418 412.5 405 c 128,-1,90
 427 392 427 392 438.5 376.5 c 128,-1,91
 450 361 450 361 459 334 c 128,-1,92
 468 307 468 307 468 277 c 0,93,94
 468 162 468 162 382.5 67.5 c 128,-1,95
 297 -27 297 -27 185 -27 c 0,0,1
EndSplineSet
EndChar

StartChar: C
Encoding: 67 67 38
Width: 438
GlyphClass: 2
Flags: W
LayerCount: 2
Fore
SplineSet
464 240 m 0,0,1
 438 196 438 196 401.5 151.5 c 128,-1,2
 365 107 365 107 319 65.5 c 128,-1,3
 273 24 273 24 218 -2 c 128,-1,4
 163 -28 163 -28 111 -28 c 0,5,6
 28 -28 28 -28 28 96 c 0,7,8
 28 253 28 253 119.5 425 c 128,-1,9
 211 597 211 597 353 706 c 0,10,11
 362 713 362 713 377.5 722.5 c 128,-1,12
 393 732 393 732 435.5 748.5 c 128,-1,13
 478 765 478 765 513 765 c 0,14,15
 540 765 540 765 560 757 c 0,16,17
 562 756 562 756 565 756 c 0,18,19
 572 756 572 756 576 763 c 1,20,21
 597 780 597 780 643 780 c 2,22,-1
 651 780 l 2,23,24
 665 780 665 780 665 766 c 0,25,26
 665 744 665 744 632.5 696 c 128,-1,27
 600 648 600 648 572 615 c 128,-1,28
 544 582 544 582 522 558 c 0,29,30
 485 519 485 519 470 519 c 0,31,32
 463 519 463 519 463 529 c 0,33,34
 463 564 463 564 520 666 c 0,35,36
 521 668 521 668 530 682 c 128,-1,37
 539 696 539 696 543 705.5 c 128,-1,38
 547 715 547 715 547 723 c 0,39,40
 547 740 547 740 520 740 c 0,41,42
 498 740 498 740 471.5 726 c 128,-1,43
 445 712 445 712 430 698 c 2,44,-1
 414 684 l 1,45,46
 308 586 308 586 222.5 425.5 c 128,-1,47
 137 265 137 265 137 134 c 0,48,49
 137 39 137 39 197 39 c 0,50,51
 205 39 205 39 215.5 41 c 128,-1,52
 226 43 226 43 251.5 54.5 c 128,-1,53
 277 66 277 66 301.5 86.5 c 128,-1,54
 326 107 326 107 358.5 149.5 c 128,-1,55
 391 192 391 192 420 249 c 0,56,57
 428 265 428 265 441 294.5 c 128,-1,58
 454 324 454 324 461.5 338 c 128,-1,59
 469 352 469 352 474 352 c 0,60,61
 481 352 481 352 485 339.5 c 128,-1,62
 489 327 489 327 489 318 c 0,63,64
 489 281 489 281 464 240 c 0,0,1
EndSplineSet
EndChar

StartChar: D
Encoding: 68 68 39
Width: 471
GlyphClass: 2
Flags: W
LayerCount: 2
Fore
SplineSet
278 774 m 0,0,1
 408 774 408 774 484.5 693 c 128,-1,2
 561 612 561 612 561 473 c 0,3,4
 561 389 561 389 520 300.5 c 128,-1,5
 479 212 479 212 411 140 c 128,-1,6
 343 68 343 68 245 22 c 128,-1,7
 147 -24 147 -24 42 -24 c 0,8,9
 22 -24 22 -24 3 -22.5 c 128,-1,10
 -16 -21 -16 -21 -24 -20 c 2,11,-1
 -33 -18 l 2,12,13
 -49 -14 -49 -14 -49 -2 c 1,14,-1
 -46 8 l 1,15,16
 -36 32 -36 32 -17.5 74 c 128,-1,17
 1 116 1 116 68.5 239 c 128,-1,18
 136 362 136 362 213 477 c 0,19,20
 285 585 285 585 327 627 c 0,21,22
 341 642 341 642 350 642 c 0,23,24
 357 642 357 642 357 630 c 0,25,26
 357 622 357 622 356 620 c 0,27,28
 347 581 347 581 292 473 c 1,29,30
 110 151 110 151 64 25 c 0,31,32
 63 22 63 22 63 18 c 0,33,34
 63 8 63 8 71 7 c 0,35,36
 77 6 77 6 89 6 c 0,37,38
 177 6 177 6 270.5 91 c 128,-1,39
 364 176 364 176 425 303.5 c 128,-1,40
 486 431 486 431 486 546 c 0,41,42
 486 630 486 630 438 686.5 c 128,-1,43
 390 743 390 743 308 743 c 0,44,45
 266 743 266 743 238.5 720 c 128,-1,46
 211 697 211 697 211 653 c 0,47,48
 211 618 211 618 232 581 c 1,49,50
 234 575 234 575 234 569 c 0,51,52
 234 561 234 561 228 561 c 0,53,54
 225 561 225 561 219 564 c 0,55,56
 196 576 196 576 168 614 c 128,-1,57
 140 652 140 652 140 693 c 0,58,59
 140 725 140 725 164 744 c 128,-1,60
 188 763 188 763 216 768.5 c 128,-1,61
 244 774 244 774 278 774 c 0,0,1
EndSplineSet
EndChar

StartChar: E
Encoding: 69 69 40
Width: 445
GlyphClass: 2
Flags: W
LayerCount: 2
Fore
SplineSet
413 414 m 0,0,1
 351 411 351 411 275 411 c 2,2,-1
 263 411 l 1,3,4
 122 155 122 155 95 64 c 0,5,6
 91 52 91 52 91 42 c 0,7,8
 91 12 91 12 144 12 c 0,9,10
 166 12 166 12 192 20.5 c 128,-1,11
 218 29 218 29 255.5 50.5 c 128,-1,12
 293 72 293 72 340 119 c 128,-1,13
 387 166 387 166 436 233 c 1,14,15
 442 244 442 244 454 244 c 0,16,17
 462 244 462 244 462 236 c 0,18,19
 462 234 462 234 460 228 c 0,20,21
 412 105 412 105 338 8 c 1,22,23
 332 -6 332 -6 308 -10 c 1,24,25
 226 -14 226 -14 135 -14 c 0,26,27
 31 -14 31 -14 -33 -7 c 0,28,29
 -45 -6 -45 -6 -45 7 c 0,30,31
 -45 15 -45 15 -41 23 c 0,32,33
 16 151 16 151 174 412 c 1,34,-1
 129 413 l 2,35,36
 116 413 116 413 116 421 c 128,-1,37
 116 429 116 429 124.5 435.5 c 128,-1,38
 133 442 133 442 142 442 c 2,39,-1
 193 442 l 1,40,-1
 314 636 l 1,41,42
 329 663 329 663 329 685 c 0,43,44
 329 700 329 700 322.5 711 c 128,-1,45
 316 722 316 722 309 726 c 2,46,-1
 302 730 l 2,47,48
 293 735 293 735 293 741 c 0,49,50
 293 745 293 745 296.5 748 c 128,-1,51
 300 751 300 751 304 752 c 2,52,-1
 308 753 l 1,53,54
 411 759 411 759 522 759 c 0,55,56
 614 759 614 759 670 754 c 1,57,58
 685 754 685 754 685 741 c 0,59,60
 685 738 685 738 682 730 c 0,61,62
 649 647 649 647 615 600 c 1,63,64
 610 595 610 595 604 595 c 0,65,66
 595 595 595 595 595 608 c 1,67,68
 600 627 600 627 600 649 c 0,69,70
 600 731 600 731 518 731 c 2,71,-1
 514 731 l 2,72,73
 463 731 463 731 441 703 c 0,74,75
 390 640 390 640 305 486 c 0,76,77
 295 469 295 469 280 443 c 1,78,-1
 430 443 l 2,79,80
 440 443 440 443 440 437 c 128,-1,81
 440 431 440 431 431.5 423 c 128,-1,82
 423 415 423 415 413 414 c 0,0,1
EndSplineSet
EndChar

StartChar: F
Encoding: 70 70 41
Width: 248
GlyphClass: 2
Flags: W
LayerCount: 2
Fore
SplineSet
412 414 m 1,0,-1
 257 414 l 1,1,2
 200 306 200 306 125 147 c 1,3,4
 122 138 122 138 115.5 122.5 c 128,-1,5
 109 107 109 107 87.5 64.5 c 128,-1,6
 66 22 66 22 42.5 -15 c 128,-1,7
 19 -52 19 -52 -16 -92.5 c 128,-1,8
 -51 -133 -51 -133 -87 -155 c 0,9,10
 -96 -161 -96 -161 -103 -161 c 0,11,12
 -113 -161 -113 -161 -113 -148 c 0,13,14
 -113 -140 -113 -140 -110 -128 c 128,-1,15
 -107 -116 -107 -116 -104 -108 c 2,16,-1
 -101 -101 l 1,17,18
 -53 17 -53 17 173 413 c 1,19,-1
 131 413 l 2,20,21
 116 413 116 413 116 422 c 0,22,23
 116 429 116 429 123.5 435.5 c 128,-1,24
 131 442 131 442 139 442 c 2,25,-1
 190 442 l 1,26,-1
 289 611 l 1,27,28
 313 655 313 655 313 687 c 0,29,30
 313 703 313 703 307 713.5 c 128,-1,31
 301 724 301 724 296 727 c 2,32,-1
 290 730 l 2,33,34
 281 735 281 735 281 741 c 0,35,36
 281 746 281 746 286.5 749.5 c 128,-1,37
 292 753 292 753 296 753 c 0,38,39
 397 759 397 759 506 759 c 0,40,41
 597 759 597 759 653 754 c 1,42,43
 669 754 669 754 669 741 c 0,44,45
 669 736 669 736 666 730 c 0,46,47
 631 648 631 648 599 600 c 0,48,49
 596 595 596 595 587 595 c 0,50,51
 579 595 579 595 579 607 c 1,52,53
 586 628 586 628 586 653 c 0,54,55
 586 731 586 731 506 731 c 0,56,57
 450 731 450 731 429 703 c 0,58,59
 376 636 376 636 272 442 c 1,60,61
 299 442 299 442 351.5 442.5 c 128,-1,62
 404 443 404 443 429 443 c 0,63,64
 437 443 437 443 439 441 c 0,65,66
 440 440 440 440 440 438 c 0,67,68
 440 431 440 431 431.5 423 c 128,-1,69
 423 415 423 415 412 414 c 1,0,-1
EndSplineSet
EndChar

StartChar: G
Encoding: 71 71 42
Width: 438
GlyphClass: 2
Flags: W
LayerCount: 2
Fore
SplineSet
505 351 m 0,0,1
 331 50 331 50 326 -33 c 0,2,3
 326 -47 326 -47 317 -47 c 0,4,5
 302 -47 302 -47 290 -20.5 c 128,-1,6
 278 6 278 6 278 32 c 0,7,8
 278 67 278 67 293 110 c 128,-1,9
 308 153 308 153 324 178 c 2,10,-1
 339 203 l 2,11,12
 342 207 342 207 342 210 c 0,13,14
 342 212 342 212 340 212 c 2,15,-1
 334 209 l 1,16,17
 258 116 258 116 194.5 58.5 c 128,-1,18
 131 1 131 1 99.5 -15 c 128,-1,19
 68 -31 68 -31 48 -31 c 0,20,21
 1 -31 1 -31 1 57 c 0,22,23
 1 130 1 130 29 224.5 c 128,-1,24
 57 319 57 319 108 413 c 128,-1,25
 159 507 159 507 222 586.5 c 128,-1,26
 285 666 285 666 363 715.5 c 128,-1,27
 441 765 441 765 516 765 c 0,28,29
 532 765 532 765 544.5 762.5 c 128,-1,30
 557 760 557 760 564 758 c 128,-1,31
 571 756 571 756 572 756 c 0,32,33
 579 756 579 756 584 763 c 1,34,35
 606 775 606 775 640 775 c 0,36,37
 670 775 670 775 670 760 c 0,38,39
 670 734 670 734 612.5 644 c 128,-1,40
 555 554 555 554 536 554 c 0,41,42
 528 554 528 554 528 570 c 128,-1,43
 528 586 528 586 535 617 c 128,-1,44
 542 648 542 648 549.5 671.5 c 128,-1,45
 557 695 557 695 557 694 c 1,46,47
 559 702 559 702 559 706 c 0,48,49
 559 722 559 722 545.5 730 c 128,-1,50
 532 738 532 738 516 738 c 0,51,52
 442 738 442 738 345.5 621.5 c 128,-1,53
 249 505 249 505 182.5 353.5 c 128,-1,54
 116 202 116 202 116 104 c 0,55,56
 116 61 116 61 137 61 c 0,57,58
 161 61 161 61 222 122 c 0,59,60
 333 233 333 233 391 329 c 1,61,62
 416 366 416 366 416 400 c 0,63,64
 416 418 416 418 409 427.5 c 128,-1,65
 402 437 402 437 402 441 c 0,66,67
 402 451 402 451 416 452 c 0,68,69
 446 455 446 455 483 455 c 0,70,71
 525 455 525 455 554 450 c 0,72,73
 562 449 562 449 562 442 c 0,74,75
 562 436 562 436 555 428 c 0,76,77
 533 399 533 399 505 351 c 0,0,1
EndSplineSet
EndChar

StartChar: H
Encoding: 72 72 43
Width: 519
GlyphClass: 2
Flags: W
LayerCount: 2
Fore
SplineSet
845 748 m 1,0,1
 773 683 773 683 673.5 524 c 128,-1,2
 574 365 574 365 516.5 252 c 128,-1,3
 459 139 459 139 425 65 c 0,4,5
 378 -40 378 -40 354 -40 c 0,6,7
 338 -40 338 -40 338 4 c 0,8,9
 338 36 338 36 351 81 c 128,-1,10
 364 126 364 126 378 155 c 2,11,-1
 391 184 l 1,12,13
 425 255 425 255 425 335 c 0,14,15
 425 444 425 444 371 520 c 1,16,17
 274 316 274 316 159 130 c 0,18,19
 148 112 148 112 134 91 c 128,-1,20
 120 70 120 70 96 37.5 c 128,-1,21
 72 5 72 5 49 -16 c 128,-1,22
 26 -37 26 -37 10 -37 c 0,23,24
 1 -37 1 -37 1 -26 c 1,25,-1
 2 -17 l 2,26,27
 6 21 6 21 128 235 c 2,28,-1
 318 571 l 1,29,30
 280 595 280 595 233 595 c 0,31,32
 187 595 187 595 160.5 567 c 128,-1,33
 134 539 134 539 134 492 c 0,34,35
 134 472 134 472 139 454 c 0,36,37
 142 445 142 445 142 440 c 0,38,39
 142 431 142 431 135 431 c 0,40,41
 118 431 118 431 96 474 c 128,-1,42
 74 517 74 517 74 547 c 0,43,44
 74 589 74 589 103.5 612.5 c 128,-1,45
 133 636 133 636 182 636 c 0,46,47
 266 636 266 636 331 593 c 1,48,-1
 430 768 l 1,49,50
 440 778 440 778 446 778 c 0,51,52
 456 778 456 778 456 760 c 0,53,54
 456 707 456 707 383 547 c 1,55,56
 458 458 458 458 458 312 c 1,57,58
 460 302 460 302 463 302 c 128,-1,59
 466 302 466 302 469 310 c 1,60,61
 529 419 529 419 572 506 c 0,62,63
 630 623 630 623 699.5 696.5 c 128,-1,64
 769 770 769 770 840 770 c 0,65,66
 855 770 855 770 855 764 c 0,67,68
 855 761 855 761 845 748 c 1,0,1
EndSplineSet
EndChar

StartChar: I
Encoding: 73 73 44
Width: 227
GlyphClass: 2
Flags: W
LayerCount: 2
Fore
SplineSet
522 740 m 0,0,1
 485 711 485 711 432.5 624.5 c 128,-1,2
 380 538 380 538 316.5 413 c 128,-1,3
 253 288 253 288 251 284 c 0,4,5
 244 272 244 272 226 238 c 128,-1,6
 208 204 208 204 197.5 184.5 c 128,-1,7
 187 165 187 165 166.5 131.5 c 128,-1,8
 146 98 146 98 130 77 c 128,-1,9
 114 56 114 56 91 30.5 c 128,-1,10
 68 5 68 5 46.5 -9.5 c 128,-1,11
 25 -24 25 -24 -2 -34 c 128,-1,12
 -29 -44 -29 -44 -56 -44 c 0,13,14
 -79 -44 -79 -44 -79 -35 c 0,15,16
 -79 -32 -79 -32 -76 -29 c 128,-1,17
 -73 -26 -73 -26 -70 -24 c 2,18,-1
 -67 -23 l 1,19,20
 -24 4 -24 4 39 93 c 128,-1,21
 102 182 102 182 144 258 c 2,22,-1
 185 333 l 1,23,24
 231 421 231 421 275.5 494.5 c 128,-1,25
 320 568 320 568 350.5 609 c 128,-1,26
 381 650 381 650 404.5 678.5 c 128,-1,27
 428 707 428 707 440 717 c 2,28,-1
 451 727 l 2,29,30
 454 730 454 730 454 733 c 0,31,32
 454 742 454 742 424 742 c 0,33,34
 392 742 392 742 362 726 c 128,-1,35
 332 710 332 710 311.5 687 c 128,-1,36
 291 664 291 664 275 640.5 c 128,-1,37
 259 617 259 617 252 601 c 2,38,-1
 244 585 l 1,39,40
 240 569 240 569 233 569 c 0,41,42
 216 569 216 569 216 613 c 0,43,44
 216 667 216 667 251.5 704 c 128,-1,45
 287 741 287 741 336.5 755.5 c 128,-1,46
 386 770 386 770 444 770 c 0,47,48
 479 770 479 770 521 764 c 0,49,50
 533 762 533 762 533 755 c 128,-1,51
 533 748 533 748 522 740 c 0,0,1
EndSplineSet
EndChar

StartChar: J
Encoding: 74 74 45
Width: 299
GlyphClass: 2
Flags: W
LayerCount: 2
Fore
SplineSet
580 740 m 0,0,1
 542 721 542 721 465.5 600 c 128,-1,2
 389 479 389 479 332 368 c 2,3,-1
 274 256 l 1,4,5
 134 -20 134 -20 75 -90 c 1,6,7
 -14 -193 -14 -193 -87 -193 c 0,8,9
 -110 -193 -110 -193 -110 -185 c 0,10,11
 -110 -182 -110 -182 -106 -177.5 c 128,-1,12
 -102 -173 -102 -173 -98 -170 c 2,13,-1
 -95 -168 l 1,14,15
 -51 -135 -51 -135 21.5 -22.5 c 128,-1,16
 94 90 94 90 144 186 c 2,17,-1
 194 281 l 1,18,19
 253 390 253 390 307.5 476 c 128,-1,20
 362 562 362 562 397 607 c 128,-1,21
 432 652 432 652 458.5 681.5 c 128,-1,22
 485 711 485 711 497 719 c 2,23,-1
 509 727 l 2,24,25
 512 730 512 730 512 733 c 0,26,27
 512 743 512 743 480 743 c 0,28,29
 450 743 450 743 420.5 726.5 c 128,-1,30
 391 710 391 710 370.5 687 c 128,-1,31
 350 664 350 664 334 641 c 128,-1,32
 318 618 318 618 310 602 c 2,33,-1
 302 585 l 1,34,35
 297 569 297 569 290 569 c 0,36,37
 273 569 273 569 273 613 c 0,38,39
 273 689 273 689 339 729.5 c 128,-1,40
 405 770 405 770 502 770 c 0,41,42
 596 770 596 770 596 753 c 0,43,44
 596 747 596 747 580 740 c 0,0,1
EndSplineSet
EndChar

StartChar: K
Encoding: 75 75 46
Width: 462
GlyphClass: 2
Flags: W
LayerCount: 2
Fore
SplineSet
663 696 m 0,0,1
 618 696 618 696 540 626 c 1,2,3
 513 604 513 604 508 590 c 0,4,5
 476 506 476 506 445 324.5 c 128,-1,6
 414 143 414 143 414 56 c 0,7,8
 414 28 414 28 416 6.5 c 128,-1,9
 418 -15 418 -15 420 -22 c 2,10,-1
 422 -30 l 2,11,12
 424 -40 424 -40 424 -41 c 0,13,14
 424 -52 424 -52 414 -52 c 0,15,16
 403 -52 403 -52 387 -39.5 c 128,-1,17
 371 -27 371 -27 358 -5 c 0,18,19
 333 39 333 39 333 128 c 0,20,21
 333 265 333 265 398 463 c 0,22,23
 401 475 401 475 401 479 c 0,24,25
 401 486 401 486 397 486 c 1,26,-1
 384 478 l 1,27,28
 311 419 311 419 224 305 c 0,29,30
 193 265 193 265 164 219 c 128,-1,31
 135 173 135 173 122 147 c 2,32,-1
 109 121 l 1,33,34
 85 69 85 69 36 12 c 128,-1,35
 -13 -45 -13 -45 -46 -45 c 0,36,37
 -57 -45 -57 -45 -57 -34 c 1,38,-1
 -54 -21 l 1,39,40
 -43 10 -43 10 39 170.5 c 128,-1,41
 121 331 121 331 170 416 c 0,42,43
 217 497 217 497 262 569 c 128,-1,44
 307 641 307 641 329 672 c 2,45,-1
 351 704 l 2,46,47
 356 711 356 711 364 721.5 c 128,-1,48
 372 732 372 732 397 750 c 128,-1,49
 422 768 422 768 446 769 c 0,50,51
 457 769 457 769 457 758 c 0,52,53
 457 751 457 751 452 742 c 0,54,55
 324 537 324 537 269 423 c 1,56,57
 268 417 268 417 268 413 c 0,58,59
 268 407 268 407 271 407 c 0,60,61
 275 407 275 407 283 415 c 2,62,-1
 385 518 l 1,63,64
 646 773 646 773 722 774 c 0,65,66
 750 774 750 774 750 741 c 0,67,68
 750 715 750 715 734.5 687.5 c 128,-1,69
 719 660 719 660 705 660 c 0,70,71
 699 660 699 660 698 668 c 0,72,73
 697 671 697 671 695.5 675.5 c 128,-1,74
 694 680 694 680 685 688 c 128,-1,75
 676 696 676 696 663 696 c 0,0,1
EndSplineSet
EndChar

StartChar: L
Encoding: 76 76 47
Width: 415
GlyphClass: 2
Flags: W
LayerCount: 2
Fore
SplineSet
311 -2 m 0,0,1
 301 -12 301 -12 286 -14 c 0,2,3
 225 -22 225 -22 100 -22 c 1,4,-1
 -17 -20 l 2,5,6
 -32 -19 -32 -19 -32 -6 c 1,7,-1
 -30 4 l 1,8,9
 -16 38 -16 38 10.5 97 c 128,-1,10
 37 156 37 156 122 314.5 c 128,-1,11
 207 473 207 473 296 604 c 1,12,13
 387 736 387 736 415 758 c 0,14,15
 428 769 428 769 439 769 c 0,16,17
 447 769 447 769 447 760 c 0,18,19
 447 744 447 744 420 689 c 128,-1,20
 393 634 393 634 373 600 c 0,21,22
 140 180 140 180 83 30 c 0,23,24
 82 27 82 27 82 24 c 0,25,26
 82 7 82 7 117 7 c 0,27,28
 185 7 185 7 243 51 c 1,29,30
 329 120 329 120 397 208 c 1,31,32
 405 216 405 216 413 216 c 128,-1,33
 421 216 421 216 421 206 c 128,-1,34
 421 196 421 196 410 171 c 0,35,36
 345 30 345 30 311 -2 c 0,0,1
EndSplineSet
EndChar

StartChar: M
Encoding: 77 77 48
Width: 599
GlyphClass: 2
Flags: W
LayerCount: 2
Fore
SplineSet
864 742 m 0,0,1
 812 667 812 667 748 552 c 128,-1,2
 684 437 684 437 646 359 c 2,3,-1
 608 281 l 1,4,5
 505 67 505 67 505 -26 c 0,6,7
 505 -28 505 -28 505.5 -34 c 128,-1,8
 506 -40 506 -40 506 -44 c 0,9,10
 506 -60 506 -60 497 -60 c 0,11,12
 480 -60 480 -60 460 -30.5 c 128,-1,13
 440 -1 440 -1 440 48 c 0,14,15
 440 93 440 93 461.5 158 c 128,-1,16
 483 223 483 223 525 306.5 c 128,-1,17
 567 390 567 390 595.5 441 c 128,-1,18
 624 492 624 492 671 574 c 0,19,20
 674 580 674 580 674 583 c 1,21,22
 672 588 672 588 669 588 c 0,23,24
 663 588 663 588 657 583 c 0,25,26
 598 535 598 535 502 420 c 128,-1,27
 406 305 406 305 340 214 c 2,28,-1
 273 123 l 1,29,30
 257 99 257 99 247 99 c 0,31,32
 244 99 244 99 242 101 c 128,-1,33
 240 103 240 103 239 106.5 c 128,-1,34
 238 110 238 110 237.5 113 c 128,-1,35
 237 116 237 116 237 118 c 2,36,-1
 237 120 l 1,37,38
 244 182 244 182 257.5 293 c 128,-1,39
 271 404 271 404 280 480 c 128,-1,40
 289 556 289 556 289 558 c 0,41,42
 289 568 289 568 285 568 c 0,43,44
 283 568 283 568 279.5 565 c 128,-1,45
 276 562 276 562 274 559 c 2,46,-1
 272 556 l 2,47,48
 229 492 229 492 180 390.5 c 128,-1,49
 131 289 131 289 101 211 c 0,50,51
 79 155 79 155 56 108.5 c 128,-1,52
 33 62 33 62 15.5 36.5 c 128,-1,53
 -2 11 -2 11 -16.5 -6.5 c 128,-1,54
 -31 -24 -31 -24 -39 -30 c 2,55,-1
 -47 -36 l 2,56,57
 -58 -45 -58 -45 -64 -45 c 128,-1,58
 -70 -45 -70 -45 -70 -35 c 1,59,-1
 -69 -26 l 1,60,61
 -59 27 -59 27 18.5 176 c 128,-1,62
 96 325 96 325 169 448 c 2,63,-1
 242 570 l 1,64,-1
 297 665 l 1,65,66
 338 782 338 782 360 782 c 0,67,68
 375 782 375 782 375 731 c 1,69,70
 344 359 344 359 344 306 c 0,71,72
 344 291 344 291 350 291 c 128,-1,73
 356 291 356 291 364 302 c 0,74,75
 377 319 377 319 400 348 c 128,-1,76
 423 377 423 377 488 452 c 128,-1,77
 553 527 553 527 610.5 587 c 128,-1,78
 668 647 668 647 736 702 c 128,-1,79
 804 757 804 757 848 769 c 0,80,81
 858 771 858 771 861 771 c 0,82,83
 873 771 873 771 873 762 c 0,84,85
 873 754 873 754 864 742 c 0,0,1
EndSplineSet
EndChar

StartChar: N
Encoding: 78 78 49
Width: 445
GlyphClass: 2
Flags: W
LayerCount: 2
Fore
SplineSet
670 607 m 0,0,1
 570 475 570 475 483 319 c 128,-1,2
 396 163 396 163 359 73 c 2,3,-1
 322 -17 l 1,4,5
 306 -51 306 -51 294 -51 c 0,6,7
 288 -51 288 -51 283.5 -44 c 128,-1,8
 279 -37 279 -37 277 -30 c 2,9,-1
 275 -23 l 1,10,11
 262 58 262 58 262 147 c 0,12,13
 262 218 262 218 272 353.5 c 128,-1,14
 282 489 282 489 282 551 c 0,15,16
 282 561 282 561 278 561 c 0,17,18
 276 561 276 561 272.5 558 c 128,-1,19
 269 555 269 555 267 552 c 2,20,-1
 265 549 l 1,21,22
 226 493 226 493 175.5 389.5 c 128,-1,23
 125 286 125 286 96 211 c 0,24,25
 74 154 74 154 50.5 108 c 128,-1,26
 27 62 27 62 9 36 c 128,-1,27
 -9 10 -9 10 -24 -7.5 c 128,-1,28
 -39 -25 -39 -25 -47 -31 c 2,29,-1
 -55 -37 l 2,30,31
 -67 -46 -67 -46 -72 -46 c 0,32,33
 -78 -46 -78 -46 -78 -36 c 0,34,35
 -78 58 -78 58 211 532 c 0,36,37
 235 571 235 571 254.5 604 c 128,-1,38
 274 637 274 637 281 650 c 2,39,-1
 288 664 l 1,40,41
 330 781 330 781 352 781 c 0,42,43
 367 781 367 781 367 731 c 1,44,45
 374 490 374 490 374 326 c 0,46,47
 374 255 374 255 373 229 c 1,48,49
 375 213 375 213 382 213 c 0,50,51
 390 213 390 213 402 236 c 0,52,53
 509 440 509 440 537 500 c 0,54,55
 672 787 672 787 787 787 c 0,56,57
 801 787 801 787 801 779 c 0,58,59
 801 773 801 773 791 763 c 1,60,61
 765 733 765 733 670 607 c 0,0,1
EndSplineSet
EndChar

StartChar: O
Encoding: 79 79 50
Width: 476
GlyphClass: 2
Flags: W
LayerCount: 2
Fore
SplineSet
519 666 m 0,0,1
 498 666 498 666 461 636 c 128,-1,2
 424 606 424 606 401 580.5 c 128,-1,3
 378 555 378 555 374 549 c 0,4,5
 363 534 363 534 355 534 c 0,6,7
 348 534 348 534 348 545 c 0,8,9
 348 548 348 548 350 556 c 0,10,11
 373 625 373 625 446.5 694.5 c 128,-1,12
 520 764 520 764 585 764 c 0,13,14
 643 764 643 764 643 675 c 0,15,16
 643 624 643 624 621 550.5 c 128,-1,17
 599 477 599 477 584 442.5 c 128,-1,18
 569 408 569 408 559 388 c 0,19,20
 532 335 532 335 499 282.5 c 128,-1,21
 466 230 466 230 418.5 172 c 128,-1,22
 371 114 371 114 320.5 70.5 c 128,-1,23
 270 27 270 27 208 -1.5 c 128,-1,24
 146 -30 146 -30 86 -30 c 0,25,26
 0 -30 0 -30 0 91 c 0,27,28
 0 190 0 190 39 293.5 c 128,-1,29
 78 397 78 397 134 473.5 c 128,-1,30
 190 550 190 550 249.5 604 c 128,-1,31
 309 658 309 658 354 672 c 0,32,33
 359 674 359 674 367 674 c 128,-1,34
 375 674 375 674 375 669 c 0,35,36
 375 663 375 663 367 654 c 0,37,38
 338 626 338 626 298.5 573.5 c 128,-1,39
 259 521 259 521 212.5 446 c 128,-1,40
 166 371 166 371 134 278 c 128,-1,41
 102 185 102 185 102 103 c 0,42,43
 102 17 102 17 159 17 c 0,44,45
 280 17 280 17 424 267 c 0,46,47
 542 470 542 470 542 635 c 0,48,49
 542 666 542 666 519 666 c 0,0,1
EndSplineSet
EndChar

StartChar: P
Encoding: 80 80 51
Width: 353
GlyphClass: 2
Flags: W
LayerCount: 2
Fore
SplineSet
244 323 m 0,0,1
 237 310 237 310 160 154 c 0,2,3
 109 50 109 50 57.5 -3.5 c 128,-1,4
 6 -57 6 -57 -21 -57 c 0,5,6
 -33 -57 -33 -57 -33 -46 c 1,7,-1
 -30 -34 l 1,8,9
 -19 -4 -19 -4 38.5 107 c 128,-1,10
 96 218 96 218 146 304 c 0,11,12
 193 386 193 386 238 462.5 c 128,-1,13
 283 539 283 539 305 575 c 2,14,-1
 327 611 l 2,15,16
 329 614 329 614 332 619 c 128,-1,17
 335 624 335 624 345.5 637 c 128,-1,18
 356 650 356 650 367 659.5 c 128,-1,19
 378 669 378 669 393 677 c 128,-1,20
 408 685 408 685 422 685 c 0,21,22
 435 685 435 685 435 678 c 0,23,24
 435 669 435 669 423 652 c 1,25,26
 348 524 348 524 263 361 c 0,27,28
 262 359 262 359 262 357 c 0,29,30
 262 354 262 354 266 354 c 0,31,32
 329 354 329 354 382.5 378 c 128,-1,33
 436 402 436 402 469.5 440.5 c 128,-1,34
 503 479 503 479 521.5 523 c 128,-1,35
 540 567 540 567 540 610 c 0,36,37
 540 671 540 671 494 702 c 128,-1,38
 448 733 448 733 386 733 c 0,39,40
 339 733 339 733 294.5 719 c 128,-1,41
 250 705 250 705 216.5 671 c 128,-1,42
 183 637 183 637 183 590 c 0,43,44
 183 562 183 562 198 536 c 0,45,46
 203 526 203 526 203 522 c 0,47,48
 203 516 203 516 195 516 c 0,49,50
 193 516 193 516 187 518 c 0,51,52
 184 519 184 519 179 522 c 128,-1,53
 174 525 174 525 161 534 c 128,-1,54
 148 543 148 543 138 553 c 128,-1,55
 128 563 128 563 120 579.5 c 128,-1,56
 112 596 112 596 112 613 c 0,57,58
 112 675 112 675 188.5 717 c 128,-1,59
 265 759 265 759 362 759 c 0,60,61
 409 759 409 759 451.5 751 c 128,-1,62
 494 743 494 743 534.5 725.5 c 128,-1,63
 575 708 575 708 599 675 c 128,-1,64
 623 642 623 642 623 597 c 0,65,66
 623 530 623 530 588.5 476.5 c 128,-1,67
 554 423 554 423 498.5 391.5 c 128,-1,68
 443 360 443 360 380 343.5 c 128,-1,69
 317 327 317 327 253 327 c 1,70,71
 252 328 252 328 250 328 c 0,72,73
 246 328 246 328 244 323 c 0,0,1
EndSplineSet
EndChar

StartChar: Q
Encoding: 81 81 52
Width: 476
GlyphClass: 2
Flags: W
LayerCount: 2
Fore
SplineSet
519 666 m 0,0,1
 498 666 498 666 461 636 c 128,-1,2
 424 606 424 606 401 580.5 c 128,-1,3
 378 555 378 555 374 549 c 0,4,5
 363 534 363 534 355 534 c 0,6,7
 348 534 348 534 348 545 c 0,8,9
 348 548 348 548 350 556 c 0,10,11
 373 625 373 625 446.5 694.5 c 128,-1,12
 520 764 520 764 585 764 c 0,13,14
 643 764 643 764 643 675 c 0,15,16
 643 624 643 624 621 550.5 c 128,-1,17
 599 477 599 477 584 442.5 c 128,-1,18
 569 408 569 408 559 388 c 0,19,20
 504 278 504 278 419 172 c 128,-1,21
 334 66 334 66 236 12 c 1,22,23
 252 -52 252 -52 293 -52 c 0,24,25
 311 -52 311 -52 337 -38 c 0,26,27
 341 -35 341 -35 345 -35 c 0,28,29
 351 -35 351 -35 351 -41 c 0,30,31
 351 -43 351 -43 349 -47 c 0,32,33
 344 -55 344 -55 334.5 -67 c 128,-1,34
 325 -79 325 -79 298 -99 c 128,-1,35
 271 -119 271 -119 247 -119 c 0,36,37
 187 -119 187 -119 180 -13 c 1,38,39
 134 -30 134 -30 86 -30 c 0,40,41
 0 -30 0 -30 0 91 c 0,42,43
 0 190 0 190 39 293.5 c 128,-1,44
 78 397 78 397 134 473.5 c 128,-1,45
 190 550 190 550 249.5 604 c 128,-1,46
 309 658 309 658 354 672 c 0,47,48
 359 674 359 674 367 674 c 128,-1,49
 375 674 375 674 375 669 c 0,50,51
 375 663 375 663 367 654 c 0,52,53
 338 626 338 626 298.5 573.5 c 128,-1,54
 259 521 259 521 212.5 446 c 128,-1,55
 166 371 166 371 134 278 c 128,-1,56
 102 185 102 185 102 103 c 0,57,58
 102 17 102 17 159 17 c 0,59,60
 173 17 173 17 180 19 c 1,61,62
 180 76 180 76 194 150 c 0,63,64
 200 184 200 184 209 216 c 128,-1,65
 218 248 218 248 224 262 c 1,66,-1
 229 277 l 2,67,68
 234 289 234 289 242 289 c 0,69,70
 245 289 245 289 245 284 c 0,71,72
 245 277 245 277 244 270 c 0,73,74
 228 183 228 183 228 99 c 0,75,76
 228 66 228 66 231 38 c 1,77,78
 322 91 322 91 424 267 c 0,79,80
 542 470 542 470 542 635 c 0,81,82
 542 666 542 666 519 666 c 0,0,1
EndSplineSet
EndChar

StartChar: R
Encoding: 82 82 53
Width: 459
GlyphClass: 2
Flags: W
LayerCount: 2
Fore
SplineSet
355 -12 m 1,0,1
 305 69 305 69 305 355 c 1,2,-1
 306 416 l 2,3,4
 306 422 306 422 309 425 c 128,-1,5
 312 428 312 428 315 428 c 2,6,-1
 318 429 l 1,7,8
 401 438 401 438 472.5 496.5 c 128,-1,9
 544 555 544 555 544 631 c 0,10,11
 544 661 544 661 528.5 683.5 c 128,-1,12
 513 706 513 706 487.5 717.5 c 128,-1,13
 462 729 462 729 435.5 734.5 c 128,-1,14
 409 740 409 740 383 740 c 0,15,16
 337 740 337 740 292 725 c 128,-1,17
 247 710 247 710 213 676 c 128,-1,18
 179 642 179 642 179 596 c 0,19,20
 179 568 179 568 195 540 c 1,21,22
 199 530 199 530 199 527 c 0,23,24
 199 521 199 521 193 521 c 0,25,26
 184 521 184 521 170 530 c 0,27,28
 108 567 108 567 108 619 c 0,29,30
 108 687 108 687 191.5 726 c 128,-1,31
 275 765 275 765 388 765 c 0,32,33
 426 765 426 765 462.5 760 c 128,-1,34
 499 755 499 755 541 743 c 128,-1,35
 583 731 583 731 608.5 704.5 c 128,-1,36
 634 678 634 678 634 640 c 0,37,38
 634 589 634 589 589.5 540 c 128,-1,39
 545 491 545 491 491 461 c 128,-1,40
 437 431 437 431 389 419 c 1,41,42
 382 414 382 414 382 408 c 0,43,44
 382 372 382 372 384 326.5 c 128,-1,45
 386 281 386 281 392.5 199.5 c 128,-1,46
 399 118 399 118 417.5 52.5 c 128,-1,47
 436 -13 436 -13 464 -39 c 0,48,49
 469 -44 469 -44 469 -48 c 0,50,51
 469 -56 469 -56 444 -56 c 0,52,53
 415 -56 415 -56 393 -45 c 128,-1,54
 371 -34 371 -34 363.5 -25 c 128,-1,55
 356 -16 356 -16 355 -12 c 1,0,1
128 159 m 0,56,57
 107 111 107 111 82 72 c 128,-1,58
 57 33 57 33 36 11 c 128,-1,59
 15 -11 15 -11 -3 -26 c 128,-1,60
 -21 -41 -21 -41 -32 -46 c 2,61,-1
 -42 -51 l 2,62,63
 -48 -54 -48 -54 -54 -54 c 0,64,65
 -65 -54 -65 -54 -65 -41 c 1,66,-1
 -62 -29 l 1,67,68
 -52 -1 -52 -1 6.5 112.5 c 128,-1,69
 65 226 65 226 117 318 c 0,70,71
 165 404 165 404 209.5 478.5 c 128,-1,72
 254 553 254 553 274 584 c 2,73,-1
 295 616 l 1,74,75
 320 650 320 650 346 668 c 128,-1,76
 372 686 372 686 388 686 c 0,77,78
 399 686 399 686 399 678 c 0,79,80
 399 672 399 672 391 657 c 0,81,82
 384 645 384 645 335.5 557.5 c 128,-1,83
 287 470 287 470 220.5 344.5 c 128,-1,84
 154 219 154 219 128 159 c 0,56,57
EndSplineSet
EndChar

StartChar: S
Encoding: 83 83 54
Width: 447
GlyphClass: 2
Flags: W
LayerCount: 2
Fore
SplineSet
-34 69 m 0,0,1
 -18 109 -18 109 11.5 162 c 128,-1,2
 41 215 41 215 63 248 c 2,3,-1
 85 280 l 2,4,5
 99 300 99 300 113 300 c 0,6,7
 124 300 124 300 124 289 c 1,8,-1
 121 279 l 1,9,10
 85 188 85 188 85 122 c 0,11,12
 85 69 85 69 108.5 35.5 c 128,-1,13
 132 2 132 2 182 2 c 0,14,15
 257 2 257 2 303 67.5 c 128,-1,16
 349 133 349 133 349 209 c 0,17,18
 349 274 349 274 304.5 394.5 c 128,-1,19
 260 515 260 515 260 558 c 0,20,21
 260 651 260 651 339.5 707.5 c 128,-1,22
 419 764 419 764 514 764 c 0,23,24
 531 764 531 764 547.5 762 c 128,-1,25
 564 760 564 760 584 755.5 c 128,-1,26
 604 751 604 751 616 741 c 128,-1,27
 628 731 628 731 628 716 c 0,28,29
 628 696 628 696 600 648 c 128,-1,30
 572 600 572 600 553 575 c 1,31,32
 546 570 546 570 541 570 c 0,33,34
 534 570 534 570 534 582 c 0,35,36
 534 610 534 610 540 658 c 1,37,38
 540 736 540 736 480 736 c 0,39,40
 429 736 429 736 393.5 701 c 128,-1,41
 358 666 358 666 358 616 c 0,42,43
 358 550 358 550 404.5 432 c 128,-1,44
 451 314 451 314 451 250 c 0,45,46
 451 130 451 130 356.5 52.5 c 128,-1,47
 262 -25 262 -25 144 -25 c 0,48,49
 124 -25 124 -25 96 -21 c 128,-1,50
 68 -17 68 -17 37 -8.5 c 128,-1,51
 6 0 6 0 -15.5 16.5 c 128,-1,52
 -37 33 -37 33 -37 54 c 0,53,54
 -37 62 -37 62 -34 69 c 0,0,1
EndSplineSet
EndChar

StartChar: T
Encoding: 84 84 55
Width: 401
GlyphClass: 2
Flags: W
LayerCount: 2
Fore
SplineSet
429 327 m 0,0,1
 437 327 437 327 444.5 311.5 c 128,-1,2
 452 296 452 296 452 282 c 0,3,4
 452 270 452 270 448.5 258 c 128,-1,5
 445 246 445 246 442 240 c 2,6,-1
 438 233 l 1,7,8
 389 138 389 138 292.5 58 c 128,-1,9
 196 -22 196 -22 99 -22 c 0,10,11
 48 -22 48 -22 24 14.5 c 128,-1,12
 0 51 0 51 0 108 c 0,13,14
 0 208 0 208 57.5 312.5 c 128,-1,15
 115 417 115 417 203 503 c 1,16,17
 165 507 165 507 132 532 c 128,-1,18
 99 557 99 557 99 593 c 0,19,20
 99 648 99 648 189 702 c 128,-1,21
 279 756 279 756 412 756 c 0,22,23
 454 756 454 756 518.5 745.5 c 128,-1,24
 583 735 583 735 618 735 c 0,25,26
 674 735 674 735 698 753 c 1,27,28
 702 754 702 754 705 754 c 0,29,30
 710 754 710 754 710 750 c 128,-1,31
 710 746 710 746 706 739 c 0,32,33
 686 707 686 707 652 687 c 128,-1,34
 618 667 618 667 577 667 c 0,35,36
 533 667 533 667 447.5 690 c 128,-1,37
 362 713 362 713 315 713 c 0,38,39
 262 713 262 713 214 683 c 128,-1,40
 166 653 166 653 166 601 c 0,41,42
 166 579 166 579 178 558 c 128,-1,43
 190 537 190 537 202 527 c 2,44,-1
 214 517 l 1,45,-1
 216 515 l 1,46,47
 333 626 333 626 426 647 c 0,48,49
 431 648 431 648 438 648 c 0,50,51
 448 648 448 648 448 642 c 0,52,53
 448 634 448 634 433 628 c 0,54,55
 405 617 405 617 353 571 c 128,-1,56
 301 525 301 525 243 457.5 c 128,-1,57
 185 390 185 390 142.5 296.5 c 128,-1,58
 100 203 100 203 100 116 c 0,59,60
 100 27 100 27 161 27 c 0,61,62
 205 27 205 27 247.5 55.5 c 128,-1,63
 290 84 290 84 322.5 130 c 128,-1,64
 355 176 355 176 379 223 c 128,-1,65
 403 270 403 270 419 318 c 0,66,67
 422 327 422 327 429 327 c 0,0,1
EndSplineSet
EndChar

StartChar: U
Encoding: 85 85 56
Width: 473
GlyphClass: 2
Flags: W
LayerCount: 2
Fore
SplineSet
351 -96 m 0,0,1
 351 -107 351 -107 342 -107 c 0,2,3
 338 -107 338 -107 330 -103 c 1,4,5
 291 -61 291 -61 291 12 c 0,6,7
 291 70 291 70 315.5 142 c 128,-1,8
 340 214 340 214 364 257 c 2,9,-1
 388 300 l 2,10,11
 390 303 390 303 390 307 c 0,12,13
 390 309 390 309 388 309 c 2,14,-1
 378 305 l 1,15,16
 290 191 290 191 213 113 c 128,-1,17
 136 35 136 35 94.5 7.5 c 128,-1,18
 53 -20 53 -20 33 -20 c 0,19,20
 0 -20 0 -20 0 33 c 0,21,22
 0 102 0 102 44 210.5 c 128,-1,23
 88 319 88 319 153.5 427.5 c 128,-1,24
 219 536 219 536 257 594 c 128,-1,25
 295 652 295 652 319 686 c 0,26,27
 342 717 342 717 370 733.5 c 128,-1,28
 398 750 398 750 418 750 c 0,29,30
 433 750 433 750 433 741 c 0,31,32
 433 736 433 736 427 726 c 1,33,34
 416 702 416 702 369 630 c 1,35,36
 348 596 348 596 316.5 541.5 c 128,-1,37
 285 487 285 487 221.5 358 c 128,-1,38
 158 229 158 229 136 149 c 0,39,40
 134 140 134 140 134 131 c 0,41,42
 134 109 134 109 148 109 c 0,43,44
 159 109 159 109 183 127 c 0,45,46
 187 130 187 130 194.5 136.5 c 128,-1,47
 202 143 202 143 230.5 172 c 128,-1,48
 259 201 259 201 292 239 c 128,-1,49
 325 277 325 277 380 348 c 128,-1,50
 435 419 435 419 495 504 c 1,51,52
 603 682 603 682 650 725 c 0,53,54
 677 750 677 750 720 750 c 0,55,56
 737 750 737 750 737 741 c 0,57,58
 737 733 737 733 731 723 c 0,59,60
 704 675 704 675 678 639 c 1,61,62
 657 607 657 607 624 553.5 c 128,-1,63
 591 500 591 500 517.5 366 c 128,-1,64
 444 232 444 232 404 134 c 1,65,66
 348 7 348 7 348 -66 c 0,67,68
 348 -73 348 -73 349.5 -83.5 c 128,-1,69
 351 -94 351 -94 351 -96 c 0,0,1
EndSplineSet
EndChar

StartChar: V
Encoding: 86 86 57
Width: 309
GlyphClass: 2
Flags: W
LayerCount: 2
Fore
SplineSet
677 749 m 0,0,1
 677 726 677 726 652 683 c 128,-1,2
 627 640 627 640 576 576 c 128,-1,3
 525 512 525 512 481 459.5 c 128,-1,4
 437 407 437 407 366.5 325 c 128,-1,5
 296 243 296 243 263 204 c 0,6,7
 198 127 198 127 140 68.5 c 128,-1,8
 82 10 82 10 56 -10 c 2,9,-1
 31 -30 l 2,10,11
 22 -38 22 -38 13 -38 c 0,12,13
 1 -38 1 -38 1 -19 c 0,14,15
 1 55 1 55 49 242 c 0,16,17
 79 359 79 359 121 474.5 c 128,-1,18
 163 590 163 590 190 646 c 2,19,-1
 217 703 l 2,20,21
 232 733 232 733 257.5 751 c 128,-1,22
 283 769 283 769 301 769 c 0,23,24
 315 769 315 769 315 759 c 0,25,26
 315 757 315 757 313 751 c 0,27,28
 297 711 297 711 271.5 644 c 128,-1,29
 246 577 246 577 195 412.5 c 128,-1,30
 144 248 144 248 126 134 c 1,31,32
 127 118 127 118 136 118 c 0,33,34
 141 118 141 118 150 127 c 0,35,36
 233 206 233 206 343 349 c 0,37,38
 531 595 531 595 551 715 c 1,39,40
 551 743 551 743 584.5 757 c 128,-1,41
 618 771 618 771 648 771 c 0,42,43
 677 771 677 771 677 749 c 0,0,1
EndSplineSet
EndChar

StartChar: W
Encoding: 87 87 58
Width: 592
GlyphClass: 2
Flags: W
LayerCount: 2
Fore
SplineSet
379 349 m 0,0,1
 380 351 380 351 380 355 c 0,2,3
 380 358 380 358 377 358 c 1,4,-1
 368 354 l 1,5,6
 274 237 274 237 266 227 c 0,7,8
 202 150 202 150 143 86.5 c 128,-1,9
 84 23 84 23 57 -2 c 2,10,-1
 30 -28 l 1,11,12
 18 -36 18 -36 11 -36 c 0,13,14
 1 -36 1 -36 1 -17 c 1,15,16
 8 68 8 68 52 237 c 0,17,18
 84 356 84 356 127 472.5 c 128,-1,19
 170 589 170 589 198 646 c 1,20,-1
 225 704 l 1,21,22
 240 733 240 733 261.5 749.5 c 128,-1,23
 283 766 283 766 296 768 c 2,24,-1
 310 770 l 1,25,26
 321 770 321 770 321 761 c 0,27,28
 321 756 321 756 317 746 c 0,29,30
 272 648 272 648 198 419.5 c 128,-1,31
 124 191 124 191 124 134 c 0,32,33
 124 120 124 120 131 120 c 0,34,35
 136 120 136 120 145 129 c 0,36,37
 263 260 263 260 377 413 c 0,38,39
 392 433 392 433 407 460 c 128,-1,40
 422 487 422 487 430 504 c 2,41,-1
 438 521 l 1,42,43
 457 571 457 571 477 617 c 128,-1,44
 497 663 497 663 507 684 c 2,45,-1
 517 704 l 2,46,47
 532 733 532 733 553 749.5 c 128,-1,48
 574 766 574 766 588 768 c 2,49,-1
 602 770 l 1,50,51
 612 770 612 770 612 761 c 1,52,-1
 610 752 l 1,53,54
 593 712 593 712 567 645 c 128,-1,55
 541 578 541 578 488.5 414 c 128,-1,56
 436 250 436 250 416 136 c 1,57,58
 417 121 417 121 425 121 c 0,59,60
 431 121 431 121 439 130 c 0,61,62
 504 195 504 195 626 351 c 0,63,64
 703 451 703 451 769 564 c 128,-1,65
 835 677 835 677 835 717 c 0,66,67
 835 740 835 740 866 755 c 0,68,69
 896 770 896 770 932 770 c 0,70,71
 957 770 957 770 957 752 c 0,72,73
 957 729 957 729 932.5 686.5 c 128,-1,74
 908 644 908 644 857 579 c 128,-1,75
 806 514 806 514 763.5 463 c 128,-1,76
 721 412 721 412 649 327.5 c 128,-1,77
 577 243 577 243 547 207 c 0,78,79
 483 130 483 130 426.5 71.5 c 128,-1,80
 370 13 370 13 346 -8 c 1,81,-1
 321 -28 l 2,82,83
 310 -36 310 -36 303 -36 c 0,84,85
 292 -36 292 -36 292 -17 c 1,86,87
 303 109 303 109 379 349 c 0,0,1
EndSplineSet
EndChar

StartChar: X
Encoding: 88 88 59
Width: 463
GlyphClass: 2
Flags: W
LayerCount: 2
Fore
SplineSet
85 218 m 0,0,1
 165 285 165 285 298 411 c 1,2,3
 314 627 314 627 333 704 c 1,4,5
 342 734 342 734 362.5 756.5 c 128,-1,6
 383 779 383 779 397 779 c 0,7,8
 408 779 408 779 408 763 c 0,9,10
 408 757 408 757 407 748 c 0,11,12
 394 629 394 629 386 495 c 1,13,14
 490 596 490 596 564.5 661 c 128,-1,15
 639 726 639 726 662 740 c 1,16,-1
 684 755 l 1,17,18
 733 779 733 779 775 779 c 0,19,20
 805 779 805 779 805 769 c 0,21,22
 805 762 805 762 789.5 750 c 128,-1,23
 774 738 774 738 756.5 728 c 128,-1,24
 739 718 739 718 718.5 707 c 128,-1,25
 698 696 698 696 696 695 c 0,26,27
 539 602 539 602 384 454 c 1,28,29
 380 346 380 346 380 292 c 0,30,31
 380 57 380 57 427 36 c 0,32,33
 435 33 435 33 435 24 c 0,34,35
 435 5 435 5 398 -13 c 128,-1,36
 361 -31 361 -31 342 -31 c 0,37,38
 319 -31 319 -31 315 -14 c 0,39,40
 292 75 292 75 292 231 c 0,41,42
 292 298 292 298 295 364 c 1,43,44
 245 311 245 311 200.5 257 c 128,-1,45
 156 203 156 203 136 176 c 1,46,-1
 117 148 l 1,47,48
 -31 -48 -31 -48 -61 -48 c 0,49,50
 -69 -48 -69 -48 -69 -34 c 0,51,52
 -69 4 -69 4 -47 49.5 c 128,-1,53
 -25 95 -25 95 4.5 131 c 128,-1,54
 34 167 34 167 56 190 c 128,-1,55
 78 213 78 213 85 218 c 0,0,1
EndSplineSet
EndChar

StartChar: Y
Encoding: 89 89 60
Width: 219
GlyphClass: 2
Flags: W
LayerCount: 2
Fore
SplineSet
88 35 m 128,-1,1
 53 -32 53 -32 -28 -32 c 0,2,3
 -45 -32 -45 -32 -45 -22 c 1,4,-1
 -41 -11 l 1,5,6
 -5 44 -5 44 34.5 113 c 128,-1,7
 74 182 74 182 96 224 c 2,8,-1
 117 266 l 2,9,10
 149 328 149 328 171 470.5 c 128,-1,11
 193 613 193 613 193 703 c 1,12,-1
 190 736 l 1,13,14
 188 740 188 740 188 745 c 0,15,16
 188 756 188 756 198 763 c 0,17,18
 225 781 225 781 267 781 c 0,19,20
 283 781 283 781 283 754 c 1,21,22
 276 589 276 589 233 366 c 1,23,24
 234 358 234 358 239 358 c 0,25,26
 242 358 242 358 246 362 c 0,27,28
 429 614 429 614 529 712 c 0,29,30
 612 792 612 792 696 792 c 1,31,32
 709 791 709 791 709 784 c 0,33,34
 709 781 709 781 701 772.5 c 128,-1,35
 693 764 693 764 676.5 750.5 c 128,-1,36
 660 737 660 737 645 725 c 128,-1,37
 630 713 630 713 606.5 694.5 c 128,-1,38
 583 676 583 676 570 666 c 0,39,40
 561 659 561 659 546.5 647 c 128,-1,41
 532 635 532 635 488 593.5 c 128,-1,42
 444 552 444 552 402.5 508 c 128,-1,43
 361 464 361 464 308 396.5 c 128,-1,44
 255 329 255 329 214 262 c 1,45,0
 123 102 123 102 88 35 c 128,-1,1
EndSplineSet
EndChar

StartChar: Z
Encoding: 90 90 61
Width: 464
GlyphClass: 2
Flags: W
LayerCount: 2
Fore
SplineSet
676 731 m 0,0,1
 616 656 616 656 530 565.5 c 128,-1,2
 444 475 444 475 376.5 408.5 c 128,-1,3
 309 342 309 342 229 246.5 c 128,-1,4
 149 151 149 151 89 54 c 0,5,6
 82 43 82 43 82 36 c 0,7,8
 82 18 82 18 138 18 c 0,9,10
 172 18 172 18 205.5 27.5 c 128,-1,11
 239 37 239 37 262 50.5 c 128,-1,12
 285 64 285 64 303 77.5 c 128,-1,13
 321 91 321 91 330 100 c 1,14,-1
 338 110 l 1,15,16
 356 130 356 130 382 154.5 c 128,-1,17
 408 179 408 179 424 193 c 2,18,-1
 441 207 l 1,19,20
 456 216 456 216 461 216 c 0,21,22
 469 216 469 216 469 206 c 0,23,24
 469 194 469 194 453 162.5 c 128,-1,25
 437 131 437 131 419 102.5 c 128,-1,26
 401 74 401 74 381.5 44 c 128,-1,27
 362 14 362 14 361 13 c 0,28,29
 349 -6 349 -6 325 -6 c 1,30,31
 263 -12 263 -12 147 -12 c 1,32,-1
 -45 -9 l 1,33,34
 -64 -7 -64 -7 -64 6 c 1,35,-1
 -62 14 l 1,36,37
 13 128 13 128 111 241 c 128,-1,38
 209 354 209 354 286 427.5 c 128,-1,39
 363 501 363 501 449 583.5 c 128,-1,40
 535 666 535 666 576 712 c 0,41,42
 581 717 581 717 581 722 c 0,43,44
 581 731 581 731 538 731 c 0,45,46
 498 731 498 731 458.5 719 c 128,-1,47
 419 707 419 707 391.5 689.5 c 128,-1,48
 364 672 364 672 342 654.5 c 128,-1,49
 320 637 320 637 310 625 c 2,50,-1
 299 613 l 1,51,52
 288 606 288 606 282 606 c 0,53,54
 274 606 274 606 274 615 c 0,55,56
 274 633 274 633 316 694 c 128,-1,57
 358 755 358 755 379 758 c 0,58,59
 414 763 414 763 534 763 c 0,60,61
 550 763 550 763 583.5 762 c 128,-1,62
 617 761 617 761 625 761 c 0,63,64
 637 761 637 761 646 766 c 2,65,-1
 650 768 l 1,66,67
 686 791 686 791 698 792 c 0,68,69
 704 792 704 792 704 786 c 0,70,71
 704 765 704 765 676 731 c 0,0,1
EndSplineSet
EndChar

StartChar: bracketleft
Encoding: 91 91 62
Width: 234
GlyphClass: 2
Flags: W
LayerCount: 2
Fore
SplineSet
50 -77 m 0,0,1
 50 -85 50 -85 42 -85 c 0,2,3
 37 -85 37 -85 32 -81 c 0,4,5
 -14 -42 -14 -42 -27 7 c 1,6,7
 -29 19 -29 19 -29 24 c 0,8,9
 -29 33 -29 33 -27 42.5 c 128,-1,10
 -25 52 -25 52 -23 57 c 2,11,-1
 -21 62 l 1,12,13
 227 528 227 528 361 746 c 0,14,15
 365 751 365 751 373 759.5 c 128,-1,16
 381 768 381 768 416 785 c 128,-1,17
 451 802 451 802 497 808 c 1,18,19
 505 808 505 808 505 802 c 0,20,21
 505 799 505 799 502 796.5 c 128,-1,22
 499 794 499 794 496 792 c 2,23,-1
 493 791 l 1,24,25
 469 779 469 779 449 760.5 c 128,-1,26
 429 742 429 742 421 729 c 2,27,-1
 413 716 l 2,28,29
 353 619 353 619 261.5 452.5 c 128,-1,30
 170 286 170 286 108 168 c 2,31,-1
 46 49 l 1,32,33
 31 25 31 25 31 -9 c 0,34,35
 31 -39 31 -39 46 -66 c 0,36,37
 50 -72 50 -72 50 -77 c 0,0,1
EndSplineSet
EndChar

StartChar: backslash
Encoding: 92 92 63
Width: 355
GlyphClass: 2
Flags: W
LayerCount: 2
Fore
SplineSet
44 776 m 1,0,1
 44 790 44 790 64 790 c 0,2,3
 79 790 79 790 84 771 c 0,4,5
 93 739 93 739 170 395.5 c 128,-1,6
 247 52 247 52 262 -21 c 1,7,8
 262 -33 262 -33 248 -33 c 0,9,10
 223 -33 223 -33 220 -18 c 0,11,12
 57 707 57 707 44 776 c 1,0,1
EndSplineSet
EndChar

StartChar: bracketright
Encoding: 93 93 64
Width: 187
GlyphClass: 2
Flags: W
LayerCount: 2
Fore
SplineSet
322 803 m 0,0,1
 322 809 322 809 330 809 c 0,2,3
 334 809 334 809 341 804 c 0,4,5
 385 766 385 766 399 716 c 1,6,7
 401 704 401 704 401 699 c 0,8,9
 401 690 401 690 399 680.5 c 128,-1,10
 397 671 397 671 395 666 c 2,11,-1
 393 661 l 1,12,13
 146 195 146 195 11 -23 c 0,14,15
 7 -28 7 -28 -1 -36.5 c 128,-1,16
 -9 -45 -9 -45 -43 -62 c 128,-1,17
 -77 -79 -77 -79 -121 -85 c 1,18,19
 -132 -85 -132 -85 -132 -79 c 0,20,21
 -132 -76 -132 -76 -129 -73 c 128,-1,22
 -126 -70 -126 -70 -123 -68 c 2,23,-1
 -120 -67 l 1,24,25
 -96 -56 -96 -56 -76.5 -37.5 c 128,-1,26
 -57 -19 -57 -19 -49 -6 c 2,27,-1
 -41 7 l 2,28,29
 19 104 19 104 111 270.5 c 128,-1,30
 203 437 203 437 265 556 c 2,31,-1
 327 674 l 1,32,33
 341 697 341 697 341 731 c 0,34,35
 341 763 341 763 326 789 c 0,36,37
 322 795 322 795 322 803 c 0,0,1
EndSplineSet
EndChar

StartChar: asciicircum
Encoding: 94 94 65
Width: 370
GlyphClass: 2
Flags: W
LayerCount: 2
Fore
SplineSet
262 241 m 0,0,1
 261 245 261 245 259 245 c 1,2,-1
 253 241 l 1,3,4
 220 208 220 208 177 186.5 c 128,-1,5
 134 165 134 165 117 165 c 0,6,7
 110 165 110 165 110 169 c 1,8,-1
 114 178 l 1,9,10
 124 186 124 186 144 207.5 c 128,-1,11
 164 229 164 229 179 247 c 2,12,-1
 194 265 l 1,13,14
 200 274 200 274 213 274 c 2,15,-1
 322 274 l 2,16,17
 330 274 330 274 330 267 c 0,18,19
 330 266 330 266 328 251 c 128,-1,20
 326 236 326 236 324 212.5 c 128,-1,21
 322 189 322 189 322 169 c 0,22,23
 322 159 322 159 316 159 c 0,24,25
 301 159 301 159 284 188.5 c 128,-1,26
 267 218 267 218 262 241 c 0,0,1
EndSplineSet
EndChar

StartChar: underscore
Encoding: 95 95 66
Width: 622
GlyphClass: 2
Flags: W
LayerCount: 2
Fore
SplineSet
454 -78 m 1,0,-1
 -28 -78 l 2,1,2
 -58 -78 -58 -78 -58 -68 c 0,3,4
 -58 -60 -58 -60 -35.5 -46.5 c 128,-1,5
 -13 -33 -13 -33 7 -33 c 2,6,-1
 487 -33 l 2,7,8
 518 -33 518 -33 518 -42 c 0,9,10
 518 -52 518 -52 497 -64 c 128,-1,11
 476 -76 476 -76 454 -78 c 1,0,-1
EndSplineSet
EndChar

StartChar: grave
Encoding: 96 96 67
Width: 370
GlyphClass: 2
Flags: W
LayerCount: 2
Fore
SplineSet
425 500 m 0,0,1
 425 494 425 494 420 494 c 0,2,3
 416 494 416 494 407 500 c 0,4,5
 389 512 389 512 374 537 c 128,-1,6
 359 562 359 562 353 580 c 2,7,-1
 347 599 l 1,8,9
 347 609 347 609 355 609 c 2,10,-1
 409 609 l 2,11,12
 420 609 420 609 420 598 c 2,13,-1
 420 576 l 2,14,15
 420 534 420 534 425 500 c 0,0,1
EndSplineSet
EndChar

StartChar: a
Encoding: 97 97 68
Width: 370
GlyphClass: 2
Flags: W
LayerCount: 2
Fore
SplineSet
291 63 m 0,0,1
 208 -13 208 -13 177 -13 c 0,2,3
 163 -13 163 -13 163 3 c 0,4,5
 163 23 163 23 180.5 64 c 128,-1,6
 198 105 198 105 216 136 c 2,7,-1
 234 167 l 2,8,9
 238 174 238 174 238 176 c 128,-1,10
 238 178 238 178 236 178 c 0,11,12
 232 178 232 178 221 167 c 0,13,14
 191 134 191 134 152.5 96.5 c 128,-1,15
 114 59 114 59 90 38 c 2,16,-1
 67 18 l 1,17,18
 28 -12 28 -12 7 -12 c 0,19,20
 -15 -12 -15 -12 -15 22 c 0,21,22
 -15 39 -15 39 -5.5 74 c 128,-1,23
 4 109 4 109 9 121 c 0,24,25
 32 177 32 177 66.5 230 c 128,-1,26
 101 283 101 283 148 331.5 c 128,-1,27
 195 380 195 380 257.5 410 c 128,-1,28
 320 440 320 440 387 440 c 0,29,30
 443 440 443 440 443 423 c 0,31,32
 443 413 443 413 418 413 c 0,33,34
 326 413 326 413 245.5 334.5 c 128,-1,35
 165 256 165 256 115 154 c 0,36,37
 101 126 101 126 101 107 c 0,38,39
 101 96 101 96 108 96 c 0,40,41
 120 96 120 96 139 113 c 0,42,43
 151 124 151 124 171.5 142 c 128,-1,44
 192 160 192 160 238 211 c 128,-1,45
 284 262 284 262 311 306 c 0,46,47
 315 314 315 314 323.5 325 c 128,-1,48
 332 336 332 336 356 354.5 c 128,-1,49
 380 373 380 373 404 373 c 0,50,51
 417 373 417 373 417 366 c 0,52,53
 417 364 417 364 414 359 c 0,54,55
 410 351 410 351 391.5 319 c 128,-1,56
 373 287 373 287 357 258.5 c 128,-1,57
 341 230 341 230 323 196.5 c 128,-1,58
 305 163 305 163 294.5 139 c 128,-1,59
 284 115 284 115 284 107 c 0,60,61
 284 101 284 101 289 101 c 0,62,63
 304 101 304 101 362 159 c 1,64,65
 406 205 406 205 465 272 c 0,66,67
 468 275 468 275 470 275 c 128,-1,68
 472 275 472 275 472 271 c 0,69,70
 472 252 472 252 457 234 c 0,71,72
 359 125 359 125 291 63 c 0,0,1
EndSplineSet
EndChar

StartChar: b
Encoding: 98 98 69
Width: 330
GlyphClass: 2
Flags: W
LayerCount: 2
Fore
SplineSet
33 -18 m 0,0,1
 16 -18 16 -18 1 -15 c 128,-1,2
 -14 -12 -14 -12 -21 -10 c 2,3,-1
 -28 -7 l 2,4,5
 -35 -5 -35 -5 -35 1 c 1,6,-1
 -33 7 l 1,7,8
 49 203 49 203 191 448 c 0,9,10
 193 452 193 452 226 509 c 128,-1,11
 259 566 259 566 268 581.5 c 128,-1,12
 277 597 277 597 307 646.5 c 128,-1,13
 337 696 337 696 354 722.5 c 128,-1,14
 371 749 371 749 397 788 c 128,-1,15
 423 827 423 827 447 858 c 0,16,17
 478 897 478 897 490 897 c 0,18,19
 495 897 495 897 495 889 c 0,20,21
 495 871 495 871 461 804 c 1,22,23
 411 698 411 698 345 584 c 0,24,25
 214 356 214 356 181 296 c 1,26,-1
 181 292 l 2,27,28
 181 287 181 287 183 287 c 0,29,30
 184 287 184 287 189 292 c 0,31,32
 202 309 202 309 223.5 334 c 128,-1,33
 245 359 245 359 295 401 c 128,-1,34
 345 443 345 443 376 443 c 0,35,36
 401 443 401 443 401 404 c 0,37,38
 401 343 401 343 360 261 c 0,39,40
 336 213 336 213 303 166.5 c 128,-1,41
 270 120 270 120 228 77.5 c 128,-1,42
 186 35 186 35 135 8.5 c 128,-1,43
 84 -18 84 -18 33 -18 c 0,0,1
298 312 m 0,44,45
 310 341 310 341 310 355 c 0,46,47
 310 368 310 368 300 368 c 0,48,49
 292 368 292 368 276.5 356 c 128,-1,50
 261 344 261 344 250 332 c 2,51,-1
 238 320 l 1,52,53
 179 251 179 251 132 175.5 c 128,-1,54
 85 100 85 100 68 59 c 2,55,-1
 50 18 l 2,56,57
 48 15 48 15 48 12 c 0,58,59
 48 7 48 7 63 7 c 0,60,61
 107 7 107 7 173 89.5 c 128,-1,62
 239 172 239 172 298 312 c 0,44,45
EndSplineSet
EndChar

StartChar: c
Encoding: 99 99 70
Width: 288
GlyphClass: 2
Flags: W
LayerCount: 2
Fore
SplineSet
244 97 m 0,0,1
 199 54 199 54 142.5 16.5 c 128,-1,2
 86 -21 86 -21 47 -21 c 0,3,4
 1 -21 1 -21 1 50 c 0,5,6
 1 125 1 125 54 216.5 c 128,-1,7
 107 308 107 308 188.5 373 c 128,-1,8
 270 438 270 438 343 438 c 0,9,10
 382 438 382 438 382 409 c 0,11,12
 382 359 382 359 317 296 c 0,13,14
 311 290 311 290 291 275 c 128,-1,15
 271 260 271 260 263 260 c 0,16,17
 258 260 258 260 258 265 c 1,18,-1
 261 274 l 1,19,20
 301 345 301 345 301 382 c 0,21,22
 301 402 301 402 288 402 c 0,23,24
 257 402 257 402 209.5 341.5 c 128,-1,25
 162 281 162 281 127 203.5 c 128,-1,26
 92 126 92 126 92 81 c 0,27,28
 92 45 92 45 118 45 c 0,29,30
 163 45 163 45 231 110 c 1,31,32
 284 159 284 159 383 272 c 0,33,34
 386 275 386 275 388 275 c 128,-1,35
 390 275 390 275 390 271 c 0,36,37
 390 252 390 252 375 234 c 0,38,39
 301 152 301 152 244 97 c 0,0,1
EndSplineSet
EndChar

StartChar: d
Encoding: 100 100 71
Width: 371
GlyphClass: 2
Flags: W
LayerCount: 2
Fore
SplineSet
134 107 m 0,0,1
 140 112 140 112 150.5 121.5 c 128,-1,2
 161 131 161 131 191 161.5 c 128,-1,3
 221 192 221 192 248.5 224.5 c 128,-1,4
 276 257 276 257 309.5 305 c 128,-1,5
 343 353 343 353 367 400 c 0,6,7
 368 402 368 402 368 404 c 2,8,-1
 367 407 l 1,9,10
 360 411 360 411 351 411 c 0,11,12
 308 411 308 411 244.5 347 c 128,-1,13
 181 283 181 283 136.5 209.5 c 128,-1,14
 92 136 92 136 92 104 c 0,15,16
 92 90 92 90 103 90 c 0,17,18
 115 90 115 90 134 107 c 0,0,1
355 151 m 0,19,20
 397 193 397 193 466 272 c 0,21,22
 469 275 469 275 471 275 c 128,-1,23
 473 275 473 275 473 271 c 0,24,25
 473 252 473 252 458 234 c 0,26,27
 384 152 384 152 327 97 c 1,28,29
 209 -13 209 -13 172 -13 c 0,30,31
 158 -13 158 -13 158 2 c 0,32,33
 158 21 158 21 177 62 c 128,-1,34
 196 103 196 103 216 135 c 2,35,-1
 235 167 l 2,36,37
 239 172 239 172 239 176 c 0,38,39
 239 178 239 178 237 178 c 0,40,41
 233 178 233 178 226 171 c 0,42,43
 195 135 195 135 155 97 c 128,-1,44
 115 59 115 59 90 38 c 2,45,-1
 66 18 l 1,46,47
 26 -13 26 -13 6 -13 c 1,48,-1
 2 -12 l 1,49,50
 -15 -11 -15 -11 -15 18 c 0,51,52
 -15 94 -15 94 38.5 191.5 c 128,-1,53
 92 289 92 289 177 361 c 128,-1,54
 262 433 262 433 341 433 c 0,55,56
 349 433 349 433 356 431.5 c 128,-1,57
 363 430 363 430 366.5 429 c 128,-1,58
 370 428 370 428 373 426 c 2,59,-1
 376 425 l 2,60,61
 378 425 378 425 381 428 c 1,62,63
 566 762 566 762 665 889 c 0,64,65
 695 929 695 929 708 929 c 0,66,67
 713 929 713 929 713 921 c 0,68,69
 713 900 713 900 681 835 c 1,70,71
 527 553 527 553 465 444 c 0,72,73
 354 246 354 246 330 206 c 0,74,75
 281 122 281 122 281 104 c 0,76,77
 281 97 281 97 287 97 c 0,78,79
 292 97 292 97 298.5 100.5 c 128,-1,80
 305 104 305 104 313 111 c 128,-1,81
 321 118 321 118 327.5 124 c 128,-1,82
 334 130 334 130 343 139 c 128,-1,83
 352 148 352 148 355 151 c 0,19,20
EndSplineSet
EndChar

StartChar: e
Encoding: 101 101 72
Width: 287
GlyphClass: 2
Flags: W
LayerCount: 2
Fore
SplineSet
275 339 m 0,0,1
 287 364 287 364 287 383 c 0,2,3
 287 399 287 399 277 399 c 0,4,5
 271 399 271 399 263.5 395.5 c 128,-1,6
 256 392 256 392 252 388 c 2,7,-1
 247 384 l 1,8,9
 216 357 216 357 169.5 285.5 c 128,-1,10
 123 214 123 214 123 194 c 0,11,12
 123 190 123 190 125 190 c 0,13,14
 131 190 131 190 151.5 200 c 128,-1,15
 172 210 172 210 210.5 247 c 128,-1,16
 249 284 249 284 275 339 c 0,0,1
230 110 m 0,17,18
 283 159 283 159 382 272 c 0,19,20
 385 275 385 275 387 275 c 128,-1,21
 389 275 389 275 389 271 c 0,22,23
 389 252 389 252 374 234 c 0,24,25
 300 152 300 152 243 97 c 1,26,27
 201 55 201 55 143 16.5 c 128,-1,28
 85 -22 85 -22 47 -22 c 0,29,30
 1 -22 1 -22 1 42 c 0,31,32
 1 148 1 148 79.5 264 c 128,-1,33
 158 380 158 380 261 421 c 0,34,35
 304 439 304 439 339 439 c 0,36,37
 378 439 378 439 378 408 c 0,38,39
 378 350 378 350 296 275 c 128,-1,40
 214 200 214 200 112 161 c 0,41,42
 108 160 108 160 105 154 c 0,43,44
 90 113 90 113 90 81 c 0,45,46
 90 45 90 45 117 45 c 0,47,48
 160 45 160 45 230 110 c 0,17,18
EndSplineSet
EndChar

StartChar: f
Encoding: 102 102 73
Width: 235
GlyphClass: 2
Flags: W
LayerCount: 2
Fore
SplineSet
144 410 m 1,0,1
 138 413 138 413 138 417 c 0,2,3
 138 423 138 423 149 423 c 2,4,-1
 179 423 l 1,5,6
 283 591 283 591 349 669 c 0,7,8
 418 749 418 749 486 788.5 c 128,-1,9
 554 828 554 828 591 828 c 0,10,11
 615 828 615 828 615 807 c 0,12,13
 615 761 615 761 567.5 713.5 c 128,-1,14
 520 666 520 666 487 652 c 0,15,16
 481 650 481 650 479 650 c 0,17,18
 475 650 475 650 475 655 c 0,19,20
 475 658 475 658 478 663 c 0,21,22
 536 748 536 748 536 776 c 0,23,24
 536 783 536 783 530 783 c 0,25,26
 518 783 518 783 490 761 c 0,27,28
 422 710 422 710 252 423 c 1,29,-1
 329 423 l 2,30,31
 343 423 343 423 343 419 c 0,32,33
 343 414 343 414 335.5 408 c 128,-1,34
 328 402 328 402 324 402 c 2,35,-1
 253 402 l 2,36,37
 239 402 239 402 239 395 c 0,38,39
 239 392 239 392 240.5 378 c 128,-1,40
 242 364 242 364 242 356 c 0,41,42
 242 263 242 263 185.5 132.5 c 128,-1,43
 129 2 129 2 39 -118 c 0,44,45
 -13 -187 -13 -187 -57 -232 c 128,-1,46
 -101 -277 -101 -277 -123.5 -291.5 c 128,-1,47
 -146 -306 -146 -306 -157 -306 c 0,48,49
 -171 -306 -171 -306 -171 -287 c 0,50,51
 -171 -195 -171 -195 20 142 c 0,52,53
 20 143 20 143 39 178 c 128,-1,54
 58 213 58 213 94.5 278.5 c 128,-1,55
 131 344 131 344 168 404 c 1,56,-1
 144 410 l 1,0,1
215 328 m 0,57,58
 215 342 215 342 212 354 c 1,59,60
 54 82 54 82 -8 -49 c 1,61,62
 -65 -167 -65 -167 -65 -187 c 0,63,64
 -65 -191 -65 -191 -62 -191 c 0,65,66
 -48 -191 -48 -191 7 -126 c 0,67,68
 65 -58 65 -58 140 89 c 128,-1,69
 215 236 215 236 215 328 c 0,57,58
EndSplineSet
EndChar

StartChar: g
Encoding: 103 103 74
Width: 370
GlyphClass: 2
Flags: W
LayerCount: 2
Fore
SplineSet
235 167 m 2,0,1
 239 175 239 175 239 178 c 1,2,-1
 229 171 l 1,3,4
 198 135 198 135 157.5 97 c 128,-1,5
 117 59 117 59 92 38 c 2,6,-1
 67 18 l 1,7,8
 26 -12 26 -12 5 -12 c 0,9,10
 -15 -12 -15 -12 -15 17 c 0,11,12
 -15 89 -15 89 38 187 c 128,-1,13
 91 285 91 285 175.5 359 c 128,-1,14
 260 433 260 433 336 433 c 0,15,16
 351 433 351 433 361.5 429.5 c 128,-1,17
 372 426 372 426 376.5 423 c 128,-1,18
 381 420 381 420 382 420 c 0,19,20
 384 420 384 420 387 423 c 0,21,22
 393 431 393 431 402.5 443 c 128,-1,23
 412 455 412 455 435 475.5 c 128,-1,24
 458 496 458 496 472 496 c 0,25,26
 479 496 479 496 479 486 c 0,27,28
 479 472 479 472 465 444 c 1,29,30
 358 247 358 247 335 206 c 0,31,32
 327 191 327 191 298.5 141.5 c 128,-1,33
 270 92 270 92 258 71 c 1,34,35
 321 122 321 122 362 159 c 1,36,37
 406 205 406 205 465 272 c 0,38,39
 468 275 468 275 470 275 c 128,-1,40
 472 275 472 275 472 271 c 0,41,42
 472 252 472 252 457 234 c 1,43,44
 413 186 413 186 381 152 c 0,45,46
 339 108 339 108 231 24 c 1,47,-1
 205 -24 l 2,48,49
 12 -379 12 -379 -61 -486 c 0,50,51
 -68 -497 -68 -497 -79 -512.5 c 128,-1,52
 -90 -528 -90 -528 -115 -554.5 c 128,-1,53
 -140 -581 -140 -581 -155 -581 c 0,54,55
 -179 -581 -179 -581 -179 -512 c 0,56,57
 -179 -410 -179 -410 -106 -290 c 0,58,59
 -29 -163 -29 -163 134 -29 c 1,60,-1
 235 167 l 2,0,1
368 400 m 0,61,62
 369 401 369 401 369 404 c 0,63,64
 369 411 369 411 353 411 c 0,65,66
 313 411 313 411 250 349 c 128,-1,67
 187 287 187 287 141 213 c 128,-1,68
 95 139 95 139 95 104 c 0,69,70
 95 90 95 90 107 90 c 0,71,72
 118 90 118 90 135 104 c 0,73,74
 150 117 150 117 175.5 140.5 c 128,-1,75
 201 164 201 164 263 241 c 128,-1,76
 325 318 325 318 368 400 c 0,61,62
-81 -288 m 0,77,78
 -89 -300 -89 -300 -100 -319.5 c 128,-1,79
 -111 -339 -111 -339 -130 -386.5 c 128,-1,80
 -149 -434 -149 -434 -149 -466 c 0,81,82
 -149 -483 -149 -483 -143 -483 c 0,83,84
 -138 -483 -138 -483 -128 -473.5 c 128,-1,85
 -118 -464 -118 -464 -111 -454 c 2,86,-1
 -104 -444 l 1,87,88
 -20 -314 -20 -314 108 -77 c 1,89,90
 -18 -186 -18 -186 -81 -288 c 0,77,78
EndSplineSet
EndChar

StartChar: h
Encoding: 104 104 75
Width: 376
GlyphClass: 2
Flags: W
LayerCount: 2
Fore
SplineSet
360 151 m 0,0,1
 402 193 402 193 471 272 c 0,2,3
 474 275 474 275 476 275 c 128,-1,4
 478 275 478 275 478 271 c 0,5,6
 478 252 478 252 463 234 c 0,7,8
 389 152 389 152 332 97 c 1,9,10
 212 -14 212 -14 174 -14 c 0,11,12
 159 -14 159 -14 159 5 c 0,13,14
 159 41 159 41 200 114.5 c 128,-1,15
 241 188 241 188 281.5 251.5 c 128,-1,16
 322 315 322 315 322 326 c 0,17,18
 322 332 322 332 316 332 c 0,19,20
 292 332 292 332 225 258 c 128,-1,21
 158 184 158 184 112 125 c 0,22,23
 61 61 61 61 23.5 23 c 128,-1,24
 -14 -15 -14 -15 -26 -20 c 2,25,-1
 -39 -26 l 1,26,27
 -48 -26 -48 -26 -48 -16 c 0,28,29
 -48 0 -48 0 -30 41 c 128,-1,30
 -12 82 -12 82 6 115 c 2,31,-1
 24 148 l 1,32,-1
 180 428 l 1,33,34
 364 753 364 753 470 890 c 0,35,36
 500 930 500 930 512 930 c 0,37,38
 518 930 518 930 518 922 c 0,39,40
 518 901 518 901 486 836 c 1,41,42
 329 553 329 553 268 444 c 0,43,44
 231 378 231 378 201 326.5 c 128,-1,45
 171 275 171 275 158.5 254 c 128,-1,46
 146 233 146 233 137 217.5 c 128,-1,47
 128 202 128 202 123 191 c 0,48,49
 122 188 122 188 122 185 c 0,50,51
 122 180 122 180 124 180 c 128,-1,52
 126 180 126 180 132 186 c 0,53,54
 356 435 356 435 426 435 c 0,55,56
 440 435 440 435 440 421 c 0,57,58
 440 417 440 417 436 403.5 c 128,-1,59
 432 390 432 390 413 349 c 128,-1,60
 394 308 394 308 363 258 c 1,61,62
 344 230 344 230 315 178 c 128,-1,63
 286 126 286 126 286 110 c 0,64,65
 286 101 286 101 295 101 c 0,66,67
 298 101 298 101 303.5 103.5 c 128,-1,68
 309 106 309 106 316 112 c 128,-1,69
 323 118 323 118 328.5 123 c 128,-1,70
 334 128 334 128 344.5 137.5 c 128,-1,71
 355 147 355 147 360 151 c 0,0,1
EndSplineSet
EndChar

StartChar: i
Encoding: 105 105 76
Width: 182
GlyphClass: 2
Flags: W
LayerCount: 2
Fore
SplineSet
138 97 m 1,0,1
 21 -13 21 -13 -12 -13 c 0,2,3
 -29 -13 -29 -13 -29 10 c 128,-1,4
 -29 33 -29 33 -11 77 c 128,-1,5
 7 121 7 121 25 154 c 2,6,-1
 43 186 l 1,7,8
 119 319 119 319 158 377 c 0,9,10
 175 402 175 402 201.5 419.5 c 128,-1,11
 228 437 228 437 251 437 c 0,12,13
 259 437 259 437 259 430 c 0,14,15
 259 425 259 425 252 411 c 0,16,17
 240 389 240 389 193 306 c 128,-1,18
 146 223 146 223 137 206 c 0,19,20
 96 134 96 134 96 110 c 0,21,22
 96 101 96 101 102 101 c 0,23,24
 112 101 112 101 166 151 c 1,25,26
 208 193 208 193 277 272 c 0,27,28
 280 275 280 275 282 275 c 128,-1,29
 284 275 284 275 284 271 c 0,30,31
 284 252 284 252 269 234 c 0,32,33
 195 152 195 152 138 97 c 1,0,1
271 494 m 0,34,35
 246 494 246 494 246 524 c 0,36,37
 246 552 246 552 267 580.5 c 128,-1,38
 288 609 288 609 313 609 c 0,39,40
 343 609 343 609 343 575 c 0,41,42
 343 547 343 547 320 520.5 c 128,-1,43
 297 494 297 494 271 494 c 0,34,35
EndSplineSet
EndChar

StartChar: j
Encoding: 106 106 77
Width: 168
GlyphClass: 2
Flags: W
LayerCount: 2
Fore
SplineSet
134 206 m 0,0,1
 116 172 116 172 58 72 c 1,2,3
 119 121 119 121 161 159 c 1,4,5
 205 205 205 205 264 272 c 0,6,7
 267 275 267 275 269 275 c 128,-1,8
 271 275 271 275 271 271 c 0,9,10
 271 252 271 252 256 234 c 1,11,12
 212 186 212 186 180 152 c 0,13,14
 140 110 140 110 31 24 c 1,15,16
 9 -14 9 -14 4 -24 c 0,17,18
 -189 -379 -189 -379 -262 -486 c 0,19,20
 -269 -497 -269 -497 -280 -512.5 c 128,-1,21
 -291 -528 -291 -528 -316 -554.5 c 128,-1,22
 -341 -581 -341 -581 -356 -581 c 0,23,24
 -380 -581 -380 -581 -380 -512 c 0,25,26
 -380 -410 -380 -410 -307 -290 c 0,27,28
 -232 -166 -232 -166 -64 -27 c 1,29,-1
 36 167 l 1,30,31
 125 332 125 332 158 377 c 0,32,33
 179 404 179 404 207 420.5 c 128,-1,34
 235 437 235 437 251 437 c 0,35,36
 260 437 260 437 260 432 c 0,37,38
 260 430 260 430 258 426 c 0,39,40
 146 229 146 229 134 206 c 0,0,1
-282 -288 m 0,41,42
 -290 -300 -290 -300 -301 -319.5 c 128,-1,43
 -312 -339 -312 -339 -331 -386.5 c 128,-1,44
 -350 -434 -350 -434 -350 -466 c 0,45,46
 -350 -483 -350 -483 -344 -483 c 0,47,48
 -339 -483 -339 -483 -329 -473.5 c 128,-1,49
 -319 -464 -319 -464 -312 -454 c 2,50,-1
 -305 -444 l 1,51,52
 -215 -304 -215 -304 -91 -75 c 1,53,54
 -219 -187 -219 -187 -282 -288 c 0,41,42
266 494 m 0,55,56
 241 494 241 494 241 524 c 0,57,58
 241 552 241 552 262 580.5 c 128,-1,59
 283 609 283 609 308 609 c 0,60,61
 338 609 338 609 338 575 c 0,62,63
 338 547 338 547 315 520.5 c 128,-1,64
 292 494 292 494 266 494 c 0,55,56
EndSplineSet
EndChar

StartChar: k
Encoding: 107 107 78
Width: 361
GlyphClass: 2
Flags: W
LayerCount: 2
Fore
SplineSet
345 151 m 0,0,1
 387 193 387 193 456 272 c 0,2,3
 459 275 459 275 461 275 c 128,-1,4
 463 275 463 275 463 271 c 0,5,6
 463 252 463 252 448 234 c 0,7,8
 374 152 374 152 317 97 c 0,9,10
 312 92 312 92 298.5 78.5 c 128,-1,11
 285 65 285 65 277 57.5 c 128,-1,12
 269 50 269 50 256 37.5 c 128,-1,13
 243 25 243 25 234 18 c 128,-1,14
 225 11 225 11 214.5 3.5 c 128,-1,15
 204 -4 204 -4 195.5 -7.5 c 128,-1,16
 187 -11 187 -11 181 -11 c 0,17,18
 163 -11 163 -11 163 22 c 0,19,20
 163 58 163 58 178.5 114 c 128,-1,21
 194 170 194 170 210 208 c 2,22,-1
 225 246 l 2,23,24
 226 248 226 248 226 250 c 128,-1,25
 226 252 226 252 224 252 c 2,26,-1
 218 250 l 1,27,28
 180 212 180 212 139.5 164.5 c 128,-1,29
 99 117 99 117 78 89 c 2,30,-1
 57 61 l 1,31,32
 37 30 37 30 10.5 7 c 128,-1,33
 -16 -16 -16 -16 -30 -16 c 0,34,35
 -40 -16 -40 -16 -40 -3 c 0,36,37
 -40 16 -40 16 -22 57 c 128,-1,38
 -4 98 -4 98 14 130 c 2,39,-1
 32 162 l 1,40,-1
 178 423 l 1,41,42
 375 773 375 773 465 887 c 0,43,44
 495 926 495 926 507 926 c 0,45,46
 512 926 512 926 512 918 c 0,47,48
 512 896 512 896 480 832 c 1,49,50
 323 548 323 548 262 439 c 0,51,52
 143 226 143 226 119 186 c 1,53,-1
 119 182 l 2,54,55
 119 179 119 179 121 179 c 128,-1,56
 123 179 123 179 127 183 c 2,57,-1
 174 234 l 2,58,59
 222 285 222 285 261 324 c 128,-1,60
 300 363 300 363 348 400.5 c 128,-1,61
 396 438 396 438 419 438 c 0,62,63
 435 438 435 438 435 414 c 0,64,65
 435 400 435 400 425 371 c 128,-1,66
 415 342 415 342 405 342 c 0,67,68
 401 342 401 342 398 352 c 0,69,70
 393 377 393 377 369 377 c 0,71,72
 335 377 335 377 306 312.5 c 128,-1,73
 277 248 277 248 265 187.5 c 128,-1,74
 253 127 253 127 253 106 c 0,75,76
 253 84 253 84 264 84 c 0,77,78
 273 84 273 84 287.5 95.5 c 128,-1,79
 302 107 302 107 321.5 127 c 128,-1,80
 341 147 341 147 345 151 c 0,0,1
EndSplineSet
EndChar

StartChar: l
Encoding: 108 108 79
Width: 200
GlyphClass: 2
Flags: W
LayerCount: 2
Fore
SplineSet
291 487 m 0,0,1
 362 537 362 537 418.5 600.5 c 128,-1,2
 475 664 475 664 504.5 717.5 c 128,-1,3
 534 771 534 771 549 810 c 128,-1,4
 564 849 564 849 564 866 c 0,5,6
 564 876 564 876 557 876 c 0,7,8
 543 876 543 876 523 856 c 0,9,10
 485 818 485 818 437 746 c 128,-1,11
 389 674 389 674 359.5 622.5 c 128,-1,12
 330 571 330 571 283 485 c 1,13,14
 287 485 287 485 291 487 c 0,0,1
184 151 m 0,15,16
 226 193 226 193 295 272 c 0,17,18
 298 275 298 275 300 275 c 128,-1,19
 302 275 302 275 302 271 c 0,20,21
 302 252 302 252 287 234 c 0,22,23
 213 152 213 152 156 97 c 0,24,25
 31 -21 31 -21 -3 -21 c 0,26,27
 -18 -21 -18 -21 -18 0 c 0,28,29
 -18 11 -18 11 -15.5 24 c 128,-1,30
 -13 37 -13 37 -7 52.5 c 128,-1,31
 -1 68 -1 68 3.5 78.5 c 128,-1,32
 8 89 8 89 16.5 108.5 c 128,-1,33
 25 128 25 128 28 135 c 0,34,35
 56 198 56 198 200 467 c 1,36,37
 397 826 397 826 562 908 c 0,38,39
 586 920 586 920 610 920 c 0,40,41
 638 920 638 920 638 894 c 0,42,43
 638 834 638 834 597 762.5 c 128,-1,44
 556 691 556 691 497 631 c 128,-1,45
 438 571 438 571 381.5 526 c 128,-1,46
 325 481 325 481 284 458 c 1,47,48
 278 456 278 456 273 449 c 0,49,50
 229 378 229 378 187 296.5 c 128,-1,51
 145 215 145 215 124 168 c 2,52,-1
 104 122 l 1,53,54
 99 107 99 107 99 102 c 0,55,56
 99 93 99 93 106 93 c 0,57,58
 126 93 126 93 184 151 c 0,15,16
EndSplineSet
EndChar

StartChar: m
Encoding: 109 109 80
Width: 580
GlyphClass: 2
Flags: W
LayerCount: 2
Fore
SplineSet
564 151 m 0,0,1
 606 193 606 193 675 272 c 0,2,3
 678 275 678 275 680 275 c 128,-1,4
 682 275 682 275 682 271 c 0,5,6
 682 252 682 252 667 234 c 0,7,8
 593 152 593 152 536 97 c 1,9,10
 418 -13 418 -13 381 -13 c 0,11,12
 365 -13 365 -13 365 6 c 128,-1,13
 365 25 365 25 385.5 69 c 128,-1,14
 406 113 406 113 426.5 149 c 128,-1,15
 447 185 447 185 478.5 237 c 128,-1,16
 510 289 510 289 512 293 c 0,17,18
 530 322 530 322 530 330 c 0,19,20
 530 335 530 335 525 335 c 1,21,-1
 511 330 l 1,22,23
 465 297 465 297 401 227.5 c 128,-1,24
 337 158 337 158 296 106 c 2,25,-1
 255 53 l 1,26,27
 209 -13 209 -13 165 -13 c 0,28,29
 152 -13 152 -13 152 -5 c 0,30,31
 152 4 152 4 171 42.5 c 128,-1,32
 190 81 190 81 209 115 c 2,33,-1
 228 149 l 2,34,35
 235 163 235 163 262.5 209.5 c 128,-1,36
 290 256 290 256 308.5 289.5 c 128,-1,37
 327 323 327 323 327 331 c 0,38,39
 327 336 327 336 323 336 c 1,40,-1
 309 330 l 1,41,42
 262 297 262 297 198 227.5 c 128,-1,43
 134 158 134 158 94 106 c 2,44,-1
 53 53 l 1,45,46
 6 -12 6 -12 -37 -12 c 0,47,48
 -50 -12 -50 -12 -50 -5 c 0,49,50
 -50 4 -50 4 -31 42.5 c 128,-1,51
 -12 81 -12 81 7 115 c 2,52,-1
 26 149 l 1,53,-1
 123 321 l 1,54,55
 147 366 147 366 181 401.5 c 128,-1,56
 215 437 215 437 252 437 c 0,57,58
 260 437 260 437 260 430 c 0,59,60
 260 424 260 424 248.5 404.5 c 128,-1,61
 237 385 237 385 215.5 350.5 c 128,-1,62
 194 316 194 316 179 287 c 0,63,64
 170 270 170 270 157.5 248.5 c 128,-1,65
 145 227 145 227 137 212.5 c 128,-1,66
 129 198 129 198 126 192 c 128,-1,67
 123 186 123 186 123 183 c 0,68,69
 123 181 123 181 125 181 c 0,70,71
 128 181 128 181 135 188 c 0,72,73
 154 210 154 210 184.5 243 c 128,-1,74
 215 276 215 276 288 342.5 c 128,-1,75
 361 409 361 409 408 432 c 0,76,77
 418 437 418 437 428 437 c 0,78,79
 442 437 442 437 442 423 c 0,80,81
 442 397 442 397 383 288 c 0,82,83
 378 279 378 279 362.5 253 c 128,-1,84
 347 227 347 227 336.5 208 c 128,-1,85
 326 189 326 189 326 184 c 0,86,87
 326 181 326 181 328 181 c 0,88,89
 331 181 331 181 338 188 c 0,90,91
 357 210 357 210 387.5 243 c 128,-1,92
 418 276 418 276 490.5 342.5 c 128,-1,93
 563 409 563 409 610 432 c 0,94,95
 622 437 622 437 631 437 c 0,96,97
 646 437 646 437 646 423 c 0,98,99
 646 419 646 419 642 405.5 c 128,-1,100
 638 392 638 392 619 350.5 c 128,-1,101
 600 309 600 309 569 259 c 1,102,103
 493 142 493 142 493 112 c 0,104,105
 493 103 493 103 499 103 c 0,106,107
 516 103 516 103 564 151 c 0,0,1
EndSplineSet
EndChar

StartChar: n
Encoding: 110 110 81
Width: 379
GlyphClass: 2
Flags: W
LayerCount: 2
Fore
SplineSet
335 97 m 1,0,1
 218 -13 218 -13 181 -13 c 0,2,3
 164 -13 164 -13 164 5 c 0,4,5
 164 16 164 16 169 32.5 c 128,-1,6
 174 49 174 49 181.5 65.5 c 128,-1,7
 189 82 189 82 196 96 c 128,-1,8
 203 110 203 110 210 122 c 128,-1,9
 217 134 217 134 217 135 c 0,10,11
 232 162 232 162 262 210.5 c 128,-1,12
 292 259 292 259 310 290.5 c 128,-1,13
 328 322 328 322 328 329 c 0,14,15
 328 334 328 334 323 334 c 1,16,-1
 309 329 l 1,17,18
 263 296 263 296 199 226.5 c 128,-1,19
 135 157 135 157 94 104 c 2,20,-1
 53 52 l 1,21,22
 40 33 40 33 30 21 c 128,-1,23
 20 9 20 9 1.5 -2.5 c 128,-1,24
 -17 -14 -17 -14 -36 -14 c 0,25,26
 -50 -14 -50 -14 -50 -6 c 128,-1,27
 -50 2 -50 2 -31 40.5 c 128,-1,28
 -12 79 -12 79 7 114 c 2,29,-1
 26 148 l 1,30,-1
 124 320 l 2,31,32
 139 345 139 345 148.5 358.5 c 128,-1,33
 158 372 158 372 175 392.5 c 128,-1,34
 192 413 192 413 211.5 423 c 128,-1,35
 231 433 231 433 253 435 c 0,36,37
 261 435 261 435 261 428 c 0,38,39
 261 422 261 422 258 418 c 0,40,41
 235 382 235 382 187.5 299 c 128,-1,42
 140 216 140 216 127 191 c 0,43,44
 124 185 124 185 124 182 c 0,45,46
 124 180 124 180 126 180 c 128,-1,47
 128 180 128 180 136 186 c 1,48,49
 155 208 155 208 185.5 241 c 128,-1,50
 216 274 216 274 289 340.5 c 128,-1,51
 362 407 362 407 409 430 c 0,52,53
 420 435 420 435 430 435 c 0,54,55
 444 435 444 435 444 419 c 1,56,57
 436 372 436 372 367 258 c 0,58,59
 291 133 291 133 291 110 c 0,60,61
 291 102 291 102 298 102 c 0,62,63
 303 102 303 102 309.5 105.5 c 128,-1,64
 316 109 316 109 324 115.5 c 128,-1,65
 332 122 332 122 337.5 127 c 128,-1,66
 343 132 343 132 352 140.5 c 128,-1,67
 361 149 361 149 363 151 c 0,68,69
 405 193 405 193 474 272 c 0,70,71
 477 275 477 275 479 275 c 128,-1,72
 481 275 481 275 481 271 c 0,73,74
 481 252 481 252 466 234 c 0,75,76
 392 152 392 152 335 97 c 1,0,1
EndSplineSet
EndChar

StartChar: o
Encoding: 111 111 82
Width: 348
GlyphClass: 2
Flags: W
LayerCount: 2
Fore
SplineSet
437 352 m 1,0,1
 446 350 446 350 446 346 c 0,2,3
 446 340 446 340 438 332 c 0,4,5
 427 321 427 321 405.5 303 c 128,-1,6
 384 285 384 285 380 281 c 2,7,-1
 366 262 l 1,8,9
 345 203 345 203 301.5 139.5 c 128,-1,10
 258 76 258 76 195.5 28 c 128,-1,11
 133 -20 133 -20 76 -20 c 0,12,13
 5 -20 5 -20 5 67 c 0,14,15
 5 144 5 144 55 233.5 c 128,-1,16
 105 323 105 323 184.5 386.5 c 128,-1,17
 264 450 264 450 341 450 c 0,18,19
 397 450 397 450 397 406 c 0,20,21
 397 382 397 382 373 341 c 0,22,23
 372 340 372 340 372 338 c 128,-1,24
 372 336 372 336 374 336 c 0,25,26
 411 351 411 351 437 352 c 1,0,1
342 328 m 0,27,28
 350 363 350 363 350 382 c 0,29,30
 350 424 350 424 322 424 c 0,31,32
 283 424 283 424 225 352 c 128,-1,33
 167 280 167 280 125.5 190 c 128,-1,34
 84 100 84 100 84 48 c 0,35,36
 84 10 84 10 111 10 c 0,37,38
 153 10 153 10 211.5 94 c 128,-1,39
 270 178 270 178 282 263 c 1,40,41
 281 265 281 265 281 269 c 0,42,43
 281 298 281 298 333 321 c 0,44,45
 341 324 341 324 342 328 c 0,27,28
EndSplineSet
EndChar

StartChar: p
Encoding: 112 112 83
Width: 345
GlyphClass: 2
Flags: W
LayerCount: 2
Fore
SplineSet
37 36 m 2,0,1
 32 27 32 27 32 18 c 0,2,3
 32 0 32 0 60 0 c 0,4,5
 89 0 89 0 121 26.5 c 128,-1,6
 153 53 153 53 178.5 90.5 c 128,-1,7
 204 128 204 128 225.5 165.5 c 128,-1,8
 247 203 247 203 258 230 c 1,9,-1
 270 256 l 1,10,11
 296 321 296 321 296 351 c 0,12,13
 296 372 296 372 281 372 c 0,14,15
 272 372 272 372 263 366 c 0,16,17
 231 346 231 346 174.5 263.5 c 128,-1,18
 118 181 118 181 78 108 c 1,19,-1
 37 36 l 2,0,1
250 498 m 0,20,21
 257 498 257 498 257 490 c 0,22,23
 257 476 257 476 240.5 436 c 128,-1,24
 224 396 224 396 208 364 c 2,25,-1
 191 331 l 2,26,27
 190 329 190 329 190 327 c 0,28,29
 190 324 190 324 192 324 c 128,-1,30
 194 324 194 324 198 328 c 1,31,32
 201 333 201 333 207 340 c 128,-1,33
 213 347 213 347 231 366.5 c 128,-1,34
 249 386 249 386 265.5 400.5 c 128,-1,35
 282 415 282 415 303.5 427 c 128,-1,36
 325 439 325 439 342 439 c 0,37,38
 381 439 381 439 381 375 c 0,39,40
 381 323 381 323 350 247 c 0,41,42
 350 245 350 245 338.5 219 c 128,-1,43
 327 193 327 193 302 152 c 128,-1,44
 277 111 277 111 245 72.5 c 128,-1,45
 213 34 213 34 165.5 6 c 128,-1,46
 118 -22 118 -22 68 -22 c 0,47,48
 54 -22 54 -22 42 -18.5 c 128,-1,49
 30 -15 30 -15 24 -11.5 c 128,-1,50
 18 -8 18 -8 16 -8 c 2,51,-1
 9 -12 l 1,52,53
 -18 -52 -18 -52 -77 -160 c 128,-1,54
 -136 -268 -136 -268 -171 -341 c 0,55,56
 -176 -350 -176 -350 -184 -365 c 128,-1,57
 -192 -380 -192 -380 -215 -419 c 128,-1,58
 -238 -458 -238 -458 -258.5 -487.5 c 128,-1,59
 -279 -517 -279 -517 -303.5 -541.5 c 128,-1,60
 -328 -566 -328 -566 -345 -566 c 0,61,62
 -355 -566 -355 -566 -355 -557 c 0,63,64
 -355 -530 -355 -530 -296.5 -418.5 c 128,-1,65
 -238 -307 -238 -307 -179 -208 c 2,66,-1
 -120 -110 l 1,67,68
 25 143 25 143 106 292 c 0,69,70
 108 296 108 296 112 303.5 c 128,-1,71
 116 311 116 311 128 332.5 c 128,-1,72
 140 354 140 354 151 373.5 c 128,-1,73
 162 393 162 393 177 416.5 c 128,-1,74
 192 440 192 440 205 457.5 c 128,-1,75
 218 475 218 475 230 486.5 c 128,-1,76
 242 498 242 498 250 498 c 0,20,21
EndSplineSet
EndChar

StartChar: q
Encoding: 113 113 84
Width: 377
GlyphClass: 2
Flags: W
LayerCount: 2
Fore
SplineSet
51 -307 m 0,0,1
 0 -408 0 -408 -41.5 -471.5 c 128,-1,2
 -83 -535 -83 -535 -104.5 -555 c 128,-1,3
 -126 -575 -126 -575 -139 -575 c 0,4,5
 -150 -575 -150 -575 -150 -563 c 0,6,7
 -150 -537 -150 -537 -112 -460.5 c 128,-1,8
 -74 -384 -74 -384 -36 -320 c 2,9,-1
 2 -257 l 1,10,-1
 106 -77 l 1,11,12
 97 -83 97 -83 30 -126 c 0,13,14
 28 -127 28 -127 25 -127 c 0,15,16
 19 -127 19 -127 19 -122 c 0,17,18
 19 -111 19 -111 42 -95 c 0,19,20
 88 -64 88 -64 130 -33 c 1,21,-1
 238 167 l 1,22,-1
 240 175 l 2,23,24
 240 178 240 178 238 178 c 1,25,-1
 227 170 l 1,26,27
 196 136 196 136 156 98 c 128,-1,28
 116 60 116 60 91 39 c 2,29,-1
 66 18 l 1,30,31
 33 -8 33 -8 13 -8 c 0,32,33
 -12 -8 -12 -8 -12 32 c 0,34,35
 -12 95 -12 95 38 188.5 c 128,-1,36
 88 282 88 282 172.5 358 c 128,-1,37
 257 434 257 434 338 434 c 0,38,39
 353 434 353 434 362.5 431 c 128,-1,40
 372 428 372 428 376 424.5 c 128,-1,41
 380 421 380 421 381 421 c 0,42,43
 383 421 383 421 386 424 c 0,44,45
 440 497 440 497 469 497 c 0,46,47
 478 497 478 497 478 486 c 0,48,49
 478 472 478 472 464 444 c 1,50,51
 353 246 353 246 329 206 c 0,52,53
 310 175 310 175 240 51 c 1,54,55
 379 164 379 164 472 272 c 0,56,57
 475 275 475 275 477 275 c 128,-1,58
 479 275 479 275 479 271 c 0,59,60
 479 252 479 252 464 234 c 0,61,62
 362 121 362 121 213 2 c 1,63,64
 142 -125 142 -125 51 -307 c 0,0,1
368 399 m 0,65,66
 369 401 369 401 369 403 c 0,67,68
 369 410 369 410 352 410 c 0,69,70
 305 410 305 410 241.5 343 c 128,-1,71
 178 276 178 276 135.5 202.5 c 128,-1,72
 93 129 93 129 93 102 c 0,73,74
 93 90 93 90 102 90 c 0,75,76
 115 90 115 90 135 106 c 0,77,78
 151 119 151 119 177 144 c 128,-1,79
 203 169 203 169 265.5 245.5 c 128,-1,80
 328 322 328 322 368 399 c 0,65,66
EndSplineSet
EndChar

StartChar: r
Encoding: 114 114 85
Width: 292
GlyphClass: 2
Flags: W
LayerCount: 2
Fore
SplineSet
251 207 m 0,0,1
 243 207 243 207 243 213 c 0,2,3
 243 216 243 216 246 221 c 0,4,5
 305 313 305 313 305 347 c 0,6,7
 305 356 305 356 298 356 c 0,8,9
 268 356 268 356 157 220 c 0,10,11
 124 178 124 178 95.5 133 c 128,-1,12
 67 88 67 88 56 64 c 1,13,-1
 44 41 l 2,14,15
 32 17 32 17 7 -3.5 c 128,-1,16
 -18 -24 -18 -24 -45 -24 c 0,17,18
 -59 -24 -59 -24 -59 -17 c 0,19,20
 -59 -11 -59 -11 -50.5 8 c 128,-1,21
 -42 27 -42 27 -30 50 c 128,-1,22
 -18 73 -18 73 -6 95 c 128,-1,23
 6 117 6 117 14 132 c 2,24,-1
 23 147 l 1,25,-1
 128 330 l 1,26,27
 189 445 189 445 256 445 c 0,28,29
 265 445 265 445 265 438 c 0,30,31
 265 429 265 429 221.5 363.5 c 128,-1,32
 178 298 178 298 171 280 c 0,33,34
 169 274 169 274 169 273 c 0,35,36
 169 271 169 271 171 271 c 128,-1,37
 173 271 173 271 178 276 c 0,38,39
 253 361 253 361 337 427 c 0,40,41
 342 432 342 432 359 441.5 c 128,-1,42
 376 451 376 451 389 451 c 0,43,44
 408 451 408 451 408 418 c 0,45,46
 408 382 408 382 384 332 c 128,-1,47
 360 282 360 282 319 244 c 1,48,-1
 315 240 l 2,49,50
 311 237 311 237 306.5 233.5 c 128,-1,51
 302 230 302 230 295 225 c 128,-1,52
 288 220 288 220 281 216.5 c 128,-1,53
 274 213 274 213 266 210 c 128,-1,54
 258 207 258 207 251 207 c 0,0,1
EndSplineSet
EndChar

StartChar: s
Encoding: 115 115 86
Width: 273
GlyphClass: 2
Flags: W
LayerCount: 2
Fore
SplineSet
236 114 m 0,0,1
 218 65 218 65 179 31.5 c 128,-1,2
 140 -2 140 -2 106.5 -14 c 128,-1,3
 73 -26 73 -26 46 -26 c 0,4,5
 -27 -26 -27 -26 -27 31 c 0,6,7
 -27 89 -27 89 37 136 c 0,8,9
 67 158 67 158 102 165 c 0,10,11
 107 165 107 165 107 161 c 0,12,13
 107 159 107 159 105 157 c 0,14,15
 80 138 80 138 57.5 98 c 128,-1,16
 35 58 35 58 35 28 c 128,-1,17
 35 -2 35 -2 60 -2 c 0,18,19
 80 -2 80 -2 99.5 14.5 c 128,-1,20
 119 31 119 31 129 48 c 2,21,-1
 139 64 l 2,22,23
 159 96 159 96 172.5 166 c 128,-1,24
 186 236 186 236 190 290 c 2,25,-1
 193 344 l 2,26,27
 193 352 193 352 190 352 c 1,28,-1
 186 350 l 1,29,-1
 87 234 l 2,30,31
 76 221 76 221 72 221 c 0,32,33
 67 221 67 221 67 228 c 0,34,35
 67 241 67 241 74 248 c 2,36,-1
 83 259 l 1,37,38
 197 387 197 387 213 414 c 1,39,40
 228 437 228 437 257 454 c 0,41,42
 285 470 285 470 323 470 c 0,43,44
 333 470 333 470 333 462 c 0,45,46
 333 457 333 457 325 453 c 0,47,48
 322 452 322 452 317.5 448.5 c 128,-1,49
 313 445 313 445 301.5 432 c 128,-1,50
 290 419 290 419 281 402 c 128,-1,51
 272 385 272 385 265 354.5 c 128,-1,52
 258 324 258 324 258 287 c 0,53,54
 258 172 258 172 236 114 c 0,0,1
EndSplineSet
EndChar

StartChar: t
Encoding: 116 116 87
Width: 190
GlyphClass: 2
Flags: W
LayerCount: 2
Fore
SplineSet
174 151 m 1,0,1
 216 193 216 193 285 272 c 0,2,3
 288 275 288 275 290 275 c 128,-1,4
 292 275 292 275 292 271 c 0,5,6
 292 252 292 252 277 234 c 0,7,8
 203 152 203 152 146 97 c 0,9,10
 26 -19 26 -19 -13 -19 c 0,11,12
 -27 -19 -27 -19 -27 -1 c 0,13,14
 -27 20 -27 20 -11 62 c 128,-1,15
 5 104 5 104 21 136 c 2,16,-1
 37 167 l 1,17,18
 60 208 60 208 113 307 c 128,-1,19
 166 406 166 406 215.5 494 c 128,-1,20
 265 582 265 582 309 653 c 1,21,-1
 230 653 l 2,22,23
 220 653 220 653 220 658 c 128,-1,24
 220 663 220 663 228 668 c 128,-1,25
 236 673 236 673 245 673 c 0,26,27
 267 673 267 673 322 674 c 1,28,29
 371 751 371 751 406 796 c 0,30,31
 437 835 437 835 449 835 c 0,32,33
 456 835 456 835 456 826 c 0,34,35
 456 805 456 805 418 736 c 2,36,-1
 384 674 l 1,37,-1
 487 674 l 2,38,39
 496 674 496 674 496 669 c 0,40,41
 496 653 496 653 467 653 c 2,42,-1
 373 653 l 1,43,44
 142 215 142 215 130 194 c 0,45,46
 88 117 88 117 88 94 c 0,47,48
 88 87 88 87 93 87 c 0,49,50
 107 87 107 87 174 151 c 1,0,1
EndSplineSet
EndChar

StartChar: u
Encoding: 117 117 88
Width: 371
GlyphClass: 2
Flags: W
LayerCount: 2
Fore
SplineSet
226 167 m 1,0,-1
 257 220 l 1,1,2
 257 223 257 223 255 223 c 128,-1,3
 253 223 253 223 250 220 c 0,4,5
 213 177 213 177 173 136.5 c 128,-1,6
 133 96 133 96 112 77 c 2,7,-1
 90 58 l 1,8,9
 12 -16 12 -16 -18 -16 c 0,10,11
 -32 -16 -32 -16 -32 2 c 0,12,13
 -32 22 -32 22 -15.5 63 c 128,-1,14
 1 104 1 104 18 136 c 2,15,-1
 34 167 l 1,16,17
 118 324 118 324 158 377 c 0,18,19
 178 403 178 403 207 420.5 c 128,-1,20
 236 438 236 438 252 438 c 0,21,22
 262 438 262 438 262 431 c 0,23,24
 262 427 262 427 258 420 c 0,25,26
 256 416 256 416 217 353.5 c 128,-1,27
 178 291 178 291 154 246 c 0,28,29
 88 125 88 125 88 107 c 0,30,31
 88 100 88 100 94 100 c 0,32,33
 103 100 103 100 125 118 c 0,34,35
 190 174 190 174 268 269 c 1,36,37
 311 315 311 315 358 389 c 0,38,39
 390 438 390 438 443 438 c 0,40,41
 452 438 452 438 452 430 c 1,42,-1
 444 411 l 1,43,44
 430 386 430 386 381.5 301.5 c 128,-1,45
 333 217 333 217 326 205 c 0,46,47
 285 133 285 133 285 110 c 0,48,49
 285 101 285 101 291 101 c 0,50,51
 301 101 301 101 355 151 c 1,52,53
 397 193 397 193 466 272 c 0,54,55
 469 275 469 275 471 275 c 128,-1,56
 473 275 473 275 473 271 c 0,57,58
 473 252 473 252 458 234 c 0,59,60
 384 152 384 152 327 97 c 0,61,62
 288 60 288 60 239.5 23 c 128,-1,63
 191 -14 191 -14 169 -14 c 0,64,65
 154 -14 154 -14 154 7 c 0,66,67
 154 19 154 19 172 59 c 128,-1,68
 190 99 190 99 208 133 c 2,69,-1
 226 167 l 1,0,-1
EndSplineSet
EndChar

StartChar: v
Encoding: 118 118 89
Width: 296
GlyphClass: 2
Flags: W
LayerCount: 2
Fore
SplineSet
418 463 m 0,0,1
 417 435 417 435 267 222 c 0,2,3
 264 218 264 218 264 216 c 0,4,5
 264 209 264 209 290 209 c 0,6,7
 339 209 339 209 399 280 c 0,8,9
 400 281 400 281 402 281 c 0,10,11
 407 281 407 281 407 271 c 0,12,13
 407 260 407 260 383 233 c 0,14,15
 340 185 340 185 278 185 c 0,16,17
 268 185 268 185 260 186.5 c 128,-1,18
 252 188 252 188 248 189.5 c 128,-1,19
 244 191 244 191 243 191 c 2,20,-1
 238 188 l 1,21,22
 182 120 182 120 135 69.5 c 128,-1,23
 88 19 88 19 68 2 c 2,24,-1
 49 -14 l 1,25,26
 33 -26 33 -26 24 -26 c 0,27,28
 12 -26 12 -26 12 -7 c 0,29,30
 12 59 12 59 64.5 204.5 c 128,-1,31
 117 350 117 350 140 387 c 0,32,33
 172 438 172 438 219 438 c 0,34,35
 226 438 226 438 226 431 c 0,36,37
 226 426 226 426 218 410 c 0,38,39
 131 229 131 229 110 101 c 1,40,41
 110 90 110 90 114 90 c 128,-1,42
 118 90 118 90 126 97 c 0,43,44
 169 128 169 128 223 205 c 0,45,46
 225 208 225 208 225 212 c 1,47,48
 221 221 221 221 221 236 c 0,49,50
 221 296 221 296 281.5 369.5 c 128,-1,51
 342 443 342 443 404 466 c 0,52,53
 410 468 410 468 412 468 c 0,54,55
 418 468 418 468 418 463 c 0,0,1
EndSplineSet
EndChar

StartChar: w
Encoding: 119 119 90
Width: 463
GlyphClass: 2
Flags: W
LayerCount: 2
Fore
SplineSet
405 188 m 1,0,1
 350 120 350 120 303.5 69.5 c 128,-1,2
 257 19 257 19 238 2 c 2,3,-1
 219 -14 l 2,4,5
 203 -27 203 -27 194 -27 c 0,6,7
 183 -27 183 -27 183 -9 c 0,8,9
 183 34 183 34 229 182 c 1,10,-1
 223 179 l 1,11,12
 172 116 172 116 127.5 67.5 c 128,-1,13
 83 19 83 19 64 2 c 2,14,-1
 45 -14 l 2,15,16
 29 -27 29 -27 20 -27 c 0,17,18
 9 -27 9 -27 9 -9 c 0,19,20
 9 41 9 41 53 174.5 c 128,-1,21
 97 308 97 308 139 387 c 0,22,23
 150 408 150 408 171 423 c 128,-1,24
 192 438 192 438 216 438 c 0,25,26
 223 438 223 438 223 432 c 128,-1,27
 223 426 223 426 215 410 c 0,28,29
 187 352 187 352 146 242.5 c 128,-1,30
 105 133 105 133 105 91 c 0,31,32
 105 86 105 86 107 86 c 0,33,34
 111 86 111 86 121 97 c 1,35,36
 133 108 133 108 152 127 c 128,-1,37
 171 146 171 146 210 194.5 c 128,-1,38
 249 243 249 243 265 280 c 2,39,-1
 313 387 l 1,40,41
 329 413 329 413 349.5 425.5 c 128,-1,42
 370 438 370 438 386 438 c 0,43,44
 398 438 398 438 398 432 c 0,45,46
 398 428 398 428 389 410 c 0,47,48
 302 229 302 229 280 101 c 0,49,50
 279 97 279 97 279 93 c 0,51,52
 279 87 279 87 282 87 c 0,53,54
 289 87 289 87 332 133.5 c 128,-1,55
 375 180 375 180 390 204 c 0,56,57
 392 208 392 208 392 212 c 1,58,59
 388 221 388 221 388 236 c 0,60,61
 388 296 388 296 448.5 369.5 c 128,-1,62
 509 443 509 443 571 466 c 0,63,64
 577 468 577 468 579 468 c 0,65,66
 585 468 585 468 585 463 c 0,67,68
 584 435 584 435 434 222 c 0,69,70
 431 218 431 218 431 216 c 0,71,72
 431 212 431 212 434 211 c 0,73,74
 446 205 446 205 458 205 c 0,75,76
 503 205 503 205 566 280 c 0,77,78
 568 282 568 282 569 282 c 0,79,80
 574 282 574 282 574 271 c 128,-1,81
 574 260 574 260 550 233 c 0,82,83
 506 183 506 183 449 183 c 0,84,85
 429 183 429 183 410 191 c 1,86,-1
 405 188 l 1,0,1
EndSplineSet
EndChar

StartChar: x
Encoding: 120 120 91
Width: 332
GlyphClass: 2
Flags: W
LayerCount: 2
Fore
SplineSet
253 63 m 1,0,1
 182 -5 182 -5 158 -5 c 0,2,3
 140 -5 140 -5 133 23 c 128,-1,4
 126 51 126 51 126 114 c 0,5,6
 126 147 126 147 130 215 c 1,7,8
 68 151 68 151 24.5 90 c 128,-1,9
 -19 29 -19 29 -32 0 c 2,10,-1
 -44 -28 l 1,11,12
 -50 -47 -50 -47 -59 -47 c 0,13,14
 -67 -47 -67 -47 -72.5 -27 c 128,-1,15
 -78 -7 -78 -7 -78 6 c 0,16,17
 -78 18 -78 18 -75 27.5 c 128,-1,18
 -72 37 -72 37 -69 40 c 2,19,-1
 -66 44 l 1,20,21
 29 145 29 145 132 245 c 1,22,23
 140 337 140 337 140 347 c 0,24,25
 140 355 140 355 139.5 362.5 c 128,-1,26
 139 370 139 370 138.5 375.5 c 128,-1,27
 138 381 138 381 137.5 386 c 128,-1,28
 137 391 137 391 136 394 c 128,-1,29
 135 397 135 397 134 399.5 c 128,-1,30
 133 402 133 402 132.5 403.5 c 128,-1,31
 132 405 132 405 131.5 406 c 128,-1,32
 131 407 131 407 130 408 c 0,33,34
 128 410 128 410 128 412 c 0,35,36
 128 424 128 424 151 439.5 c 128,-1,37
 174 455 174 455 190 455 c 128,-1,38
 206 455 206 455 206 415 c 0,39,40
 206 381 206 381 202 311 c 1,41,42
 307 409 307 409 357 437 c 1,43,44
 381 449 381 449 389 449 c 0,45,46
 401 449 401 449 408 426 c 128,-1,47
 415 403 415 403 415 387 c 0,48,49
 415 380 415 380 410 379 c 0,50,51
 406 379 406 379 396.5 389 c 128,-1,52
 387 399 387 399 375 399 c 0,53,54
 355 399 355 399 326.5 383 c 128,-1,55
 298 367 298 367 279 351 c 2,56,-1
 260 335 l 2,57,58
 223 305 223 305 200 283 c 1,59,60
 197 238 197 238 197 194 c 0,61,62
 197 72 197 72 226 72 c 0,63,64
 241 72 241 72 324 159 c 0,65,66
 368 205 368 205 427 272 c 0,67,68
 430 275 430 275 432 275 c 128,-1,69
 434 275 434 275 434 271 c 0,70,71
 434 252 434 252 419 234 c 0,72,73
 332 137 332 137 253 63 c 1,0,1
EndSplineSet
EndChar

StartChar: y
Encoding: 121 121 92
Width: 359
GlyphClass: 2
Flags: W
LayerCount: 2
Fore
SplineSet
215 142 m 2,0,-1
 257 224 l 1,1,2
 257 227 257 227 255 227 c 128,-1,3
 253 227 253 227 250 224 c 0,4,5
 213 181 213 181 172 139.5 c 128,-1,6
 131 98 131 98 109 78 c 2,7,-1
 87 58 l 1,8,9
 12 -13 12 -13 -19 -13 c 0,10,11
 -33 -13 -33 -13 -33 5 c 0,12,13
 -33 25 -33 25 -17 65.5 c 128,-1,14
 -1 106 -1 106 15 136 c 2,15,-1
 31 167 l 1,16,17
 115 324 115 324 155 377 c 0,18,19
 175 403 175 403 204 420.5 c 128,-1,20
 233 438 233 438 249 438 c 0,21,22
 259 438 259 438 259 431 c 0,23,24
 259 427 259 427 255 420 c 0,25,26
 253 416 253 416 214 353.5 c 128,-1,27
 175 291 175 291 151 246 c 0,28,29
 85 125 85 125 85 107 c 0,30,31
 85 100 85 100 91 100 c 0,32,33
 100 100 100 100 122 118 c 0,34,35
 187 174 187 174 265 269 c 1,36,37
 308 315 308 315 355 389 c 0,38,39
 368 409 368 409 393.5 423.5 c 128,-1,40
 419 438 419 438 440 438 c 0,41,42
 449 438 449 438 449 430 c 1,43,-1
 441 411 l 1,44,45
 427 386 427 386 378.5 301.5 c 128,-1,46
 330 217 330 217 324 206 c 0,47,48
 316 191 316 191 287.5 141.5 c 128,-1,49
 259 92 259 92 247 71 c 1,50,51
 310 122 310 122 351 159 c 1,52,53
 395 205 395 205 454 272 c 0,54,55
 457 275 457 275 459 275 c 128,-1,56
 461 275 461 275 461 271 c 0,57,58
 461 252 461 252 446 234 c 1,59,60
 402 186 402 186 370 152 c 0,61,62
 328 108 328 108 220 24 c 1,63,-1
 194 -24 l 2,64,65
 1 -379 1 -379 -72 -486 c 0,66,67
 -79 -497 -79 -497 -90 -512.5 c 128,-1,68
 -101 -528 -101 -528 -126 -554.5 c 128,-1,69
 -151 -581 -151 -581 -166 -581 c 0,70,71
 -190 -581 -190 -581 -190 -512 c 0,72,73
 -190 -410 -190 -410 -117 -290 c 0,74,75
 -38 -161 -38 -161 127 -25 c 1,76,77
 160 35 160 35 215 142 c 2,0,-1
-92 -288 m 0,78,79
 -100 -300 -100 -300 -111 -319.5 c 128,-1,80
 -122 -339 -122 -339 -141 -386.5 c 128,-1,81
 -160 -434 -160 -434 -160 -466 c 0,82,83
 -160 -483 -160 -483 -154 -483 c 0,84,85
 -149 -483 -149 -483 -139 -473.5 c 128,-1,86
 -129 -464 -129 -464 -122 -454 c 2,87,-1
 -115 -444 l 1,88,89
 -16 -289 -16 -289 100 -74 c 1,90,91
 -30 -188 -30 -188 -92 -288 c 0,78,79
EndSplineSet
EndChar

StartChar: z
Encoding: 122 122 93
Width: 327
GlyphClass: 2
Flags: W
LayerCount: 2
Fore
SplineSet
447 418 m 0,0,1
 431 400 431 400 384 356 c 128,-1,2
 337 312 337 312 298 277 c 2,3,-1
 259 242 l 2,4,5
 202 192 202 192 154 141 c 128,-1,6
 106 90 106 90 86 64 c 2,7,-1
 67 38 l 2,8,9
 63 31 63 31 63 26 c 0,10,11
 63 17 63 17 95 17 c 0,12,13
 152 17 152 17 214 77 c 1,14,15
 289 152 289 152 306 152 c 0,16,17
 311 152 311 152 311 143 c 1,18,19
 268 49 268 49 245 21 c 0,20,21
 228 -1 228 -1 203 -4 c 0,22,23
 184 -7 184 -7 133 -7 c 0,24,25
 113 -7 113 -7 91 -6.5 c 128,-1,26
 69 -6 69 -6 53.5 -5.5 c 128,-1,27
 38 -5 38 -5 35 -5 c 0,28,29
 22 -5 22 -5 11.5 -7 c 128,-1,30
 1 -9 1 -9 -3 -11 c 2,31,-1
 -7 -13 l 1,32,33
 -43 -35 -43 -35 -57 -35 c 0,34,35
 -65 -35 -65 -35 -65 -27 c 0,36,37
 -65 -2 -65 -2 -30.5 44.5 c 128,-1,38
 4 91 4 91 52 138 c 128,-1,39
 100 185 100 185 131.5 214.5 c 128,-1,40
 163 244 163 244 175 253 c 0,41,42
 229 298 229 298 289.5 351.5 c 128,-1,43
 350 405 350 405 350 409 c 0,44,45
 350 415 350 415 333 415 c 0,46,47
 234 414 234 414 146 319 c 0,48,49
 145 318 145 318 140 318 c 0,50,51
 127 318 127 318 127 323 c 0,52,53
 127 325 127 325 140.5 344 c 128,-1,54
 154 363 154 363 170 386.5 c 128,-1,55
 186 410 186 410 190 419 c 1,56,57
 198 430 198 430 211 431 c 0,58,59
 295 436 295 436 370 436 c 0,60,61
 421 436 421 436 441 434 c 0,62,63
 452 433 452 433 452 427 c 0,64,65
 452 425 452 425 447 418 c 0,0,1
EndSplineSet
EndChar

StartChar: braceleft
Encoding: 123 123 94
Width: 186
GlyphClass: 2
Flags: W
LayerCount: 2
Fore
SplineSet
47 -42 m 0,0,1
 47 -53 47 -53 39 -53 c 0,2,3
 22 -53 22 -53 11 -23 c 128,-1,4
 0 7 0 7 0 27 c 0,5,6
 0 71 0 71 34 131 c 128,-1,7
 68 191 68 191 102 248.5 c 128,-1,8
 136 306 136 306 136 344 c 0,9,10
 136 354 136 354 134 362 c 128,-1,11
 132 370 132 370 130 373 c 2,12,-1
 128 376 l 2,13,14
 125 382 125 382 125 385 c 0,15,16
 125 389 125 389 128.5 391.5 c 128,-1,17
 132 394 132 394 136 395 c 2,18,-1
 139 396 l 1,19,20
 168 400 168 400 187.5 419 c 128,-1,21
 207 438 207 438 238 489 c 0,22,23
 256 518 256 518 283.5 568.5 c 128,-1,24
 311 619 311 619 328 647 c 128,-1,25
 345 675 345 675 370.5 707.5 c 128,-1,26
 396 740 396 740 427 757 c 128,-1,27
 458 774 458 774 497 779 c 1,28,29
 512 777 512 777 512 771 c 0,30,31
 512 767 512 767 502 761 c 1,32,33
 500 761 500 761 496.5 760 c 128,-1,34
 493 759 493 759 478.5 746 c 128,-1,35
 464 733 464 733 446.5 711 c 128,-1,36
 429 689 429 689 399 640.5 c 128,-1,37
 369 592 369 592 335 525 c 0,38,39
 333 520 333 520 328.5 511.5 c 128,-1,40
 324 503 324 503 308.5 480.5 c 128,-1,41
 293 458 293 458 275.5 440 c 128,-1,42
 258 422 258 422 230 404.5 c 128,-1,43
 202 387 202 387 172 381 c 1,44,45
 161 381 161 381 161 374 c 0,46,47
 161 370 161 370 166 365 c 0,48,49
 188 343 188 343 188 305 c 0,50,51
 188 270 188 270 152 210.5 c 128,-1,52
 116 151 116 151 80.5 87.5 c 128,-1,53
 45 24 45 24 45 -22 c 0,54,55
 45 -28 45 -28 46 -34 c 128,-1,56
 47 -40 47 -40 47 -42 c 0,0,1
EndSplineSet
EndChar

StartChar: bar
Encoding: 124 124 95
Width: 243
GlyphClass: 2
Flags: W
LayerCount: 2
Fore
SplineSet
472 780 m 1,0,-1
 471 776 l 1,1,-1
 28 -16 l 2,2,3
 18 -33 18 -33 -12 -33 c 0,4,5
 -22 -33 -22 -33 -22 -27 c 1,6,-1
 -20 -20 l 1,7,8
 394 721 394 721 424 771 c 0,9,10
 435 790 435 790 452 790 c 0,11,12
 472 790 472 790 472 780 c 1,0,-1
EndSplineSet
EndChar

StartChar: braceright
Encoding: 125 125 96
Width: 237
GlyphClass: 2
Flags: W
LayerCount: 2
Fore
SplineSet
399 768 m 0,0,1
 399 779 399 779 407 779 c 0,2,3
 424 779 424 779 435 749 c 128,-1,4
 446 719 446 719 446 699 c 0,5,6
 446 655 446 655 412 595 c 128,-1,7
 378 535 378 535 344 477.5 c 128,-1,8
 310 420 310 420 310 382 c 0,9,10
 310 372 310 372 312 364 c 128,-1,11
 314 356 314 356 316 353 c 2,12,-1
 318 350 l 2,13,14
 321 344 321 344 321 341 c 0,15,16
 321 337 321 337 317.5 334.5 c 128,-1,17
 314 332 314 332 310 331 c 2,18,-1
 307 330 l 1,19,20
 278 326 278 326 258.5 307 c 128,-1,21
 239 288 239 288 208 237 c 0,22,23
 190 208 190 208 162.5 157.5 c 128,-1,24
 135 107 135 107 118 79 c 128,-1,25
 101 51 101 51 75.5 18.5 c 128,-1,26
 50 -14 50 -14 19 -31 c 128,-1,27
 -12 -48 -12 -48 -51 -53 c 1,28,29
 -66 -51 -66 -51 -66 -45 c 0,30,31
 -66 -41 -66 -41 -56 -35 c 1,32,33
 -54 -35 -54 -35 -50.5 -34 c 128,-1,34
 -47 -33 -47 -33 -32.5 -20 c 128,-1,35
 -18 -7 -18 -7 -0.5 15 c 128,-1,36
 17 37 17 37 47 85.5 c 128,-1,37
 77 134 77 134 111 201 c 0,38,39
 113 206 113 206 117.5 214.5 c 128,-1,40
 122 223 122 223 137.5 245.5 c 128,-1,41
 153 268 153 268 170.5 286 c 128,-1,42
 188 304 188 304 216 321.5 c 128,-1,43
 244 339 244 339 274 345 c 1,44,45
 285 345 285 345 285 352 c 0,46,47
 285 356 285 356 280 361 c 0,48,49
 258 383 258 383 258 421 c 0,50,51
 258 456 258 456 294 515.5 c 128,-1,52
 330 575 330 575 365.5 638.5 c 128,-1,53
 401 702 401 702 401 748 c 0,54,55
 401 754 401 754 400 760 c 128,-1,56
 399 766 399 766 399 768 c 0,0,1
EndSplineSet
EndChar

StartChar: asciitilde
Encoding: 126 126 97
Width: 397
GlyphClass: 2
Flags: W
LayerCount: 2
Fore
SplineSet
390 255 m 0,0,1
 357 196 357 196 314 196 c 0,2,3
 295 196 295 196 243.5 213 c 128,-1,4
 192 230 192 230 175 230 c 0,5,6
 168 230 168 230 157 227 c 0,7,8
 154 226 154 226 150 226 c 0,9,10
 144 226 144 226 144 230 c 0,11,12
 144 242 144 242 165 252 c 128,-1,13
 186 262 186 262 208 262 c 0,14,15
 222 262 222 262 272.5 255.5 c 128,-1,16
 323 249 323 249 336 249 c 0,17,18
 360 249 360 249 380 263 c 0,19,20
 381 264 381 264 384 264 c 0,21,22
 391 264 391 264 391 258 c 0,23,24
 391 256 391 256 390 255 c 0,0,1
EndSplineSet
EndChar

StartChar: exclamdown
Encoding: 161 161 98
Width: 222
GlyphClass: 2
Flags: W
LayerCount: 2
Fore
SplineSet
247 360 m 128,-1,1
 219 360 219 360 219 394 c 0,2,3
 219 424 219 424 241 451.5 c 128,-1,4
 263 479 263 479 290 479 c 0,5,6
 320 479 320 479 320 445 c 0,7,8
 320 415 320 415 297.5 387.5 c 128,-1,0
 275 360 275 360 247 360 c 128,-1,1
78 15 m 0,9,10
 58 -30 58 -30 27 -91.5 c 128,-1,11
 -4 -153 -4 -153 -26 -192 c 2,12,-1
 -47 -231 l 2,13,14
 -69 -272 -69 -272 -125 -272 c 0,15,16
 -152 -272 -152 -272 -152 -257 c 0,17,18
 -152 -254 -152 -254 -150 -248 c 0,19,20
 -142 -227 -142 -227 -116.5 -184.5 c 128,-1,21
 -91 -142 -91 -142 -47 -74 c 128,-1,22
 -3 -6 -3 -6 21 34 c 2,23,-1
 170 277 l 1,24,25
 180 288 180 288 202 288 c 0,26,27
 214 288 214 288 214 279 c 0,28,29
 214 275 214 275 211 269 c 0,30,31
 124 116 124 116 78 15 c 0,9,10
EndSplineSet
EndChar

StartChar: cent
Encoding: 162 162 99
Width: 301
GlyphClass: 2
Flags: W
LayerCount: 2
Fore
SplineSet
244 97 m 1,0,1
 165 23 165 23 98 -7 c 1,2,-1
 73 -52 l 2,3,4
 69 -60 69 -60 64.5 -64 c 128,-1,5
 60 -68 60 -68 58 -68 c 2,6,-1
 55 -68 l 2,7,8
 44 -68 44 -68 44 -61 c 0,9,10
 44 -59 44 -59 46 -55 c 0,11,12
 53 -40 53 -40 65 -19 c 1,13,14
 53 -21 53 -21 47 -21 c 0,15,16
 1 -21 1 -21 1 50 c 0,17,18
 1 159 1 159 105 288.5 c 128,-1,19
 209 418 209 418 317 436 c 1,20,-1
 335 466 l 2,21,22
 343 479 343 479 356 479 c 0,23,24
 364 479 364 479 364 471 c 0,25,26
 364 470 364 470 362 464 c 0,27,28
 360 460 360 460 348 438 c 1,29,30
 382 436 382 436 382 409 c 0,31,32
 382 359 382 359 317 296 c 0,33,34
 311 290 311 290 291 275 c 128,-1,35
 271 260 271 260 263 260 c 0,36,37
 258 260 258 260 258 265 c 1,38,-1
 261 274 l 1,39,40
 301 345 301 345 301 382 c 0,41,42
 301 402 301 402 288 402 c 0,43,44
 257 402 257 402 209.5 341.5 c 128,-1,45
 162 281 162 281 127 203.5 c 128,-1,46
 92 126 92 126 92 81 c 0,47,48
 92 58 92 58 103 49 c 1,49,50
 158 151 158 151 176 179 c 0,51,52
 188 197 188 197 199 197 c 0,53,54
 206 197 206 197 206 192 c 0,55,56
 206 190 206 190 204 186 c 2,57,-1
 128 46 l 1,58,59
 171 53 171 53 231 110 c 0,60,61
 284 159 284 159 383 272 c 0,62,63
 386 275 386 275 388 275 c 128,-1,64
 390 275 390 275 390 271 c 0,65,66
 390 252 390 252 375 234 c 0,67,68
 301 152 301 152 244 97 c 1,0,1
EndSplineSet
EndChar

StartChar: sterling
Encoding: 163 163 100
Width: 419
GlyphClass: 2
Flags: W
LayerCount: 2
Fore
SplineSet
419 344 m 0,0,1
 413 343 413 343 262 343 c 1,2,3
 143 114 143 114 111 30 c 0,4,5
 110 27 110 27 110 24 c 0,6,7
 110 7 110 7 145 7 c 0,8,9
 213 7 213 7 271 51 c 1,10,11
 357 120 357 120 425 208 c 1,12,13
 433 216 433 216 441 216 c 128,-1,14
 449 216 449 216 449 206 c 128,-1,15
 449 196 449 196 438 171 c 0,16,17
 373 30 373 30 339 -2 c 0,18,19
 329 -12 329 -12 314 -14 c 0,20,21
 253 -22 253 -22 128 -22 c 1,22,-1
 11 -20 l 2,23,24
 -4 -19 -4 -19 -4 -6 c 1,25,-1
 -2 4 l 1,26,27
 59 153 59 153 164 343 c 1,28,-1
 108 343 l 2,29,30
 92 343 92 343 92 350 c 128,-1,31
 92 357 92 357 102.5 364.5 c 128,-1,32
 113 372 113 372 121 372 c 0,33,34
 145 372 145 372 181 373 c 1,35,-1
 204 413 l 1,36,-1
 147 413 l 2,37,38
 131 413 131 413 131 420 c 128,-1,39
 131 427 131 427 141.5 434.5 c 128,-1,40
 152 442 152 442 160 442 c 0,41,42
 184 442 184 442 221 443 c 1,43,44
 275 533 275 533 324 604 c 0,45,46
 415 736 415 736 443 758 c 0,47,48
 456 769 456 769 467 769 c 0,49,50
 475 769 475 769 475 760 c 0,51,52
 475 744 475 744 448 689 c 128,-1,53
 421 634 421 634 401 600 c 1,54,55
 364 533 364 533 316 444 c 1,56,-1
 417 444 l 2,57,58
 442 444 442 444 455 444 c 128,-1,59
 468 444 468 444 475 443 c 128,-1,60
 482 442 482 442 483 441 c 128,-1,61
 484 440 484 440 484 437 c 0,62,63
 484 431 484 431 476 423.5 c 128,-1,64
 468 416 468 416 458 414 c 0,65,66
 452 413 452 413 299 413 c 1,67,-1
 278 374 l 1,68,-1
 378 374 l 2,69,70
 403 374 403 374 416 374 c 128,-1,71
 429 374 429 374 436 373 c 128,-1,72
 443 372 443 372 444 371 c 128,-1,73
 445 370 445 370 445 367 c 0,74,75
 445 361 445 361 437 353.5 c 128,-1,76
 429 346 429 346 419 344 c 0,0,1
EndSplineSet
EndChar

StartChar: currency
Encoding: 164 164 101
Width: 410
GlyphClass: 2
Flags: W
LayerCount: 2
Fore
SplineSet
280 252 m 0,0,1
 252 252 252 252 230 263 c 1,2,-1
 201 233 l 2,3,4
 187 219 187 219 152 219 c 0,5,6
 141 219 141 219 141 223 c 1,7,-1
 146 232 l 1,8,9
 166 253 166 253 200 288 c 1,10,11
 182 310 182 310 182 346 c 0,12,13
 182 410 182 410 238 461 c 1,14,-1
 223 533 l 1,15,16
 223 547 223 547 243 547 c 0,17,18
 258 547 258 547 263 528 c 0,19,20
 264 526 264 526 273 487 c 1,21,22
 312 508 312 508 349 508 c 0,23,24
 379 508 379 508 400 496 c 1,25,-1
 426 522 l 2,26,27
 445 541 445 541 462 541 c 0,28,29
 485 541 485 541 485 531 c 0,30,31
 485 528 485 528 482 525 c 2,32,-1
 429 470 l 1,33,34
 446 447 446 447 446 413 c 0,35,36
 446 342 446 342 383 291 c 1,37,-1
 397 229 l 1,38,39
 397 217 397 217 383 217 c 0,40,41
 358 217 358 217 355 232 c 1,42,43
 351 244 351 244 346 268 c 1,44,45
 315 252 315 252 280 252 c 0,0,1
406 403 m 0,46,47
 406 433 406 433 387.5 453 c 128,-1,48
 369 473 369 473 339 473 c 0,49,50
 295 473 295 473 258.5 437 c 128,-1,51
 222 401 222 401 222 356 c 0,52,53
 222 326 222 326 241 306 c 128,-1,54
 260 286 260 286 289 286 c 0,55,56
 335 286 335 286 370.5 322.5 c 128,-1,57
 406 359 406 359 406 403 c 0,46,47
EndSplineSet
EndChar

StartChar: yen
Encoding: 165 165 102
Width: 451
GlyphClass: 2
Flags: W
LayerCount: 2
Fore
SplineSet
429 322 m 0,0,1
 426 321 426 321 318 321 c 1,2,-1
 316 317 l 1,3,4
 196 102 196 102 161 35 c 128,-1,5
 126 -32 126 -32 45 -32 c 0,6,7
 28 -32 28 -32 28 -22 c 1,8,-1
 32 -11 l 1,9,10
 118 118 118 118 221 321 c 1,11,-1
 118 321 l 2,12,13
 103 321 103 321 103 327 c 0,14,15
 103 335 103 335 112.5 342.5 c 128,-1,16
 122 350 122 350 131 350 c 2,17,-1
 234 350 l 1,18,19
 243 371 243 371 248 392 c 1,20,-1
 160 392 l 2,21,22
 145 392 145 392 145 398 c 0,23,24
 145 406 145 406 154.5 413.5 c 128,-1,25
 164 421 164 421 173 421 c 2,26,-1
 254 421 l 1,27,28
 269 510 269 510 269 616 c 0,29,30
 269 640 269 640 263 736 c 0,31,32
 263 739 263 739 262.5 743 c 128,-1,33
 262 747 262 747 262 748 c 0,34,35
 262 765 262 765 290.5 773 c 128,-1,36
 319 781 319 781 340 781 c 0,37,38
 356 781 356 781 356 754 c 1,39,40
 358 725 358 725 358 677 c 0,41,42
 358 543 358 543 339 427 c 0,43,44
 339 421 339 421 345 421 c 0,45,46
 349 421 349 421 352 423 c 1,47,48
 502 614 502 614 602 712 c 0,49,50
 685 792 685 792 769 792 c 0,51,52
 781 792 781 792 781 784 c 128,-1,53
 781 776 781 776 770 765 c 128,-1,54
 759 754 759 754 737.5 738 c 128,-1,55
 716 722 716 722 687.5 700.5 c 128,-1,56
 659 679 659 679 643 666 c 0,57,58
 628 655 628 655 603 635 c 128,-1,59
 578 615 578 615 511.5 551.5 c 128,-1,60
 445 488 445 488 392 422 c 1,61,-1
 486 422 l 2,62,63
 497 422 497 422 497 416 c 128,-1,64
 497 410 497 410 489 402.5 c 128,-1,65
 481 395 481 395 471 393 c 0,66,67
 468 392 468 392 368 392 c 1,68,-1
 338 351 l 1,69,-1
 441 351 l 2,70,71
 455 351 455 351 455 344 c 0,72,73
 455 338 455 338 447 330.5 c 128,-1,74
 439 323 439 323 429 322 c 0,0,1
EndSplineSet
EndChar

StartChar: brokenbar
Encoding: 166 166 103
Width: 243
GlyphClass: 2
Flags: W
LayerCount: 2
Fore
SplineSet
212 311 m 1,0,-1
 211 307 l 1,1,-1
 28 -16 l 2,2,3
 18 -33 18 -33 -12 -33 c 0,4,5
 -22 -33 -22 -33 -22 -27 c 1,6,-1
 -20 -20 l 1,7,8
 134 252 134 252 164 302 c 0,9,10
 175 321 175 321 192 321 c 0,11,12
 212 321 212 321 212 311 c 1,0,-1
471 779 m 1,13,-1
 470 775 l 1,14,-1
 287 452 l 2,15,16
 277 435 277 435 247 435 c 0,17,18
 237 435 237 435 237 441 c 1,19,-1
 239 448 l 1,20,21
 393 720 393 720 423 770 c 0,22,23
 434 789 434 789 451 789 c 0,24,25
 471 789 471 789 471 779 c 1,13,-1
EndSplineSet
EndChar

StartChar: section
Encoding: 167 167 104
Width: 444
GlyphClass: 2
Flags: W
LayerCount: 2
Fore
SplineSet
11 -10 m 0,0,1
 5 -9 5 -9 5 -1 c 0,2,3
 5 2 5 2 7.5 4 c 128,-1,4
 10 6 10 6 13 7 c 2,5,-1
 16 8 l 1,6,7
 47 12 47 12 84 23 c 128,-1,8
 121 34 121 34 158.5 51 c 128,-1,9
 196 68 196 68 220.5 94.5 c 128,-1,10
 245 121 245 121 245 151 c 0,11,12
 245 176 245 176 225.5 205.5 c 128,-1,13
 206 235 206 235 183 257.5 c 128,-1,14
 160 280 160 280 140.5 308.5 c 128,-1,15
 121 337 121 337 121 362 c 0,16,17
 121 384 121 384 138 405 c 128,-1,18
 155 426 155 426 179.5 440.5 c 128,-1,19
 204 455 204 455 235 468.5 c 128,-1,20
 266 482 266 482 290.5 489.5 c 128,-1,21
 315 497 315 497 336 502 c 1,22,-1
 356 508 l 2,23,24
 364 511 364 511 364 513 c 1,25,-1
 360 517 l 2,26,27
 355 522 355 522 339 537 c 128,-1,28
 323 552 323 552 315 560.5 c 128,-1,29
 307 569 307 569 299.5 584 c 128,-1,30
 292 599 292 599 292 613 c 0,31,32
 292 656 292 656 341 689.5 c 128,-1,33
 390 723 390 723 445.5 736.5 c 128,-1,34
 501 750 501 750 544 750 c 0,35,36
 560 750 560 750 575 748.5 c 128,-1,37
 590 747 590 747 597 746 c 2,38,-1
 604 744 l 1,39,40
 613 739 613 739 613 733 c 0,41,42
 613 730 613 730 610.5 727.5 c 128,-1,43
 608 725 608 725 605 724 c 2,44,-1
 602 723 l 1,45,46
 577 723 577 723 543.5 717.5 c 128,-1,47
 510 712 510 712 473 701.5 c 128,-1,48
 436 691 436 691 411 670.5 c 128,-1,49
 386 650 386 650 386 624 c 0,50,51
 386 606 386 606 408 583 c 128,-1,52
 430 560 430 560 457 540 c 128,-1,53
 484 520 484 520 506 490 c 128,-1,54
 528 460 528 460 528 431 c 0,55,56
 528 405 528 405 502 377.5 c 128,-1,57
 476 350 476 350 434 326.5 c 128,-1,58
 392 303 392 303 362.5 289.5 c 128,-1,59
 333 276 333 276 303 264 c 0,60,61
 297 262 297 262 297 258 c 0,62,63
 297 256 297 256 300 253 c 0,64,65
 348 204 348 204 348 161 c 0,66,67
 348 112 348 112 293.5 70 c 128,-1,68
 239 28 239 28 170 7.5 c 128,-1,69
 101 -13 101 -13 45 -13 c 0,70,71
 26 -13 26 -13 11 -10 c 0,0,1
277 284 m 1,72,73
 434 337 434 337 434 410 c 0,74,75
 434 437 434 437 396 477 c 1,76,77
 390 485 390 485 376 485 c 1,78,79
 341 482 341 482 281.5 456 c 128,-1,80
 222 430 222 430 206 385 c 0,81,82
 205 382 205 382 205 378 c 0,83,84
 205 355 205 355 234.5 319.5 c 128,-1,85
 264 284 264 284 277 284 c 1,72,73
EndSplineSet
EndChar

StartChar: dieresis
Encoding: 168 168 105
Width: 370
GlyphClass: 2
Flags: W
LayerCount: 2
Fore
SplineSet
282 505 m 0,0,1
 257 505 257 505 257 533 c 0,2,3
 257 558 257 558 277 580.5 c 128,-1,4
 297 603 297 603 318 603 c 0,5,6
 343 603 343 603 343 576 c 0,7,8
 343 551 343 551 324 528 c 128,-1,9
 305 505 305 505 282 505 c 0,0,1
443 505 m 0,10,11
 418 505 418 505 418 533 c 0,12,13
 418 559 418 559 438 581 c 128,-1,14
 458 603 458 603 480 603 c 0,15,16
 504 603 504 603 504 575 c 0,17,18
 504 550 504 550 485 527.5 c 128,-1,19
 466 505 466 505 443 505 c 0,10,11
EndSplineSet
EndChar

StartChar: copyright
Encoding: 169 169 106
Width: 407
GlyphClass: 2
Flags: W
LayerCount: 2
Fore
SplineSet
205 116 m 0,0,1
 151 116 151 116 117.5 148.5 c 128,-1,2
 84 181 84 181 84 232 c 0,3,4
 84 309 84 309 149 370.5 c 128,-1,5
 214 432 214 432 290 432 c 0,6,7
 344 432 344 432 377 399 c 128,-1,8
 410 366 410 366 410 315 c 0,9,10
 410 237 410 237 345.5 176.5 c 128,-1,11
 281 116 281 116 205 116 c 0,0,1
387 310 m 0,12,13
 387 356 387 356 359 386 c 128,-1,14
 331 416 331 416 286 416 c 0,15,16
 218 416 218 416 163 361 c 128,-1,17
 108 306 108 306 108 237 c 0,18,19
 108 192 108 192 136 162 c 128,-1,20
 164 132 164 132 209 132 c 0,21,22
 279 132 279 132 333 187 c 128,-1,23
 387 242 387 242 387 310 c 0,12,13
285 236 m 0,24,25
 269 209 269 209 241.5 185.5 c 128,-1,26
 214 162 214 162 188 162 c 0,27,28
 165 162 165 162 165 196 c 0,29,30
 165 239 165 239 190 286 c 128,-1,31
 215 333 215 333 254 363 c 0,32,33
 276 379 276 379 298 379 c 0,34,35
 303 379 303 379 311 377 c 1,36,-1
 312 376 l 1,37,38
 315 376 315 376 315 378 c 1,39,40
 321 383 321 383 334 383 c 2,41,-1
 336 383 l 2,42,43
 340 383 340 383 340 379 c 0,44,45
 340 370 340 370 317.5 341 c 128,-1,46
 295 312 295 312 286 312 c 0,47,48
 284 312 284 312 284 314 c 0,49,50
 284 323 284 323 300 352 c 0,51,52
 307 366 307 366 307 367 c 0,53,54
 307 372 307 372 300 372 c 0,55,56
 294 372 294 372 286.5 368 c 128,-1,57
 279 364 279 364 275 360 c 2,58,-1
 271 357 l 1,59,60
 242 330 242 330 218.5 286.5 c 128,-1,61
 195 243 195 243 195 207 c 0,62,63
 195 181 195 181 211 181 c 0,64,65
 243 181 243 181 273 238 c 1,66,67
 286 266 286 266 287 266 c 0,68,69
 291 266 291 266 291 257 c 0,70,71
 291 245 291 245 285 236 c 0,24,25
EndSplineSet
EndChar

StartChar: ordfeminine
Encoding: 170 170 107
Width: 344
GlyphClass: 2
Flags: W
LayerCount: 2
Fore
SplineSet
314 418 m 0,0,1
 256 365 256 365 234 365 c 0,2,3
 225 365 225 365 225 376 c 0,4,5
 225 390 225 390 237.5 418.5 c 128,-1,6
 250 447 250 447 262 469 c 2,7,-1
 274 491 l 1,8,-1
 276 499 l 1,9,10
 273 499 273 499 265 491 c 0,11,12
 244 467 244 467 217 441 c 128,-1,13
 190 415 190 415 174 401 c 2,14,-1
 157 387 l 2,15,16
 131 366 131 366 115 366 c 0,17,18
 100 366 100 366 100 389 c 0,19,20
 100 402 100 402 106.5 426.5 c 128,-1,21
 113 451 113 451 117 459 c 0,22,23
 152 545 152 545 222 613.5 c 128,-1,24
 292 682 292 682 381 682 c 0,25,26
 421 682 421 682 421 670 c 0,27,28
 421 663 421 663 403 663 c 0,29,30
 339 663 339 663 283 608.5 c 128,-1,31
 227 554 227 554 191 482 c 1,32,33
 181 452 181 452 181 449 c 0,34,35
 181 441 181 441 186 441 c 0,36,37
 195 441 195 441 208 453 c 0,38,39
 286 519 286 519 328 588 c 0,40,41
 331 593 331 593 336.5 601 c 128,-1,42
 342 609 342 609 359.5 622 c 128,-1,43
 377 635 377 635 393 635 c 0,44,45
 402 635 402 635 402 630 c 0,46,47
 402 627 402 627 400 625 c 0,48,49
 397 619 397 619 384.5 597.5 c 128,-1,50
 372 576 372 576 360.5 555 c 128,-1,51
 349 534 349 534 336.5 511.5 c 128,-1,52
 324 489 324 489 316.5 472 c 128,-1,53
 309 455 309 455 309 449 c 0,54,55
 309 445 309 445 313 445 c 128,-1,56
 317 445 317 445 325 450.5 c 128,-1,57
 333 456 333 456 340 462 c 128,-1,58
 347 468 347 468 355 476 c 128,-1,59
 363 484 363 484 364 485 c 0,60,61
 369 491 369 491 394 517.5 c 128,-1,62
 419 544 419 544 436 564 c 0,63,64
 438 567 438 567 440 567 c 1,65,66
 441 566 441 566 441 564 c 0,67,68
 441 551 441 551 430 538 c 0,69,70
 365 465 365 465 314 418 c 0,0,1
EndSplineSet
EndChar

StartChar: guillemotleft
Encoding: 171 171 108
Width: 524
GlyphClass: 2
Flags: W
LayerCount: 2
Fore
SplineSet
121 15 m 0,0,1
 98 40 98 40 63 103.5 c 128,-1,2
 28 167 28 167 28 194 c 0,3,4
 28 202 28 202 31.5 209 c 128,-1,5
 35 216 35 216 38 219 c 2,6,-1
 42 222 l 2,7,8
 93 259 93 259 179 311 c 0,9,10
 276 369 276 369 322 392 c 1,11,12
 349 404 349 404 379 404 c 0,13,14
 406 404 406 404 406 396 c 0,15,16
 406 389 406 389 392 380 c 1,17,18
 143 243 143 243 113 209 c 0,19,20
 107 203 107 203 107 195 c 0,21,22
 109 166 109 166 192 22 c 1,23,24
 197 16 197 16 197 9 c 0,25,26
 197 -4 197 -4 174 -4 c 0,27,28
 139 -4 139 -4 121 15 c 0,0,1
307 17 m 0,29,30
 286 40 286 40 250 102 c 128,-1,31
 214 164 214 164 214 183 c 0,32,33
 214 191 214 191 218 198 c 128,-1,34
 222 205 222 205 226 208 c 2,35,-1
 231 212 l 1,36,37
 294 259 294 259 380 310 c 0,38,39
 458 357 458 357 523 391 c 0,40,41
 547 403 547 403 582 403 c 0,42,43
 607 403 607 403 607 395 c 0,44,45
 607 388 607 388 593 379 c 1,46,47
 332 233 332 233 302 199 c 0,48,49
 296 193 296 193 296 183 c 1,50,51
 299 161 299 161 379 24 c 0,52,53
 384 17 384 17 384 10 c 0,54,55
 384 -3 384 -3 360 -3 c 0,56,57
 325 -3 325 -3 307 17 c 0,29,30
EndSplineSet
EndChar

StartChar: logicalnot
Encoding: 172 172 109
Width: 500
GlyphClass: 2
Flags: W
LayerCount: 2
Fore
SplineSet
560 398 m 0,0,1
 560 393 560 393 557 387 c 2,2,-1
 471 233 l 1,3,4
 465 214 465 214 425 214 c 0,5,6
 404 214 404 214 404 223 c 0,7,8
 404 226 404 226 407 232 c 2,9,-1
 480 362 l 1,10,-1
 177 362 l 2,11,12
 160 362 160 362 160 372 c 0,13,14
 160 380 160 380 172.5 393.5 c 128,-1,15
 185 407 185 407 196 407 c 2,16,-1
 543 407 l 2,17,18
 560 407 560 407 560 398 c 0,0,1
EndSplineSet
EndChar

StartChar: registered
Encoding: 174 174 110
Width: 407
GlyphClass: 2
Flags: W
LayerCount: 2
Fore
SplineSet
205 116 m 0,0,1
 151 116 151 116 117.5 148.5 c 128,-1,2
 84 181 84 181 84 232 c 0,3,4
 84 309 84 309 149 370.5 c 128,-1,5
 214 432 214 432 290 432 c 0,6,7
 344 432 344 432 377 399 c 128,-1,8
 410 366 410 366 410 315 c 0,9,10
 410 237 410 237 345.5 176.5 c 128,-1,11
 281 116 281 116 205 116 c 0,0,1
387 310 m 0,12,13
 387 356 387 356 359 386 c 128,-1,14
 331 416 331 416 286 416 c 0,15,16
 218 416 218 416 163 361 c 128,-1,17
 108 306 108 306 108 237 c 0,18,19
 108 192 108 192 136 162 c 128,-1,20
 164 132 164 132 209 132 c 0,21,22
 279 132 279 132 333 187 c 128,-1,23
 387 242 387 242 387 310 c 0,12,13
266 181 m 0,24,25
 252 201 252 201 252 281 c 2,26,-1
 252 298 l 1,27,-1
 255 301 l 1,28,29
 278 303 278 303 297.5 319 c 128,-1,30
 317 335 317 335 317 356 c 0,31,32
 317 372 317 372 303.5 379 c 128,-1,33
 290 386 290 386 273 386 c 0,34,35
 253 386 253 386 235 375.5 c 128,-1,36
 217 365 217 365 217 347 c 0,37,38
 217 341 217 341 222 331 c 0,39,40
 222 330 222 330 222 330 c 1,41,-1
 223 328 l 2,42,43
 223 326 223 326 221 326 c 0,44,45
 218 326 218 326 215 329 c 1,46,47
 198 338 198 338 198 353 c 0,48,49
 198 372 198 372 221 382.5 c 128,-1,50
 244 393 244 393 275 393 c 0,51,52
 342 393 342 393 342 359 c 0,53,54
 342 339 342 339 319.5 321.5 c 128,-1,55
 297 304 297 304 275 298 c 0,56,57
 273 297 273 297 273 295 c 0,58,59
 273 194 273 194 295 173 c 2,60,-1
 297 171 l 1,61,62
 297 169 297 169 290 169 c 0,63,64
 282 169 282 169 276 172 c 128,-1,65
 270 175 270 175 268 177.5 c 128,-1,66
 266 180 266 180 266 181 c 0,24,25
203 227 m 0,67,68
 194 207 194 207 182.5 192.5 c 128,-1,69
 171 178 171 178 164 174 c 2,70,-1
 156 170 l 1,71,-1
 155 170 l 1,72,73
 154 169 154 169 153 169 c 0,74,75
 150 169 150 169 150 173 c 1,76,-1
 151 176 l 2,77,78
 159 198 159 198 200 271 c 1,79,-1
 249 352 l 1,80,81
 263 371 263 371 275 371 c 0,82,83
 278 371 278 371 278 369 c 0,84,85
 278 368 278 368 275 363 c 2,86,-1
 260 337 l 2,87,88
 246 311 246 311 228 277 c 128,-1,89
 210 243 210 243 203 227 c 0,67,68
EndSplineSet
EndChar

StartChar: macron
Encoding: 175 175 111
Width: 370
GlyphClass: 2
Flags: W
LayerCount: 2
Fore
SplineSet
510 498 m 1,0,-1
 222 498 l 2,1,2
 205 498 205 498 205 508 c 0,3,4
 205 516 205 516 217.5 529.5 c 128,-1,5
 230 543 230 543 241 543 c 2,6,-1
 528 543 l 2,7,8
 545 543 545 543 545 534 c 0,9,10
 545 524 545 524 533.5 512 c 128,-1,11
 522 500 522 500 510 498 c 1,0,-1
EndSplineSet
EndChar

StartChar: degree
Encoding: 176 176 112
Width: 298
GlyphClass: 2
Flags: W
LayerCount: 2
Fore
SplineSet
266 461 m 0,0,1
 243 461 243 461 229 476.5 c 128,-1,2
 215 492 215 492 215 518 c 0,3,4
 215 564 215 564 255.5 605.5 c 128,-1,5
 296 647 296 647 334 647 c 0,6,7
 357 647 357 647 371.5 631 c 128,-1,8
 386 615 386 615 386 590 c 0,9,10
 386 545 386 545 347.5 503 c 128,-1,11
 309 461 309 461 266 461 c 0,0,1
324 619 m 0,12,13
 297 619 297 619 270.5 590 c 128,-1,14
 244 561 244 561 244 527 c 0,15,16
 244 510 244 510 252.5 499 c 128,-1,17
 261 488 261 488 276 488 c 1,18,19
 303 490 303 490 330 519.5 c 128,-1,20
 357 549 357 549 357 581 c 0,21,22
 357 619 357 619 324 619 c 0,12,13
EndSplineSet
EndChar

StartChar: plusminus
Encoding: 177 177 113
Width: 490
GlyphClass: 2
Flags: W
LayerCount: 2
Fore
SplineSet
483 557 m 2,0,-1
 420 445 l 1,1,-1
 558 445 l 2,2,3
 575 445 575 445 575 436 c 0,4,5
 575 426 575 426 563.5 414 c 128,-1,6
 552 402 552 402 540 400 c 1,7,-1
 394 400 l 1,8,-1
 334 290 l 1,9,10
 328 271 328 271 288 271 c 0,11,12
 267 271 267 271 267 280 c 0,13,14
 267 283 267 283 270 289 c 2,15,-1
 331 400 l 1,16,-1
 192 400 l 2,17,18
 175 400 175 400 175 410 c 0,19,20
 175 418 175 418 187.5 431.5 c 128,-1,21
 200 445 200 445 211 445 c 2,22,-1
 356 445 l 1,23,-1
 419 556 l 2,24,25
 431 576 431 576 464 576 c 0,26,27
 486 576 486 576 486 565 c 0,28,29
 486 562 486 562 483 557 c 2,0,-1
446 189 m 1,30,-1
 98 189 l 2,31,32
 81 189 81 189 81 199 c 0,33,34
 81 207 81 207 93.5 220.5 c 128,-1,35
 106 234 106 234 117 234 c 2,36,-1
 464 234 l 2,37,38
 481 234 481 234 481 225 c 0,39,40
 481 215 481 215 469.5 203 c 128,-1,41
 458 191 458 191 446 189 c 1,30,-1
EndSplineSet
EndChar

StartChar: twosuperior
Encoding: 178 178 114
Width: 365
GlyphClass: 2
Flags: W
LayerCount: 2
Fore
SplineSet
389 336 m 1,0,1
 377 302 377 302 364.5 279.5 c 128,-1,2
 352 257 352 257 346 252 c 2,3,-1
 339 246 l 2,4,5
 330 238 330 238 276 238 c 0,6,7
 265 238 265 238 238 238.5 c 128,-1,8
 211 239 211 239 193 239 c 0,9,10
 169 239 169 239 131.5 238.5 c 128,-1,11
 94 238 94 238 90 238 c 0,12,13
 81 238 81 238 81 246 c 1,14,-1
 84 258 l 1,15,16
 104 287 104 287 159 339.5 c 128,-1,17
 214 392 214 392 260 430 c 2,18,-1
 305 468 l 2,19,20
 470 607 470 607 470 675 c 0,21,22
 470 697 470 697 454.5 710 c 128,-1,23
 439 723 439 723 417 723 c 0,24,25
 393 723 393 723 369.5 708.5 c 128,-1,26
 346 694 346 694 334 679 c 2,27,-1
 323 664 l 1,28,29
 317 654 317 654 312 654 c 0,30,31
 305 654 305 654 305 664 c 0,32,33
 305 667 305 667 307.5 677 c 128,-1,34
 310 687 310 687 319 705 c 128,-1,35
 328 723 328 723 341.5 739 c 128,-1,36
 355 755 355 755 381 767 c 128,-1,37
 407 779 407 779 440 779 c 0,38,39
 481 779 481 779 513 759.5 c 128,-1,40
 545 740 545 740 545 699 c 0,41,42
 545 665 545 665 523.5 630 c 128,-1,43
 502 595 502 595 480 575.5 c 128,-1,44
 458 556 458 556 418 524 c 0,45,46
 368 484 368 484 343.5 464 c 128,-1,47
 319 444 319 444 279 409 c 128,-1,48
 239 374 239 374 220.5 351 c 128,-1,49
 202 328 202 328 202 314 c 0,50,51
 202 306 202 306 211 305 c 1,52,53
 228 301 228 301 260 301 c 0,54,55
 346 301 346 301 374 340 c 0,56,57
 379 347 379 347 384 347 c 0,58,59
 391 347 391 347 391 341 c 0,60,61
 391 338 391 338 389 336 c 1,0,1
EndSplineSet
EndChar

StartChar: threesuperior
Encoding: 179 179 115
Width: 351
GlyphClass: 2
Flags: W
LayerCount: 2
Fore
SplineSet
68 212 m 0,0,1
 63 216 63 216 63 219 c 128,-1,2
 63 222 63 222 66 223.5 c 128,-1,3
 69 225 69 225 72 225 c 2,4,-1
 75 225 l 1,5,6
 93 222 93 222 108 222 c 0,7,8
 186 222 186 222 253.5 287 c 128,-1,9
 321 352 321 352 321 433 c 0,10,11
 321 472 321 472 296.5 497.5 c 128,-1,12
 272 523 272 523 248 529 c 2,13,-1
 223 535 l 1,14,15
 217 535 217 535 217 540 c 0,16,17
 217 543 217 543 221 549 c 1,18,19
 225 553 225 553 230 553 c 0,20,21
 296 553 296 553 358 588.5 c 128,-1,22
 420 624 420 624 420 682 c 0,23,24
 420 707 420 707 405 722.5 c 128,-1,25
 390 738 390 738 365 738 c 0,26,27
 348 738 348 738 329 730.5 c 128,-1,28
 310 723 310 723 299 716 c 2,29,-1
 288 708 l 2,30,31
 285 706 285 706 281 706 c 0,32,33
 275 706 275 706 275 716 c 0,34,35
 275 717 275 717 278.5 723 c 128,-1,36
 282 729 282 729 291.5 738.5 c 128,-1,37
 301 748 301 748 314 757 c 128,-1,38
 327 766 327 766 349.5 772.5 c 128,-1,39
 372 779 372 779 399 779 c 0,40,41
 440 779 440 779 465.5 760 c 128,-1,42
 491 741 491 741 491 706 c 0,43,44
 491 649 491 649 443 610.5 c 128,-1,45
 395 572 395 572 333 554 c 1,46,47
 327 550 327 550 327 547 c 128,-1,48
 327 544 327 544 330 542 c 0,49,50
 337 538 337 538 347 530 c 128,-1,51
 357 522 357 522 373.5 493 c 128,-1,52
 390 464 390 464 390 430 c 0,53,54
 390 344 390 344 314.5 270 c 128,-1,55
 239 196 239 196 131 196 c 0,56,57
 88 196 88 196 68 212 c 0,0,1
EndSplineSet
EndChar

StartChar: acute
Encoding: 180 180 116
Width: 370
GlyphClass: 2
Flags: W
LayerCount: 2
Fore
SplineSet
561 594 m 0,0,1
 534 563 534 563 496.5 539.5 c 128,-1,2
 459 516 459 516 436 508 c 2,3,-1
 412 500 l 1,4,5
 401 500 401 500 401 504 c 0,6,7
 401 507 401 507 405 513 c 1,8,9
 415 521 415 521 435 543 c 128,-1,10
 455 565 455 565 470 582 c 2,11,-1
 485 600 l 1,12,13
 491 609 491 609 504 609 c 2,14,-1
 553 609 l 2,15,16
 565 609 565 609 565 602 c 0,17,18
 565 598 565 598 561 594 c 0,0,1
EndSplineSet
EndChar

StartChar: mu
Encoding: 181 181 117
Width: 371
GlyphClass: 2
Flags: W
LayerCount: 2
Fore
SplineSet
226 167 m 1,0,-1
 257 220 l 1,1,2
 257 223 257 223 255 223 c 128,-1,3
 253 223 253 223 250 220 c 0,4,5
 76 20 76 20 -7 -14 c 1,6,7
 -39 -73 -39 -73 -61 -119 c 0,8,9
 -66 -128 -66 -128 -74 -143 c 128,-1,10
 -82 -158 -82 -158 -104.5 -197 c 128,-1,11
 -127 -236 -127 -236 -146.5 -265.5 c 128,-1,12
 -166 -295 -166 -295 -188.5 -319.5 c 128,-1,13
 -211 -344 -211 -344 -225 -344 c 0,14,15
 -235 -344 -235 -344 -235 -335 c 0,16,17
 -235 -308 -235 -308 -176.5 -196.5 c 128,-1,18
 -118 -85 -118 -85 -59 14 c 2,19,-1
 0 112 l 1,20,21
 19 141 19 141 72.5 237.5 c 128,-1,22
 126 334 126 334 158 377 c 0,23,24
 178 403 178 403 207 420.5 c 128,-1,25
 236 438 236 438 252 438 c 0,26,27
 262 438 262 438 262 431 c 0,28,29
 262 427 262 427 258 420 c 0,30,31
 256 416 256 416 217 353.5 c 128,-1,32
 178 291 178 291 154 246 c 0,33,34
 88 125 88 125 88 107 c 0,35,36
 88 100 88 100 94 100 c 0,37,38
 103 100 103 100 125 118 c 0,39,40
 190 174 190 174 268 269 c 1,41,42
 311 315 311 315 358 389 c 0,43,44
 390 438 390 438 443 438 c 0,45,46
 452 438 452 438 452 430 c 1,47,-1
 444 411 l 1,48,49
 430 386 430 386 381.5 301.5 c 128,-1,50
 333 217 333 217 326 205 c 0,51,52
 285 133 285 133 285 110 c 0,53,54
 285 101 285 101 291 101 c 0,55,56
 301 101 301 101 355 151 c 1,57,58
 397 193 397 193 466 272 c 0,59,60
 469 275 469 275 471 275 c 128,-1,61
 473 275 473 275 473 271 c 0,62,63
 473 252 473 252 458 234 c 0,64,65
 384 152 384 152 327 97 c 0,66,67
 288 60 288 60 239.5 23 c 128,-1,68
 191 -14 191 -14 169 -14 c 0,69,70
 154 -14 154 -14 154 7 c 0,71,72
 154 19 154 19 172 59 c 128,-1,73
 190 99 190 99 208 133 c 2,74,-1
 226 167 l 1,0,-1
EndSplineSet
EndChar

StartChar: paragraph
Encoding: 182 182 118
Width: 386
GlyphClass: 2
Flags: W
LayerCount: 2
Fore
SplineSet
596 695 m 0,0,1
 596 690 596 690 592 685 c 128,-1,2
 588 680 588 680 584 678 c 2,3,-1
 580 675 l 2,4,5
 549 653 549 653 456 495 c 128,-1,6
 363 337 363 337 274 169 c 0,7,8
 240 105 240 105 215.5 49 c 128,-1,9
 191 -7 191 -7 184 -32 c 2,10,-1
 177 -56 l 2,11,12
 172 -70 172 -70 164 -70 c 0,13,14
 157 -70 157 -70 150 -61.5 c 128,-1,15
 143 -53 143 -53 143 -48 c 0,16,17
 143 -1 143 -1 237.5 178.5 c 128,-1,18
 332 358 332 358 426 514 c 1,19,-1
 521 669 l 2,20,21
 524 675 524 675 524 679 c 0,22,23
 524 685 524 685 515 685 c 1,24,-1
 497 681 l 1,25,26
 474 668 474 668 386.5 526 c 128,-1,27
 299 384 299 384 213 224 c 0,28,29
 177 157 177 157 143 87.5 c 128,-1,30
 109 18 109 18 93 -18 c 2,31,-1
 77 -54 l 1,32,33
 73 -66 73 -66 67 -66 c 0,34,35
 62 -66 62 -66 56.5 -59.5 c 128,-1,36
 51 -53 51 -53 51 -46 c 0,37,38
 51 -16 51 -16 96.5 78 c 128,-1,39
 142 172 142 172 188 251 c 2,40,-1
 234 330 l 2,41,42
 236 333 236 333 236 337 c 128,-1,43
 236 341 236 341 233 343 c 128,-1,44
 230 345 230 345 228 346 c 1,45,-1
 225 346 l 1,46,47
 124 369 124 369 124 466 c 0,48,49
 124 526 124 526 155.5 575.5 c 128,-1,50
 187 625 187 625 237.5 656 c 128,-1,51
 288 687 288 687 348.5 704 c 128,-1,52
 409 721 409 721 470 721 c 0,53,54
 497 721 497 721 521 718 c 1,55,56
 596 718 596 718 596 695 c 0,0,1
EndSplineSet
EndChar

StartChar: periodcentered
Encoding: 183 183 119
Width: 154
GlyphClass: 2
Flags: W
LayerCount: 2
Fore
SplineSet
70 177 m 0,0,1
 56 177 56 177 48 186 c 128,-1,2
 40 195 40 195 40 210 c 0,3,4
 40 238 40 238 62.5 265.5 c 128,-1,5
 85 293 85 293 112 293 c 0,6,7
 142 293 142 293 142 259 c 0,8,9
 142 230 142 230 119.5 204 c 128,-1,10
 97 178 97 178 70 177 c 0,0,1
EndSplineSet
EndChar

StartChar: cedilla
Encoding: 184 184 120
Width: 438
GlyphClass: 2
Flags: W
LayerCount: 2
Fore
SplineSet
152 -24 m 1,0,1
 135 -33 135 -33 135 -47 c 0,2,3
 135 -52 135 -52 140 -62.5 c 128,-1,4
 145 -73 145 -73 145 -81 c 0,5,6
 145 -101 145 -101 129 -114.5 c 128,-1,7
 113 -128 113 -128 91 -128 c 0,8,9
 60 -128 60 -128 56 -110 c 1,10,11
 56 -103 56 -103 63 -103 c 0,12,13
 66 -103 66 -103 73 -105 c 128,-1,14
 80 -107 80 -107 84 -107 c 0,15,16
 94 -107 94 -107 103 -100.5 c 128,-1,17
 112 -94 112 -94 112 -83 c 0,18,19
 112 -77 112 -77 106.5 -69.5 c 128,-1,20
 101 -62 101 -62 101 -57 c 0,21,22
 101 -45 101 -45 114.5 -34 c 128,-1,23
 128 -23 128 -23 143 -23 c 0,24,25
 149 -23 149 -23 152 -24 c 1,0,1
EndSplineSet
EndChar

StartChar: onesuperior
Encoding: 185 185 121
Width: 309
GlyphClass: 2
Flags: W
LayerCount: 2
Fore
SplineSet
200 250 m 1,0,1
 174 216 174 216 146 216 c 0,2,3
 136 216 136 216 136 225 c 128,-1,4
 136 234 136 234 146.5 259.5 c 128,-1,5
 157 285 157 285 174.5 319 c 128,-1,6
 192 353 192 353 207.5 383 c 128,-1,7
 223 413 223 413 239 442.5 c 128,-1,8
 255 472 255 472 257 476 c 0,9,10
 262 487 262 487 294.5 539.5 c 128,-1,11
 327 592 327 592 350 637 c 128,-1,12
 373 682 373 682 373 703 c 0,13,14
 373 719 373 719 348 719 c 1,15,-1
 322 715 l 1,16,17
 311 715 311 715 311 721 c 1,18,-1
 316 731 l 1,19,20
 368 763 368 763 477 763 c 1,21,22
 485 761 485 761 485 754 c 0,23,24
 485 749 485 749 477 741 c 0,25,26
 455 717 455 717 417 652 c 0,27,28
 342 521 342 521 312 459 c 0,29,30
 303 441 303 441 285.5 406 c 128,-1,31
 268 371 268 371 258 350 c 128,-1,32
 248 329 248 329 231.5 300.5 c 128,-1,33
 215 272 215 272 200 250 c 1,0,1
EndSplineSet
EndChar

StartChar: ordmasculine
Encoding: 186 186 122
Width: 300
GlyphClass: 2
Flags: W
LayerCount: 2
Fore
SplineSet
378 604 m 0,0,1
 378 555 378 555 341 489 c 1,2,3
 301 421 301 421 253.5 383.5 c 128,-1,4
 206 346 206 346 162 346 c 0,5,6
 135 346 135 346 120.5 363.5 c 128,-1,7
 106 381 106 381 106 408 c 0,8,9
 106 460 106 460 143 524 c 0,10,11
 182 592 182 592 231 630 c 128,-1,12
 280 668 280 668 323 668 c 0,13,14
 378 668 378 668 378 604 c 0,0,1
195 508 m 0,15,16
 159 431 159 431 159 392 c 0,17,18
 159 366 159 366 178 366 c 0,19,20
 227 368 227 368 290 508 c 1,21,22
 328 589 328 589 328 628 c 0,23,24
 328 650 328 650 313 650 c 0,25,26
 291 650 291 650 256.5 608.5 c 128,-1,27
 222 567 222 567 195 508 c 0,15,16
EndSplineSet
EndChar

StartChar: guillemotright
Encoding: 187 187 123
Width: 565
GlyphClass: 2
Flags: W
LayerCount: 2
Fore
SplineSet
448 390 m 1,0,1
 469 366 469 366 505 298 c 128,-1,2
 541 230 541 230 541 210 c 0,3,4
 541 203 541 203 537.5 196.5 c 128,-1,5
 534 190 534 190 530 187 c 2,6,-1
 527 184 l 1,7,8
 475 146 475 146 389 94 c 0,9,10
 318 51 318 51 247 13 c 1,11,12
 227 1 227 1 187 1 c 0,13,14
 163 1 163 1 163 10 c 0,15,16
 163 16 163 16 177 25 c 1,17,18
 425 163 425 163 456 196 c 0,19,20
 461 202 461 202 461 212 c 0,21,22
 461 236 461 236 376 383 c 1,23,24
 371 389 371 389 371 396 c 0,25,26
 371 409 371 409 395 409 c 0,27,28
 430 409 430 409 448 390 c 1,0,1
261 388 m 0,29,30
 280 367 280 367 317 303 c 128,-1,31
 354 239 354 239 354 222 c 0,32,33
 354 214 354 214 350 207 c 128,-1,34
 346 200 346 200 342 196 c 1,35,-1
 337 193 l 1,36,37
 274 146 274 146 188 95 c 0,38,39
 107 46 107 46 46 14 c 0,40,41
 21 1 21 1 -14 1 c 0,42,43
 -38 1 -38 1 -38 11 c 0,44,45
 -38 17 -38 17 -24 26 c 0,46,47
 236 172 236 172 267 206 c 0,48,49
 272 211 272 211 272 222 c 0,50,51
 272 241 272 241 190 382 c 1,52,53
 185 388 185 388 185 395 c 0,54,55
 185 408 185 408 209 408 c 0,56,57
 243 408 243 408 261 388 c 0,29,30
EndSplineSet
EndChar

StartChar: onequarter
Encoding: 188 188 124
Width: 766
GlyphClass: 2
Flags: W
LayerCount: 2
Fore
SplineSet
200 250 m 1,0,1
 174 216 174 216 146 216 c 0,2,3
 136 216 136 216 136 225 c 128,-1,4
 136 234 136 234 146.5 259.5 c 128,-1,5
 157 285 157 285 174.5 319 c 128,-1,6
 192 353 192 353 207.5 383 c 128,-1,7
 223 413 223 413 239 442.5 c 128,-1,8
 255 472 255 472 257 476 c 0,9,10
 262 487 262 487 294.5 539.5 c 128,-1,11
 327 592 327 592 350 637 c 128,-1,12
 373 682 373 682 373 703 c 0,13,14
 373 719 373 719 348 719 c 1,15,-1
 322 715 l 1,16,17
 311 715 311 715 311 721 c 1,18,-1
 316 731 l 1,19,20
 368 763 368 763 477 763 c 1,21,22
 485 761 485 761 485 754 c 0,23,24
 485 749 485 749 477 741 c 0,25,26
 455 717 455 717 417 652 c 0,27,28
 342 521 342 521 312 459 c 0,29,30
 303 441 303 441 285.5 406 c 128,-1,31
 268 371 268 371 258 350 c 128,-1,32
 248 329 248 329 231.5 300.5 c 128,-1,33
 215 272 215 272 200 250 c 1,0,1
727 214 m 0,34,35
 703 171 703 171 658 168 c 0,36,37
 656 168 656 168 630 165 c 1,38,-1
 560 34 l 1,39,40
 548 15 548 15 523 1 c 128,-1,41
 498 -13 498 -13 477 -13 c 0,42,43
 468 -13 468 -13 468 -4 c 1,44,-1
 469 1 l 1,45,46
 478 23 478 23 559 164 c 1,47,-1
 540 164 l 1,48,-1
 402 168 l 2,49,50
 388 169 388 169 388 180 c 1,51,-1
 391 190 l 1,52,53
 402 203 402 203 422 224 c 128,-1,54
 442 245 442 245 498.5 301.5 c 128,-1,55
 555 358 555 358 605.5 404 c 128,-1,56
 656 450 656 450 716 493 c 128,-1,57
 776 536 776 536 816 549 c 1,58,-1
 825 549 l 2,59,60
 843 549 843 549 843 540 c 0,61,62
 843 537 843 537 841 534 c 0,63,64
 837 525 837 525 809.5 477.5 c 128,-1,65
 782 430 782 430 737 352.5 c 128,-1,66
 692 275 692 275 661 222 c 1,67,68
 677 222 677 222 690.5 223.5 c 128,-1,69
 704 225 704 225 712 226 c 128,-1,70
 720 227 720 227 722 227 c 0,71,72
 729 227 729 227 729 222 c 0,73,74
 729 218 729 218 727 214 c 0,34,35
733 463 m 2,75,76
 736 469 736 469 736 471 c 0,77,78
 736 474 736 474 733 474 c 1,79,-1
 725 471 l 1,80,81
 668 431 668 431 610.5 375 c 128,-1,82
 553 319 553 319 524 284 c 2,83,-1
 494 248 l 2,84,85
 489 242 489 242 489 236 c 0,86,87
 489 229 489 229 500 227 c 0,88,89
 532 222 532 222 591 221 c 1,90,-1
 733 463 l 2,75,76
849 776 m 2,91,-1
 75 -16 l 2,92,93
 61 -30 61 -30 26 -30 c 0,94,95
 15 -30 15 -30 15 -26 c 1,96,-1
 20 -17 l 1,97,98
 743 723 743 723 793 773 c 0,99,100
 812 792 812 792 829 792 c 0,101,102
 852 792 852 792 852 782 c 0,103,104
 852 779 852 779 849 776 c 2,91,-1
EndSplineSet
EndChar

StartChar: onehalf
Encoding: 189 189 125
Width: 784
GlyphClass: 2
Flags: W
LayerCount: 2
Fore
SplineSet
200 250 m 1,0,1
 174 216 174 216 146 216 c 0,2,3
 136 216 136 216 136 225 c 128,-1,4
 136 234 136 234 146.5 259.5 c 128,-1,5
 157 285 157 285 174.5 319 c 128,-1,6
 192 353 192 353 207.5 383 c 128,-1,7
 223 413 223 413 239 442.5 c 128,-1,8
 255 472 255 472 257 476 c 0,9,10
 262 487 262 487 294.5 539.5 c 128,-1,11
 327 592 327 592 350 637 c 128,-1,12
 373 682 373 682 373 703 c 0,13,14
 373 719 373 719 348 719 c 1,15,-1
 322 715 l 1,16,17
 311 715 311 715 311 721 c 1,18,-1
 316 731 l 1,19,20
 368 763 368 763 477 763 c 1,21,22
 485 761 485 761 485 754 c 0,23,24
 485 749 485 749 477 741 c 0,25,26
 455 717 455 717 417 652 c 0,27,28
 342 521 342 521 312 459 c 0,29,30
 303 441 303 441 285.5 406 c 128,-1,31
 268 371 268 371 258 350 c 128,-1,32
 248 329 248 329 231.5 300.5 c 128,-1,33
 215 272 215 272 200 250 c 1,0,1
697 99 m 1,34,35
 685 65 685 65 672.5 42.5 c 128,-1,36
 660 20 660 20 654 14 c 1,37,-1
 647 9 l 1,38,39
 638 1 638 1 584 1 c 0,40,41
 573 1 573 1 546 1.5 c 128,-1,42
 519 2 519 2 501 2 c 0,43,44
 477 2 477 2 439.5 1.5 c 128,-1,45
 402 1 402 1 398 1 c 0,46,47
 389 1 389 1 389 9 c 1,48,-1
 392 21 l 1,49,50
 412 50 412 50 467 102.5 c 128,-1,51
 522 155 522 155 568 193 c 2,52,-1
 613 231 l 2,53,54
 778 370 778 370 778 438 c 0,55,56
 778 460 778 460 763 473 c 128,-1,57
 748 486 748 486 725 486 c 0,58,59
 701 486 701 486 677.5 471 c 128,-1,60
 654 456 654 456 642 442 c 1,61,-1
 631 427 l 1,62,63
 625 417 625 417 620 417 c 0,64,65
 613 417 613 417 613 427 c 0,66,67
 613 430 613 430 615.5 440 c 128,-1,68
 618 450 618 450 627 468 c 128,-1,69
 636 486 636 486 649.5 502 c 128,-1,70
 663 518 663 518 689 530 c 128,-1,71
 715 542 715 542 748 542 c 0,72,73
 788 542 788 542 820.5 522.5 c 128,-1,74
 853 503 853 503 853 462 c 0,75,76
 853 428 853 428 831.5 393 c 128,-1,77
 810 358 810 358 788 338.5 c 128,-1,78
 766 319 766 319 726 287 c 0,79,80
 676 247 676 247 651.5 227 c 128,-1,81
 627 207 627 207 587 172 c 128,-1,82
 547 137 547 137 528.5 114 c 128,-1,83
 510 91 510 91 510 77 c 0,84,85
 510 69 510 69 519 68 c 1,86,87
 536 64 536 64 568 64 c 0,88,89
 654 64 654 64 682 103 c 0,90,91
 687 110 687 110 692 110 c 0,92,93
 699 110 699 110 699 104 c 0,94,95
 699 101 699 101 697 99 c 1,34,35
849 776 m 2,96,-1
 75 -16 l 2,97,98
 61 -30 61 -30 26 -30 c 0,99,100
 15 -30 15 -30 15 -26 c 1,101,-1
 20 -17 l 1,102,103
 743 723 743 723 793 773 c 0,104,105
 812 792 812 792 829 792 c 0,106,107
 852 792 852 792 852 782 c 0,108,109
 852 779 852 779 849 776 c 2,96,-1
EndSplineSet
EndChar

StartChar: threequarters
Encoding: 190 190 126
Width: 835
GlyphClass: 2
Flags: W
LayerCount: 2
Fore
SplineSet
796 214 m 0,0,1
 772 171 772 171 727 168 c 0,2,3
 725 168 725 168 699 165 c 1,4,-1
 629 34 l 1,5,6
 617 15 617 15 592 1 c 128,-1,7
 567 -13 567 -13 546 -13 c 0,8,9
 537 -13 537 -13 537 -4 c 1,10,-1
 538 1 l 1,11,12
 547 23 547 23 628 164 c 1,13,-1
 609 164 l 1,14,-1
 471 168 l 2,15,16
 457 169 457 169 457 180 c 1,17,-1
 460 190 l 1,18,19
 471 203 471 203 491 224 c 128,-1,20
 511 245 511 245 567.5 301.5 c 128,-1,21
 624 358 624 358 674.5 404 c 128,-1,22
 725 450 725 450 785 493 c 128,-1,23
 845 536 845 536 885 549 c 1,24,-1
 894 549 l 2,25,26
 912 549 912 549 912 540 c 0,27,28
 912 537 912 537 910 534 c 0,29,30
 906 525 906 525 878.5 477.5 c 128,-1,31
 851 430 851 430 806 352.5 c 128,-1,32
 761 275 761 275 730 222 c 1,33,34
 746 222 746 222 759.5 223.5 c 128,-1,35
 773 225 773 225 781 226 c 128,-1,36
 789 227 789 227 791 227 c 0,37,38
 798 227 798 227 798 222 c 0,39,40
 798 218 798 218 796 214 c 0,0,1
802 463 m 2,41,42
 805 469 805 469 805 471 c 0,43,44
 805 474 805 474 802 474 c 1,45,-1
 794 471 l 1,46,47
 737 431 737 431 679.5 375 c 128,-1,48
 622 319 622 319 592 284 c 1,49,-1
 563 248 l 2,50,51
 558 242 558 242 558 236 c 0,52,53
 558 229 558 229 569 227 c 0,54,55
 601 222 601 222 660 221 c 1,56,-1
 802 463 l 2,41,42
68 212 m 0,57,58
 63 216 63 216 63 219 c 128,-1,59
 63 222 63 222 66 223.5 c 128,-1,60
 69 225 69 225 72 225 c 2,61,-1
 75 225 l 1,62,63
 93 222 93 222 108 222 c 0,64,65
 186 222 186 222 253.5 287 c 128,-1,66
 321 352 321 352 321 433 c 0,67,68
 321 472 321 472 296.5 497.5 c 128,-1,69
 272 523 272 523 248 529 c 2,70,-1
 223 535 l 1,71,72
 217 535 217 535 217 540 c 0,73,74
 217 543 217 543 221 549 c 1,75,76
 225 553 225 553 230 553 c 0,77,78
 296 553 296 553 358 588.5 c 128,-1,79
 420 624 420 624 420 682 c 0,80,81
 420 707 420 707 405 722.5 c 128,-1,82
 390 738 390 738 365 738 c 0,83,84
 348 738 348 738 329 730.5 c 128,-1,85
 310 723 310 723 299 716 c 2,86,-1
 288 708 l 2,87,88
 285 706 285 706 281 706 c 0,89,90
 275 706 275 706 275 716 c 0,91,92
 275 717 275 717 278.5 723 c 128,-1,93
 282 729 282 729 291.5 738.5 c 128,-1,94
 301 748 301 748 314 757 c 128,-1,95
 327 766 327 766 349.5 772.5 c 128,-1,96
 372 779 372 779 399 779 c 0,97,98
 440 779 440 779 465.5 760 c 128,-1,99
 491 741 491 741 491 706 c 0,100,101
 491 649 491 649 443 610.5 c 128,-1,102
 395 572 395 572 333 554 c 1,103,104
 327 550 327 550 327 547 c 128,-1,105
 327 544 327 544 330 542 c 0,106,107
 337 538 337 538 347 530 c 128,-1,108
 357 522 357 522 373.5 493 c 128,-1,109
 390 464 390 464 390 430 c 0,110,111
 390 344 390 344 314.5 270 c 128,-1,112
 239 196 239 196 131 196 c 0,113,114
 88 196 88 196 68 212 c 0,57,58
918 776 m 2,115,-1
 144 -16 l 2,116,117
 130 -30 130 -30 95 -30 c 0,118,119
 84 -30 84 -30 84 -26 c 1,120,-1
 89 -17 l 1,121,122
 812 723 812 723 862 773 c 0,123,124
 881 792 881 792 898 792 c 0,125,126
 921 792 921 792 921 782 c 0,127,128
 921 779 921 779 918 776 c 2,115,-1
EndSplineSet
EndChar

StartChar: questiondown
Encoding: 191 191 127
Width: 340
GlyphClass: 2
Flags: W
LayerCount: 2
Fore
SplineSet
403 415 m 1,0,1
 393 392 393 392 374 376 c 128,-1,2
 355 360 355 360 337 360 c 2,3,-1
 333 360 l 1,4,5
 307 362 307 362 307 394 c 0,6,7
 307 409 307 409 314 424 c 1,8,9
 323 448 323 448 342.5 463.5 c 128,-1,10
 362 479 362 479 380 479 c 2,11,-1
 383 479 l 1,12,13
 409 476 409 476 409 444 c 0,14,15
 409 432 409 432 403 415 c 1,0,1
-38 -273 m 0,16,17
 -99 -273 -99 -273 -141 -245 c 128,-1,18
 -183 -217 -183 -217 -183 -156 c 0,19,20
 -183 -126 -183 -126 -170 -98 c 128,-1,21
 -157 -70 -157 -70 -139 -50.5 c 128,-1,22
 -121 -31 -121 -31 -91.5 -10.5 c 128,-1,23
 -62 10 -62 10 -39.5 22 c 128,-1,24
 -17 34 -17 34 15 50 c 0,25,26
 56 70 56 70 91.5 93.5 c 128,-1,27
 127 117 127 117 148 136.5 c 128,-1,28
 169 156 169 156 185 173 c 128,-1,29
 201 190 201 190 207 200 c 2,30,-1
 213 209 l 1,31,32
 228 236 228 236 245.5 259.5 c 128,-1,33
 263 283 263 283 274 294 c 2,34,-1
 284 304 l 2,35,36
 291 311 291 311 298 311 c 0,37,38
 306 311 306 311 307 300 c 0,39,40
 308 293 308 293 308 283 c 0,41,42
 308 186 308 186 178 112 c 1,43,44
 70 56 70 56 -8 -18 c 0,45,46
 -18 -27 -18 -27 -33.5 -43.5 c 128,-1,47
 -49 -60 -49 -60 -74.5 -105 c 128,-1,48
 -100 -150 -100 -150 -100 -189 c 0,49,50
 -100 -196 -100 -196 -98 -206.5 c 128,-1,51
 -96 -217 -96 -217 -82 -231.5 c 128,-1,52
 -68 -246 -68 -246 -44 -246 c 0,53,54
 24 -246 24 -246 70.5 -186 c 128,-1,55
 117 -126 117 -126 120 -50 c 0,56,57
 121 -40 121 -40 130 -40 c 0,58,59
 135 -40 135 -40 138 -42 c 0,60,61
 168 -68 168 -68 168 -112 c 0,62,63
 168 -180 168 -180 102 -226.5 c 128,-1,64
 36 -273 36 -273 -38 -273 c 0,16,17
EndSplineSet
EndChar

StartChar: Agrave
Encoding: 192 192 128
Width: 452
GlyphClass: 2
Flags: W
LayerCount: 2
Fore
SplineSet
156 481 m 0,0,1
 85 481 85 481 85 349 c 2,2,-1
 85 342 l 2,3,4
 85 329 85 329 79 329 c 0,5,6
 64 329 64 329 56.5 365 c 128,-1,7
 49 401 49 401 49 426 c 0,8,9
 49 467 49 467 67.5 499 c 128,-1,10
 86 531 86 531 125 531 c 0,11,12
 202 531 202 531 273 441 c 1,13,14
 333 511 333 511 401.5 582.5 c 128,-1,15
 470 654 470 654 508 690 c 2,16,-1
 546 727 l 1,17,18
 608 820 608 820 648 820 c 0,19,20
 658 820 658 820 658 811 c 0,21,22
 658 805 658 805 654 797 c 0,23,24
 566 624 566 624 493 407 c 0,25,26
 401 131 401 131 401 -16 c 0,27,28
 401 -62 401 -62 412 -83 c 1,29,30
 416 -88 416 -88 416 -93 c 0,31,32
 416 -100 416 -100 404 -100 c 0,33,34
 377 -100 377 -100 359 -86.5 c 128,-1,35
 341 -73 341 -73 333.5 -51 c 128,-1,36
 326 -29 326 -29 323 -11.5 c 128,-1,37
 320 6 320 6 320 24 c 0,38,39
 320 54 320 54 331 113 c 128,-1,40
 342 172 342 172 342 199 c 0,41,42
 342 239 342 239 324.5 293.5 c 128,-1,43
 307 348 307 348 278 393 c 1,44,45
 246 349 246 349 219.5 305 c 128,-1,46
 193 261 193 261 182 240 c 1,47,-1
 172 218 l 1,48,49
 136 144 136 144 101 83 c 128,-1,50
 66 22 66 22 49 -2 c 2,51,-1
 32 -25 l 1,52,53
 21 -38 21 -38 12 -38 c 0,54,55
 1 -38 1 -38 1 -15 c 0,56,57
 4 126 4 126 257 422 c 1,58,59
 208 481 208 481 156 481 c 0,0,1
499 638 m 1,60,61
 389 542 389 542 293 413 c 1,62,63
 335 349 335 349 358 267 c 0,64,65
 361 258 361 258 363 258 c 1,66,-1
 368 267 l 1,67,68
 393 352 393 352 428.5 443.5 c 128,-1,69
 464 535 464 535 487 584 c 2,70,-1
 510 632 l 2,71,72
 513 638 513 638 513 640 c 128,-1,73
 513 642 513 642 510 642 c 1,74,-1
 499 638 l 1,60,61
676 857 m 0,75,76
 676 851 676 851 671 851 c 0,77,78
 667 851 667 851 658 857 c 0,79,80
 640 869 640 869 625 894 c 128,-1,81
 610 919 610 919 604 938 c 2,82,-1
 598 956 l 1,83,84
 598 966 598 966 606 966 c 2,85,-1
 660 966 l 2,86,87
 671 966 671 966 671 955 c 2,88,-1
 671 933 l 2,89,90
 671 891 671 891 676 857 c 0,75,76
EndSplineSet
EndChar

StartChar: Aacute
Encoding: 193 193 129
Width: 452
GlyphClass: 2
Flags: W
LayerCount: 2
Fore
SplineSet
156 481 m 0,0,1
 85 481 85 481 85 349 c 2,2,-1
 85 342 l 2,3,4
 85 329 85 329 79 329 c 0,5,6
 64 329 64 329 56.5 365 c 128,-1,7
 49 401 49 401 49 426 c 0,8,9
 49 467 49 467 67.5 499 c 128,-1,10
 86 531 86 531 125 531 c 0,11,12
 202 531 202 531 273 441 c 1,13,14
 333 511 333 511 401.5 582.5 c 128,-1,15
 470 654 470 654 508 690 c 2,16,-1
 546 727 l 1,17,18
 608 820 608 820 648 820 c 0,19,20
 658 820 658 820 658 811 c 0,21,22
 658 805 658 805 654 797 c 0,23,24
 566 624 566 624 493 407 c 0,25,26
 401 131 401 131 401 -16 c 0,27,28
 401 -62 401 -62 412 -83 c 1,29,30
 416 -88 416 -88 416 -93 c 0,31,32
 416 -100 416 -100 404 -100 c 0,33,34
 377 -100 377 -100 359 -86.5 c 128,-1,35
 341 -73 341 -73 333.5 -51 c 128,-1,36
 326 -29 326 -29 323 -11.5 c 128,-1,37
 320 6 320 6 320 24 c 0,38,39
 320 54 320 54 331 113 c 128,-1,40
 342 172 342 172 342 199 c 0,41,42
 342 239 342 239 324.5 293.5 c 128,-1,43
 307 348 307 348 278 393 c 1,44,45
 246 349 246 349 219.5 305 c 128,-1,46
 193 261 193 261 182 240 c 1,47,-1
 172 218 l 1,48,49
 136 144 136 144 101 83 c 128,-1,50
 66 22 66 22 49 -2 c 2,51,-1
 32 -25 l 1,52,53
 21 -38 21 -38 12 -38 c 0,54,55
 1 -38 1 -38 1 -15 c 0,56,57
 4 126 4 126 257 422 c 1,58,59
 208 481 208 481 156 481 c 0,0,1
499 638 m 1,60,61
 389 542 389 542 293 413 c 1,62,63
 335 349 335 349 358 267 c 0,64,65
 361 258 361 258 363 258 c 1,66,-1
 368 267 l 1,67,68
 393 352 393 352 428.5 443.5 c 128,-1,69
 464 535 464 535 487 584 c 2,70,-1
 510 632 l 2,71,72
 513 638 513 638 513 640 c 128,-1,73
 513 642 513 642 510 642 c 1,74,-1
 499 638 l 1,60,61
771 936 m 0,75,76
 744 905 744 905 706.5 881.5 c 128,-1,77
 669 858 669 858 646 850 c 2,78,-1
 622 842 l 1,79,80
 611 842 611 842 611 846 c 0,81,82
 611 849 611 849 615 855 c 1,83,84
 625 863 625 863 645 885 c 128,-1,85
 665 907 665 907 680 924 c 2,86,-1
 695 942 l 1,87,88
 701 951 701 951 714 951 c 2,89,-1
 763 951 l 2,90,91
 775 951 775 951 775 944 c 0,92,93
 775 940 775 940 771 936 c 0,75,76
EndSplineSet
EndChar

StartChar: Acircumflex
Encoding: 194 194 130
Width: 452
GlyphClass: 2
Flags: W
LayerCount: 2
Fore
SplineSet
156 481 m 0,0,1
 85 481 85 481 85 349 c 2,2,-1
 85 342 l 2,3,4
 85 329 85 329 79 329 c 0,5,6
 64 329 64 329 56.5 365 c 128,-1,7
 49 401 49 401 49 426 c 0,8,9
 49 467 49 467 67.5 499 c 128,-1,10
 86 531 86 531 125 531 c 0,11,12
 202 531 202 531 273 441 c 1,13,14
 333 511 333 511 401.5 582.5 c 128,-1,15
 470 654 470 654 508 690 c 2,16,-1
 546 727 l 1,17,18
 608 820 608 820 648 820 c 0,19,20
 658 820 658 820 658 811 c 0,21,22
 658 805 658 805 654 797 c 0,23,24
 566 624 566 624 493 407 c 0,25,26
 401 131 401 131 401 -16 c 0,27,28
 401 -62 401 -62 412 -83 c 1,29,30
 416 -88 416 -88 416 -93 c 0,31,32
 416 -100 416 -100 404 -100 c 0,33,34
 377 -100 377 -100 359 -86.5 c 128,-1,35
 341 -73 341 -73 333.5 -51 c 128,-1,36
 326 -29 326 -29 323 -11.5 c 128,-1,37
 320 6 320 6 320 24 c 0,38,39
 320 54 320 54 331 113 c 128,-1,40
 342 172 342 172 342 199 c 0,41,42
 342 239 342 239 324.5 293.5 c 128,-1,43
 307 348 307 348 278 393 c 1,44,45
 246 349 246 349 219.5 305 c 128,-1,46
 193 261 193 261 182 240 c 1,47,-1
 172 218 l 1,48,49
 136 144 136 144 101 83 c 128,-1,50
 66 22 66 22 49 -2 c 2,51,-1
 32 -25 l 1,52,53
 21 -38 21 -38 12 -38 c 0,54,55
 1 -38 1 -38 1 -15 c 0,56,57
 4 126 4 126 257 422 c 1,58,59
 208 481 208 481 156 481 c 0,0,1
499 638 m 1,60,61
 389 542 389 542 293 413 c 1,62,63
 335 349 335 349 358 267 c 0,64,65
 361 258 361 258 363 258 c 1,66,-1
 368 267 l 1,67,68
 393 352 393 352 428.5 443.5 c 128,-1,69
 464 535 464 535 487 584 c 2,70,-1
 510 632 l 2,71,72
 513 638 513 638 513 640 c 128,-1,73
 513 642 513 642 510 642 c 1,74,-1
 499 638 l 1,60,61
676 908 m 0,75,76
 675 912 675 912 673 912 c 1,77,-1
 667 908 l 1,78,79
 634 875 634 875 591 853.5 c 128,-1,80
 548 832 548 832 531 832 c 0,81,82
 524 832 524 832 524 836 c 1,83,-1
 528 845 l 1,84,85
 538 853 538 853 558 874.5 c 128,-1,86
 578 896 578 896 593 914 c 2,87,-1
 608 932 l 1,88,89
 614 941 614 941 627 941 c 2,90,-1
 736 941 l 2,91,92
 744 941 744 941 744 934 c 0,93,94
 744 933 744 933 742 918 c 128,-1,95
 740 903 740 903 738 879.5 c 128,-1,96
 736 856 736 856 736 836 c 0,97,98
 736 826 736 826 730 826 c 0,99,100
 715 826 715 826 698 855.5 c 128,-1,101
 681 885 681 885 676 908 c 0,75,76
EndSplineSet
EndChar

StartChar: Atilde
Encoding: 195 195 131
Width: 452
GlyphClass: 2
Flags: W
LayerCount: 2
Fore
SplineSet
799 926 m 0,0,1
 754 847 754 847 697 847 c 0,2,3
 672 847 672 847 638 869.5 c 128,-1,4
 604 892 604 892 578 892 c 1,5,-1
 555 888 l 2,6,7
 547 886 547 886 545 886 c 0,8,9
 538 886 538 886 538 893 c 1,10,-1
 540 902 l 1,11,12
 565 935 565 935 621 935 c 0,13,14
 642 935 642 935 675 926 c 128,-1,15
 708 917 708 917 725 917 c 0,16,17
 760 917 760 917 785 937 c 1,18,-1
 791 937 l 2,19,20
 801 937 801 937 801 932 c 0,21,22
 801 930 801 930 799 926 c 0,0,1
156 481 m 0,23,24
 85 481 85 481 85 349 c 2,25,-1
 85 342 l 2,26,27
 85 329 85 329 79 329 c 0,28,29
 64 329 64 329 56.5 365 c 128,-1,30
 49 401 49 401 49 426 c 0,31,32
 49 467 49 467 67.5 499 c 128,-1,33
 86 531 86 531 125 531 c 0,34,35
 202 531 202 531 273 441 c 1,36,37
 333 511 333 511 401.5 582.5 c 128,-1,38
 470 654 470 654 508 690 c 2,39,-1
 546 727 l 1,40,41
 608 820 608 820 648 820 c 0,42,43
 658 820 658 820 658 811 c 0,44,45
 658 805 658 805 654 797 c 0,46,47
 566 624 566 624 493 407 c 0,48,49
 401 131 401 131 401 -16 c 0,50,51
 401 -62 401 -62 412 -83 c 1,52,53
 416 -88 416 -88 416 -93 c 0,54,55
 416 -100 416 -100 404 -100 c 0,56,57
 377 -100 377 -100 359 -86.5 c 128,-1,58
 341 -73 341 -73 333.5 -51 c 128,-1,59
 326 -29 326 -29 323 -11.5 c 128,-1,60
 320 6 320 6 320 24 c 0,61,62
 320 54 320 54 331 113 c 128,-1,63
 342 172 342 172 342 199 c 0,64,65
 342 239 342 239 324.5 293.5 c 128,-1,66
 307 348 307 348 278 393 c 1,67,68
 246 349 246 349 219.5 305 c 128,-1,69
 193 261 193 261 182 240 c 1,70,-1
 172 218 l 1,71,72
 136 144 136 144 101 83 c 128,-1,73
 66 22 66 22 49 -2 c 2,74,-1
 32 -25 l 1,75,76
 21 -38 21 -38 12 -38 c 0,77,78
 1 -38 1 -38 1 -15 c 0,79,80
 4 126 4 126 257 422 c 1,81,82
 208 481 208 481 156 481 c 0,23,24
499 638 m 1,83,84
 389 542 389 542 293 413 c 1,85,86
 335 349 335 349 358 267 c 0,87,88
 361 258 361 258 363 258 c 1,89,-1
 368 267 l 1,90,91
 393 352 393 352 428.5 443.5 c 128,-1,92
 464 535 464 535 487 584 c 2,93,-1
 510 632 l 2,94,95
 513 638 513 638 513 640 c 128,-1,96
 513 642 513 642 510 642 c 1,97,-1
 499 638 l 1,83,84
EndSplineSet
EndChar

StartChar: Adieresis
Encoding: 196 196 132
Width: 452
GlyphClass: 2
Flags: W
LayerCount: 2
Fore
SplineSet
156 481 m 0,0,1
 85 481 85 481 85 349 c 2,2,-1
 85 342 l 2,3,4
 85 329 85 329 79 329 c 0,5,6
 64 329 64 329 56.5 365 c 128,-1,7
 49 401 49 401 49 426 c 0,8,9
 49 467 49 467 67.5 499 c 128,-1,10
 86 531 86 531 125 531 c 0,11,12
 202 531 202 531 273 441 c 1,13,14
 333 511 333 511 401.5 582.5 c 128,-1,15
 470 654 470 654 508 690 c 2,16,-1
 546 727 l 1,17,18
 608 820 608 820 648 820 c 0,19,20
 658 820 658 820 658 811 c 0,21,22
 658 805 658 805 654 797 c 0,23,24
 566 624 566 624 493 407 c 0,25,26
 401 131 401 131 401 -16 c 0,27,28
 401 -62 401 -62 412 -83 c 1,29,30
 416 -88 416 -88 416 -93 c 0,31,32
 416 -100 416 -100 404 -100 c 0,33,34
 377 -100 377 -100 359 -86.5 c 128,-1,35
 341 -73 341 -73 333.5 -51 c 128,-1,36
 326 -29 326 -29 323 -11.5 c 128,-1,37
 320 6 320 6 320 24 c 0,38,39
 320 54 320 54 331 113 c 128,-1,40
 342 172 342 172 342 199 c 0,41,42
 342 239 342 239 324.5 293.5 c 128,-1,43
 307 348 307 348 278 393 c 1,44,45
 246 349 246 349 219.5 305 c 128,-1,46
 193 261 193 261 182 240 c 1,47,-1
 172 218 l 1,48,49
 136 144 136 144 101 83 c 128,-1,50
 66 22 66 22 49 -2 c 2,51,-1
 32 -25 l 1,52,53
 21 -38 21 -38 12 -38 c 0,54,55
 1 -38 1 -38 1 -15 c 0,56,57
 4 126 4 126 257 422 c 1,58,59
 208 481 208 481 156 481 c 0,0,1
499 638 m 1,60,61
 389 542 389 542 293 413 c 1,62,63
 335 349 335 349 358 267 c 0,64,65
 361 258 361 258 363 258 c 1,66,-1
 368 267 l 1,67,68
 393 352 393 352 428.5 443.5 c 128,-1,69
 464 535 464 535 487 584 c 2,70,-1
 510 632 l 2,71,72
 513 638 513 638 513 640 c 128,-1,73
 513 642 513 642 510 642 c 1,74,-1
 499 638 l 1,60,61
548 846 m 0,75,76
 523 846 523 846 523 874 c 0,77,78
 523 899 523 899 543 921.5 c 128,-1,79
 563 944 563 944 584 944 c 0,80,81
 609 944 609 944 609 917 c 0,82,83
 609 892 609 892 590 869 c 128,-1,84
 571 846 571 846 548 846 c 0,75,76
709 846 m 0,85,86
 684 846 684 846 684 874 c 0,87,88
 684 900 684 900 704 922 c 128,-1,89
 724 944 724 944 746 944 c 0,90,91
 770 944 770 944 770 916 c 0,92,93
 770 891 770 891 751 868.5 c 128,-1,94
 732 846 732 846 709 846 c 0,85,86
EndSplineSet
EndChar

StartChar: Aring
Encoding: 197 197 133
Width: 452
GlyphClass: 2
Flags: W
LayerCount: 2
Fore
SplineSet
156 481 m 0,0,1
 85 481 85 481 85 349 c 2,2,-1
 85 342 l 2,3,4
 85 329 85 329 79 329 c 0,5,6
 64 329 64 329 56.5 365 c 128,-1,7
 49 401 49 401 49 426 c 0,8,9
 49 467 49 467 67.5 499 c 128,-1,10
 86 531 86 531 125 531 c 0,11,12
 202 531 202 531 273 441 c 1,13,14
 333 511 333 511 401.5 582.5 c 128,-1,15
 470 654 470 654 508 690 c 2,16,-1
 546 727 l 1,17,18
 608 820 608 820 648 820 c 0,19,20
 658 820 658 820 658 811 c 0,21,22
 658 805 658 805 654 797 c 0,23,24
 566 624 566 624 493 407 c 0,25,26
 401 131 401 131 401 -16 c 0,27,28
 401 -62 401 -62 412 -83 c 1,29,30
 416 -88 416 -88 416 -93 c 0,31,32
 416 -100 416 -100 404 -100 c 0,33,34
 377 -100 377 -100 359 -86.5 c 128,-1,35
 341 -73 341 -73 333.5 -51 c 128,-1,36
 326 -29 326 -29 323 -11.5 c 128,-1,37
 320 6 320 6 320 24 c 0,38,39
 320 54 320 54 331 113 c 128,-1,40
 342 172 342 172 342 199 c 0,41,42
 342 239 342 239 324.5 293.5 c 128,-1,43
 307 348 307 348 278 393 c 1,44,45
 246 349 246 349 219.5 305 c 128,-1,46
 193 261 193 261 182 240 c 1,47,-1
 172 218 l 1,48,49
 136 144 136 144 101 83 c 128,-1,50
 66 22 66 22 49 -2 c 2,51,-1
 32 -25 l 1,52,53
 21 -38 21 -38 12 -38 c 0,54,55
 1 -38 1 -38 1 -15 c 0,56,57
 4 126 4 126 257 422 c 1,58,59
 208 481 208 481 156 481 c 0,0,1
499 638 m 1,60,61
 389 542 389 542 293 413 c 1,62,63
 335 349 335 349 358 267 c 0,64,65
 361 258 361 258 363 258 c 1,66,-1
 368 267 l 1,67,68
 393 352 393 352 428.5 443.5 c 128,-1,69
 464 535 464 535 487 584 c 2,70,-1
 510 632 l 2,71,72
 513 638 513 638 513 640 c 128,-1,73
 513 642 513 642 510 642 c 1,74,-1
 499 638 l 1,60,61
652 842 m 0,75,76
 636 842 636 842 627 852.5 c 128,-1,77
 618 863 618 863 618 880 c 0,78,79
 618 911 618 911 645 938.5 c 128,-1,80
 672 966 672 966 697 966 c 0,81,82
 713 966 713 966 722.5 955.5 c 128,-1,83
 732 945 732 945 732 928 c 0,84,85
 732 898 732 898 706 870 c 128,-1,86
 680 842 680 842 652 842 c 0,75,76
685 933 m 0,87,88
 673 933 673 933 661.5 920 c 128,-1,89
 650 907 650 907 650 892 c 0,90,91
 650 875 650 875 664 875 c 1,92,93
 676 876 676 876 688 889 c 128,-1,94
 700 902 700 902 700 916 c 0,95,96
 700 933 700 933 685 933 c 0,87,88
EndSplineSet
EndChar

StartChar: AE
Encoding: 198 198 134
Width: 792
GlyphClass: 2
Flags: W
LayerCount: 2
Fore
SplineSet
760 414 m 0,0,1
 698 411 698 411 622 411 c 2,2,-1
 610 411 l 1,3,4
 469 155 469 155 442 64 c 0,5,6
 438 52 438 52 438 42 c 0,7,8
 438 12 438 12 491 12 c 0,9,10
 513 12 513 12 539 20.5 c 128,-1,11
 565 29 565 29 602.5 50.5 c 128,-1,12
 640 72 640 72 687 119 c 128,-1,13
 734 166 734 166 783 233 c 1,14,15
 789 244 789 244 801 244 c 0,16,17
 809 244 809 244 809 236 c 0,18,19
 809 234 809 234 807 228 c 0,20,21
 759 105 759 105 685 8 c 1,22,23
 679 -6 679 -6 655 -10 c 1,24,25
 573 -14 573 -14 482 -14 c 0,26,27
 427 -14 427 -14 401 -13 c 1,28,29
 401 -62 401 -62 412 -83 c 1,30,31
 416 -88 416 -88 416 -93 c 0,32,33
 416 -100 416 -100 404 -100 c 0,34,35
 377 -100 377 -100 359 -86.5 c 128,-1,36
 341 -73 341 -73 333.5 -51 c 128,-1,37
 326 -29 326 -29 323 -11.5 c 128,-1,38
 320 6 320 6 320 24 c 0,39,40
 320 54 320 54 331 113 c 128,-1,41
 342 172 342 172 342 199 c 0,42,43
 342 239 342 239 324.5 293.5 c 128,-1,44
 307 348 307 348 278 393 c 1,45,46
 246 349 246 349 219.5 305 c 128,-1,47
 193 261 193 261 182 240 c 1,48,-1
 172 218 l 1,49,50
 136 144 136 144 101 83 c 128,-1,51
 66 22 66 22 49 -2 c 2,52,-1
 32 -25 l 1,53,54
 21 -38 21 -38 12 -38 c 0,55,56
 1 -38 1 -38 1 -15 c 0,57,58
 4 126 4 126 257 422 c 1,59,60
 208 481 208 481 156 481 c 0,61,62
 85 481 85 481 85 349 c 2,63,-1
 85 342 l 2,64,65
 85 329 85 329 79 329 c 0,66,67
 64 329 64 329 56.5 365 c 128,-1,68
 49 401 49 401 49 426 c 0,69,70
 49 467 49 467 67.5 499 c 128,-1,71
 86 531 86 531 125 531 c 0,72,73
 202 531 202 531 273 441 c 1,74,75
 333 511 333 511 401.5 582.5 c 128,-1,76
 470 654 470 654 508 690 c 2,77,-1
 546 727 l 1,78,79
 608 820 608 820 648 820 c 0,80,81
 658 820 658 820 658 811 c 0,82,83
 658 805 658 805 654 797 c 0,84,85
 566 624 566 624 493 407 c 0,86,87
 473 347 473 347 464 316 c 1,88,89
 507 389 507 389 556.5 469 c 128,-1,90
 606 549 606 549 634 592 c 1,91,-1
 661 636 l 2,92,93
 696 692 696 692 696 720 c 0,94,95
 696 726 696 726 693.5 733 c 128,-1,96
 691 740 691 740 691 742 c 0,97,98
 691 753 691 753 705 753 c 0,99,100
 789 759 789 759 885 759 c 0,101,102
 967 759 967 759 1017 754 c 1,103,104
 1032 754 1032 754 1032 741 c 0,105,106
 1032 738 1032 738 1029 730 c 0,107,108
 996 647 996 647 962 600 c 1,109,110
 957 595 957 595 951 595 c 0,111,112
 942 595 942 595 942 608 c 1,113,114
 947 627 947 627 947 649 c 0,115,116
 947 731 947 731 865 731 c 2,117,-1
 861 731 l 2,118,119
 810 731 810 731 788 703 c 0,120,121
 737 640 737 640 652 486 c 0,122,123
 642 469 642 469 627 442 c 1,124,125
 674 443 674 443 777 443 c 0,126,127
 787 443 787 443 787 437 c 128,-1,128
 787 431 787 431 778.5 423 c 128,-1,129
 770 415 770 415 760 414 c 0,0,1
499 638 m 1,130,131
 389 542 389 542 293 413 c 1,132,133
 335 349 335 349 358 267 c 0,134,135
 361 258 361 258 363 258 c 1,136,-1
 368 267 l 1,137,138
 393 352 393 352 428.5 443.5 c 128,-1,139
 464 535 464 535 487 584 c 2,140,-1
 510 632 l 2,141,142
 513 638 513 638 513 640 c 128,-1,143
 513 642 513 642 510 642 c 1,144,-1
 499 638 l 1,130,131
EndSplineSet
EndChar

StartChar: Ccedilla
Encoding: 199 199 135
Width: 438
GlyphClass: 2
Flags: W
LayerCount: 2
Fore
SplineSet
464 240 m 0,0,1
 412 152 412 152 326.5 72.5 c 128,-1,2
 241 -7 241 -7 152 -24 c 1,3,4
 135 -33 135 -33 135 -47 c 0,5,6
 135 -52 135 -52 140 -62.5 c 128,-1,7
 145 -73 145 -73 145 -81 c 0,8,9
 145 -101 145 -101 129 -114.5 c 128,-1,10
 113 -128 113 -128 91 -128 c 0,11,12
 60 -128 60 -128 56 -110 c 1,13,14
 56 -103 56 -103 63 -103 c 0,15,16
 66 -103 66 -103 73 -105 c 128,-1,17
 80 -107 80 -107 84 -107 c 0,18,19
 94 -107 94 -107 103 -100.5 c 128,-1,20
 112 -94 112 -94 112 -83 c 0,21,22
 112 -77 112 -77 106.5 -69.5 c 128,-1,23
 101 -62 101 -62 101 -57 c 0,24,25
 101 -51 101 -51 105.5 -44.5 c 128,-1,26
 110 -38 110 -38 115 -34 c 2,27,-1
 120 -31 l 2,28,29
 122 -29 122 -29 122 -27 c 1,30,31
 120 -27 120 -27 116.5 -27.5 c 128,-1,32
 113 -28 113 -28 111 -28 c 0,33,34
 28 -28 28 -28 28 96 c 0,35,36
 28 253 28 253 119.5 425 c 128,-1,37
 211 597 211 597 353 706 c 0,38,39
 362 713 362 713 377.5 722.5 c 128,-1,40
 393 732 393 732 435.5 748.5 c 128,-1,41
 478 765 478 765 513 765 c 0,42,43
 540 765 540 765 560 757 c 0,44,45
 562 756 562 756 565 756 c 0,46,47
 572 756 572 756 576 763 c 1,48,49
 597 780 597 780 643 780 c 2,50,-1
 651 780 l 2,51,52
 665 780 665 780 665 766 c 0,53,54
 665 744 665 744 632.5 696 c 128,-1,55
 600 648 600 648 572 615 c 128,-1,56
 544 582 544 582 522 558 c 0,57,58
 485 519 485 519 470 519 c 0,59,60
 463 519 463 519 463 529 c 0,61,62
 463 564 463 564 520 666 c 0,63,64
 521 668 521 668 530 682 c 128,-1,65
 539 696 539 696 543 705.5 c 128,-1,66
 547 715 547 715 547 723 c 0,67,68
 547 740 547 740 520 740 c 0,69,70
 498 740 498 740 471.5 726 c 128,-1,71
 445 712 445 712 430 698 c 2,72,-1
 414 684 l 1,73,74
 308 586 308 586 222.5 425.5 c 128,-1,75
 137 265 137 265 137 134 c 0,76,77
 137 39 137 39 197 39 c 0,78,79
 205 39 205 39 215.5 41 c 128,-1,80
 226 43 226 43 251.5 54.5 c 128,-1,81
 277 66 277 66 301.5 86.5 c 128,-1,82
 326 107 326 107 358.5 149.5 c 128,-1,83
 391 192 391 192 420 249 c 0,84,85
 428 265 428 265 441 294.5 c 128,-1,86
 454 324 454 324 461.5 338 c 128,-1,87
 469 352 469 352 474 352 c 0,88,89
 481 352 481 352 485 339.5 c 128,-1,90
 489 327 489 327 489 318 c 0,91,92
 489 281 489 281 464 240 c 0,0,1
EndSplineSet
EndChar

StartChar: Egrave
Encoding: 200 200 136
Width: 445
GlyphClass: 2
Flags: W
LayerCount: 2
Fore
SplineSet
413 414 m 0,0,1
 351 411 351 411 275 411 c 2,2,-1
 263 411 l 1,3,4
 122 155 122 155 95 64 c 0,5,6
 91 52 91 52 91 42 c 0,7,8
 91 12 91 12 144 12 c 0,9,10
 166 12 166 12 192 20.5 c 128,-1,11
 218 29 218 29 255.5 50.5 c 128,-1,12
 293 72 293 72 340 119 c 128,-1,13
 387 166 387 166 436 233 c 1,14,15
 442 244 442 244 454 244 c 0,16,17
 462 244 462 244 462 236 c 0,18,19
 462 234 462 234 460 228 c 0,20,21
 412 105 412 105 338 8 c 1,22,23
 332 -6 332 -6 308 -10 c 1,24,25
 226 -14 226 -14 135 -14 c 0,26,27
 31 -14 31 -14 -33 -7 c 0,28,29
 -45 -6 -45 -6 -45 7 c 0,30,31
 -45 15 -45 15 -41 23 c 0,32,33
 16 151 16 151 174 412 c 1,34,-1
 129 413 l 2,35,36
 116 413 116 413 116 421 c 128,-1,37
 116 429 116 429 124.5 435.5 c 128,-1,38
 133 442 133 442 142 442 c 2,39,-1
 193 442 l 1,40,-1
 314 636 l 1,41,42
 329 663 329 663 329 685 c 0,43,44
 329 700 329 700 322.5 711 c 128,-1,45
 316 722 316 722 309 726 c 2,46,-1
 302 730 l 2,47,48
 293 735 293 735 293 741 c 0,49,50
 293 745 293 745 296.5 748 c 128,-1,51
 300 751 300 751 304 752 c 2,52,-1
 308 753 l 1,53,54
 411 759 411 759 522 759 c 0,55,56
 614 759 614 759 670 754 c 1,57,58
 685 754 685 754 685 741 c 0,59,60
 685 738 685 738 682 730 c 0,61,62
 649 647 649 647 615 600 c 1,63,64
 610 595 610 595 604 595 c 0,65,66
 595 595 595 595 595 608 c 1,67,68
 600 627 600 627 600 649 c 0,69,70
 600 731 600 731 518 731 c 2,71,-1
 514 731 l 2,72,73
 463 731 463 731 441 703 c 0,74,75
 390 640 390 640 305 486 c 0,76,77
 295 469 295 469 280 443 c 1,78,-1
 430 443 l 2,79,80
 440 443 440 443 440 437 c 128,-1,81
 440 431 440 431 431.5 423 c 128,-1,82
 423 415 423 415 413 414 c 0,0,1
584 802 m 0,83,84
 584 796 584 796 579 796 c 0,85,86
 575 796 575 796 566 802 c 0,87,88
 548 814 548 814 533 839 c 128,-1,89
 518 864 518 864 512 882 c 2,90,-1
 506 901 l 1,91,92
 506 911 506 911 514 911 c 2,93,-1
 568 911 l 2,94,95
 579 911 579 911 579 900 c 2,96,-1
 579 878 l 2,97,98
 579 836 579 836 584 802 c 0,83,84
EndSplineSet
EndChar

StartChar: Eacute
Encoding: 201 201 137
Width: 445
GlyphClass: 2
Flags: W
LayerCount: 2
Fore
SplineSet
413 414 m 0,0,1
 351 411 351 411 275 411 c 2,2,-1
 263 411 l 1,3,4
 122 155 122 155 95 64 c 0,5,6
 91 52 91 52 91 42 c 0,7,8
 91 12 91 12 144 12 c 0,9,10
 166 12 166 12 192 20.5 c 128,-1,11
 218 29 218 29 255.5 50.5 c 128,-1,12
 293 72 293 72 340 119 c 128,-1,13
 387 166 387 166 436 233 c 1,14,15
 442 244 442 244 454 244 c 0,16,17
 462 244 462 244 462 236 c 0,18,19
 462 234 462 234 460 228 c 0,20,21
 412 105 412 105 338 8 c 1,22,23
 332 -6 332 -6 308 -10 c 1,24,25
 226 -14 226 -14 135 -14 c 0,26,27
 31 -14 31 -14 -33 -7 c 0,28,29
 -45 -6 -45 -6 -45 7 c 0,30,31
 -45 15 -45 15 -41 23 c 0,32,33
 16 151 16 151 174 412 c 1,34,-1
 129 413 l 2,35,36
 116 413 116 413 116 421 c 128,-1,37
 116 429 116 429 124.5 435.5 c 128,-1,38
 133 442 133 442 142 442 c 2,39,-1
 193 442 l 1,40,-1
 314 636 l 1,41,42
 329 663 329 663 329 685 c 0,43,44
 329 700 329 700 322.5 711 c 128,-1,45
 316 722 316 722 309 726 c 2,46,-1
 302 730 l 2,47,48
 293 735 293 735 293 741 c 0,49,50
 293 745 293 745 296.5 748 c 128,-1,51
 300 751 300 751 304 752 c 2,52,-1
 308 753 l 1,53,54
 411 759 411 759 522 759 c 0,55,56
 614 759 614 759 670 754 c 1,57,58
 685 754 685 754 685 741 c 0,59,60
 685 738 685 738 682 730 c 0,61,62
 649 647 649 647 615 600 c 1,63,64
 610 595 610 595 604 595 c 0,65,66
 595 595 595 595 595 608 c 1,67,68
 600 627 600 627 600 649 c 0,69,70
 600 731 600 731 518 731 c 2,71,-1
 514 731 l 2,72,73
 463 731 463 731 441 703 c 0,74,75
 390 640 390 640 305 486 c 0,76,77
 295 469 295 469 280 443 c 1,78,-1
 430 443 l 2,79,80
 440 443 440 443 440 437 c 128,-1,81
 440 431 440 431 431.5 423 c 128,-1,82
 423 415 423 415 413 414 c 0,0,1
652 901 m 0,83,84
 625 870 625 870 587.5 846.5 c 128,-1,85
 550 823 550 823 526 815 c 2,86,-1
 503 807 l 1,87,88
 492 807 492 807 492 811 c 0,89,90
 492 814 492 814 496 820 c 1,91,92
 506 828 506 828 526 849.5 c 128,-1,93
 546 871 546 871 561 889 c 2,94,-1
 576 907 l 1,95,96
 582 916 582 916 595 916 c 2,97,-1
 644 916 l 2,98,99
 656 916 656 916 656 909 c 0,100,101
 656 905 656 905 652 901 c 0,83,84
EndSplineSet
EndChar

StartChar: Ecircumflex
Encoding: 202 202 138
Width: 445
GlyphClass: 2
Flags: W
LayerCount: 2
Fore
SplineSet
413 414 m 0,0,1
 351 411 351 411 275 411 c 2,2,-1
 263 411 l 1,3,4
 122 155 122 155 95 64 c 0,5,6
 91 52 91 52 91 42 c 0,7,8
 91 12 91 12 144 12 c 0,9,10
 166 12 166 12 192 20.5 c 128,-1,11
 218 29 218 29 255.5 50.5 c 128,-1,12
 293 72 293 72 340 119 c 128,-1,13
 387 166 387 166 436 233 c 1,14,15
 442 244 442 244 454 244 c 0,16,17
 462 244 462 244 462 236 c 0,18,19
 462 234 462 234 460 228 c 0,20,21
 412 105 412 105 338 8 c 1,22,23
 332 -6 332 -6 308 -10 c 1,24,25
 226 -14 226 -14 135 -14 c 0,26,27
 31 -14 31 -14 -33 -7 c 0,28,29
 -45 -6 -45 -6 -45 7 c 0,30,31
 -45 15 -45 15 -41 23 c 0,32,33
 16 151 16 151 174 412 c 1,34,-1
 129 413 l 2,35,36
 116 413 116 413 116 421 c 128,-1,37
 116 429 116 429 124.5 435.5 c 128,-1,38
 133 442 133 442 142 442 c 2,39,-1
 193 442 l 1,40,-1
 314 636 l 1,41,42
 329 663 329 663 329 685 c 0,43,44
 329 700 329 700 322.5 711 c 128,-1,45
 316 722 316 722 309 726 c 2,46,-1
 302 730 l 2,47,48
 293 735 293 735 293 741 c 0,49,50
 293 745 293 745 296.5 748 c 128,-1,51
 300 751 300 751 304 752 c 2,52,-1
 308 753 l 1,53,54
 411 759 411 759 522 759 c 0,55,56
 614 759 614 759 670 754 c 1,57,58
 685 754 685 754 685 741 c 0,59,60
 685 738 685 738 682 730 c 0,61,62
 649 647 649 647 615 600 c 1,63,64
 610 595 610 595 604 595 c 0,65,66
 595 595 595 595 595 608 c 1,67,68
 600 627 600 627 600 649 c 0,69,70
 600 731 600 731 518 731 c 2,71,-1
 514 731 l 2,72,73
 463 731 463 731 441 703 c 0,74,75
 390 640 390 640 305 486 c 0,76,77
 295 469 295 469 280 443 c 1,78,-1
 430 443 l 2,79,80
 440 443 440 443 440 437 c 128,-1,81
 440 431 440 431 431.5 423 c 128,-1,82
 423 415 423 415 413 414 c 0,0,1
561 870 m 0,83,84
 560 874 560 874 558 874 c 1,85,-1
 552 870 l 1,86,87
 519 837 519 837 476 815.5 c 128,-1,88
 433 794 433 794 416 794 c 0,89,90
 409 794 409 794 409 798 c 1,91,-1
 413 807 l 1,92,93
 423 815 423 815 443 836.5 c 128,-1,94
 463 858 463 858 478 876 c 2,95,-1
 493 894 l 1,96,97
 499 903 499 903 512 903 c 2,98,-1
 621 903 l 2,99,100
 629 903 629 903 629 896 c 0,101,102
 629 895 629 895 627 880 c 128,-1,103
 625 865 625 865 623 841.5 c 128,-1,104
 621 818 621 818 621 798 c 0,105,106
 621 788 621 788 615 788 c 0,107,108
 600 788 600 788 583 817.5 c 128,-1,109
 566 847 566 847 561 870 c 0,83,84
EndSplineSet
EndChar

StartChar: Edieresis
Encoding: 203 203 139
Width: 445
GlyphClass: 2
Flags: W
LayerCount: 2
Fore
SplineSet
413 414 m 0,0,1
 351 411 351 411 275 411 c 2,2,-1
 263 411 l 1,3,4
 122 155 122 155 95 64 c 0,5,6
 91 52 91 52 91 42 c 0,7,8
 91 12 91 12 144 12 c 0,9,10
 166 12 166 12 192 20.5 c 128,-1,11
 218 29 218 29 255.5 50.5 c 128,-1,12
 293 72 293 72 340 119 c 128,-1,13
 387 166 387 166 436 233 c 1,14,15
 442 244 442 244 454 244 c 0,16,17
 462 244 462 244 462 236 c 0,18,19
 462 234 462 234 460 228 c 0,20,21
 412 105 412 105 338 8 c 1,22,23
 332 -6 332 -6 308 -10 c 1,24,25
 226 -14 226 -14 135 -14 c 0,26,27
 31 -14 31 -14 -33 -7 c 0,28,29
 -45 -6 -45 -6 -45 7 c 0,30,31
 -45 15 -45 15 -41 23 c 0,32,33
 16 151 16 151 174 412 c 1,34,-1
 129 413 l 2,35,36
 116 413 116 413 116 421 c 128,-1,37
 116 429 116 429 124.5 435.5 c 128,-1,38
 133 442 133 442 142 442 c 2,39,-1
 193 442 l 1,40,-1
 314 636 l 1,41,42
 329 663 329 663 329 685 c 0,43,44
 329 700 329 700 322.5 711 c 128,-1,45
 316 722 316 722 309 726 c 2,46,-1
 302 730 l 2,47,48
 293 735 293 735 293 741 c 0,49,50
 293 745 293 745 296.5 748 c 128,-1,51
 300 751 300 751 304 752 c 2,52,-1
 308 753 l 1,53,54
 411 759 411 759 522 759 c 0,55,56
 614 759 614 759 670 754 c 1,57,58
 685 754 685 754 685 741 c 0,59,60
 685 738 685 738 682 730 c 0,61,62
 649 647 649 647 615 600 c 1,63,64
 610 595 610 595 604 595 c 0,65,66
 595 595 595 595 595 608 c 1,67,68
 600 627 600 627 600 649 c 0,69,70
 600 731 600 731 518 731 c 2,71,-1
 514 731 l 2,72,73
 463 731 463 731 441 703 c 0,74,75
 390 640 390 640 305 486 c 0,76,77
 295 469 295 469 280 443 c 1,78,-1
 430 443 l 2,79,80
 440 443 440 443 440 437 c 128,-1,81
 440 431 440 431 431.5 423 c 128,-1,82
 423 415 423 415 413 414 c 0,0,1
430 799 m 0,83,84
 405 799 405 799 405 827 c 0,85,86
 405 852 405 852 425 874.5 c 128,-1,87
 445 897 445 897 466 897 c 0,88,89
 491 897 491 897 491 870 c 0,90,91
 491 845 491 845 472 822 c 128,-1,92
 453 799 453 799 430 799 c 0,83,84
591 799 m 0,93,94
 566 799 566 799 566 827 c 0,95,96
 566 853 566 853 586 875 c 128,-1,97
 606 897 606 897 628 897 c 0,98,99
 652 897 652 897 652 869 c 0,100,101
 652 844 652 844 633 821.5 c 128,-1,102
 614 799 614 799 591 799 c 0,93,94
EndSplineSet
EndChar

StartChar: Igrave
Encoding: 204 204 140
Width: 227
GlyphClass: 2
Flags: W
LayerCount: 2
Fore
SplineSet
522 740 m 0,0,1
 485 711 485 711 432.5 624.5 c 128,-1,2
 380 538 380 538 316.5 413 c 128,-1,3
 253 288 253 288 251 284 c 0,4,5
 244 272 244 272 226 238 c 128,-1,6
 208 204 208 204 197.5 184.5 c 128,-1,7
 187 165 187 165 166.5 131.5 c 128,-1,8
 146 98 146 98 130 77 c 128,-1,9
 114 56 114 56 91 30.5 c 128,-1,10
 68 5 68 5 46.5 -9.5 c 128,-1,11
 25 -24 25 -24 -2 -34 c 128,-1,12
 -29 -44 -29 -44 -56 -44 c 0,13,14
 -79 -44 -79 -44 -79 -35 c 0,15,16
 -79 -32 -79 -32 -76 -29 c 128,-1,17
 -73 -26 -73 -26 -70 -24 c 2,18,-1
 -67 -23 l 1,19,20
 -24 4 -24 4 39 93 c 128,-1,21
 102 182 102 182 144 258 c 2,22,-1
 185 333 l 1,23,24
 231 421 231 421 275.5 494.5 c 128,-1,25
 320 568 320 568 350.5 609 c 128,-1,26
 381 650 381 650 404.5 678.5 c 128,-1,27
 428 707 428 707 440 717 c 2,28,-1
 451 727 l 2,29,30
 454 730 454 730 454 733 c 0,31,32
 454 742 454 742 424 742 c 0,33,34
 392 742 392 742 362 726 c 128,-1,35
 332 710 332 710 311.5 687 c 128,-1,36
 291 664 291 664 275 640.5 c 128,-1,37
 259 617 259 617 252 601 c 2,38,-1
 244 585 l 1,39,40
 240 569 240 569 233 569 c 0,41,42
 216 569 216 569 216 613 c 0,43,44
 216 667 216 667 251.5 704 c 128,-1,45
 287 741 287 741 336.5 755.5 c 128,-1,46
 386 770 386 770 444 770 c 0,47,48
 479 770 479 770 521 764 c 0,49,50
 533 762 533 762 533 755 c 128,-1,51
 533 748 533 748 522 740 c 0,0,1
513 804 m 0,52,53
 513 798 513 798 508 798 c 0,54,55
 504 798 504 798 495 804 c 0,56,57
 477 816 477 816 462 841 c 128,-1,58
 447 866 447 866 441 884 c 2,59,-1
 435 903 l 1,60,61
 435 913 435 913 443 913 c 2,62,-1
 497 913 l 2,63,64
 508 913 508 913 508 902 c 2,65,-1
 508 880 l 2,66,67
 508 838 508 838 513 804 c 0,52,53
EndSplineSet
EndChar

